<svg xmlns="http://www.w3.org/2000/svg" xmlns:v="https://svgstorm.com"
viewBox = "0 0 1674 1529"
width="1674"
height="1529">
<g fill="None" fill-opacity="0.0" stroke="#000000" stroke-opacity="0.00" stroke-width="0.3"><path d="
M 0.00 1529.00 
L 1674.00 1529.00
L 1674.00 0.00
L 0.00 0.00
L 0.00 1529.00
M 922.00 246.00 
C 924.75 248.19 927.53 250.87 930.00 253.00
C 944.34 265.37 953.96 282.21 961.00 299.00
C 1003.37 265.67 1068.70 262.93 1114.25 290.75 C 1159.79 318.57 1185.00 370.96 1177.00 424.00
C 1215.40 419.36 1254.66 429.78 1283.00 455.00
C 1288.04 459.14 1292.05 463.20 1296.00 468.00
C 1316.03 492.39 1329.28 518.58 1330.00 551.00 C 1330.72 583.42 1322.29 613.88 1303.00 640.00
C 1352.66 660.28 1385.76 710.08 1386.00 764.00 C 1386.24 817.92 1352.80 868.88 1303.00 889.00
C 1335.99 931.95 1339.20 995.14 1311.23 1041.23 C 1283.26 1087.32 1230.69 1112.14 1177.00 1105.00
C 1184.84 1157.96 1160.18 1209.73 1114.78 1237.78 C 1069.38 1265.82 1003.49 1263.69 961.00 1230.00
C 941.96 1280.54 890.30 1312.92 837.00 1313.00 C 783.70 1313.08 731.38 1280.41 713.00 1230.00
C 674.68 1260.69 612.98 1265.26 569.97 1244.03 C 526.97 1222.79 499.92 1182.55 496.00 1135.00
C 495.06 1127.95 495.36 1120.61 496.00 1114.00
C 495.72 1111.03 496.21 1107.98 496.00 1105.00
C 443.14 1111.76 390.40 1087.49 362.23 1041.77 C 334.06 996.05 337.95 931.38 371.00 889.00
C 321.87 868.98 287.21 818.51 287.00 765.00 C 286.79 711.49 321.63 659.69 371.00 640.00
C 338.08 597.55 334.09 533.86 361.97 487.97 C 389.85 442.09 442.81 416.90 496.00 424.00
C 496.00 421.00 496.00 418.00 496.00 415.00
C 495.49 409.70 494.44 403.01 495.00 397.00
C 499.50 349.03 525.18 307.51 568.68 285.68 C 612.18 263.85 674.20 267.76 713.00 299.00
C 741.68 216.80 857.77 189.14 922.00 246.00 Z"/>
</g>
<g fill="None" fill-opacity="0.0" stroke="#483898" stroke-opacity="0.97" stroke-width="0.3"><path d="
M 495.00 397.00 
C 495.13 398.07 497.42 401.67 497.00 405.00 C 496.58 408.33 496.29 411.92 496.00 415.00
C 496.00 418.00 496.00 421.00 496.00 424.00
C 442.81 416.90 389.85 442.09 361.97 487.97 C 334.09 533.86 338.08 597.55 371.00 640.00
C 321.63 659.69 286.79 711.49 287.00 765.00 C 287.21 818.51 321.87 868.98 371.00 889.00
C 337.95 931.38 334.06 996.05 362.23 1041.77 C 390.40 1087.49 443.14 1111.76 496.00 1105.00
C 496.21 1107.98 495.72 1111.03 496.00 1114.00
C 496.65 1120.95 496.38 1128.49 496.00 1135.00
C 499.92 1182.55 526.97 1222.79 569.97 1244.03 C 612.98 1265.26 674.68 1260.69 713.00 1230.00
C 731.38 1280.41 783.70 1313.08 837.00 1313.00 C 890.30 1312.92 941.96 1280.54 961.00 1230.00
C 1003.49 1263.69 1069.38 1265.82 1114.78 1237.78 C 1160.18 1209.73 1184.84 1157.96 1177.00 1105.00
C 1230.69 1112.14 1283.26 1087.32 1311.23 1041.23 C 1339.20 995.14 1335.99 931.95 1303.00 889.00
C 1352.80 868.88 1386.24 817.92 1386.00 764.00 C 1385.76 710.08 1352.66 660.28 1303.00 640.00
C 1322.29 613.88 1330.72 583.42 1330.00 551.00 C 1329.28 518.58 1316.03 492.39 1296.00 468.00
C 1291.90 465.35 1285.75 458.67 1283.00 455.00
C 1254.66 429.78 1215.40 419.36 1177.00 424.00
C 1185.00 370.96 1159.79 318.57 1114.25 290.75 C 1068.70 262.93 1003.37 265.67 961.00 299.00
C 953.96 282.21 944.34 265.37 930.00 253.00
C 926.92 251.35 923.95 248.27 922.00 246.00
C 857.77 189.14 741.68 216.80 713.00 299.00
C 674.20 267.76 612.18 263.85 568.68 285.68 C 525.18 307.51 499.50 349.03 495.00 397.00
M 901.00 312.00 
C 900.77 312.35 901.00 313.00 901.00 313.00
C 915.39 312.78 910.44 335.91 911.00 347.00 C 911.56 358.09 909.88 377.86 913.33 389.67 C 916.78 401.48 915.85 416.63 919.00 429.00 C 922.15 441.38 922.11 455.37 924.98 468.02 C 927.85 480.68 928.46 494.38 930.78 507.22 C 933.10 520.06 934.84 532.82 936.00 546.00 C 937.16 559.18 941.63 570.74 942.93 584.07 C 944.23 597.41 945.60 610.66 948.00 624.00 C 950.40 637.34 951.13 650.92 952.00 665.00 C 952.87 679.08 953.30 694.33 953.00 709.00 C 952.70 723.67 953.23 739.25 953.00 754.00
C 963.00 754.00 973.00 754.00 983.00 754.00
C 983.09 743.36 982.88 732.64 983.00 722.00 C 983.12 711.36 982.77 700.61 983.00 690.00 C 983.23 679.39 982.92 669.18 982.07 658.93 C 981.23 648.67 981.71 637.43 980.67 627.33 C 979.63 617.23 979.36 607.86 978.07 597.93 C 976.79 587.99 977.59 577.02 977.00 567.00 C 976.41 556.98 974.84 547.91 974.01 537.99 C 973.18 528.07 972.62 517.67 971.02 507.98 C 969.42 498.28 970.77 487.54 969.00 478.00 C 967.23 468.46 967.64 458.74 965.67 449.33 C 963.70 439.92 963.82 429.60 963.00 420.00 C 962.18 410.40 960.04 400.34 959.00 391.00 C 957.96 381.66 957.54 373.61 964.75 366.75 C 971.97 359.89 979.97 359.59 990.00 360.00 C 1000.03 360.41 1011.71 359.58 1022.00 360.00 C 1032.29 360.42 1044.83 359.30 1055.00 360.00 C 1065.17 360.70 1077.44 358.51 1087.00 360.00 C 1096.56 361.49 1100.09 368.84 1101.33 377.67 C 1102.57 386.50 1101.88 398.99 1102.00 409.00 C 1102.12 419.01 1101.94 431.63 1102.00 442.00 C 1102.06 452.37 1100.68 462.41 1101.00 473.00 C 1101.32 483.59 1100.85 494.33 1101.00 505.00 C 1101.15 515.67 1100.93 526.25 1101.00 537.00 C 1101.07 547.75 1100.97 559.24 1101.00 570.00 C 1101.03 580.76 1100.99 591.27 1101.00 602.00 C 1101.01 612.73 1100.99 623.27 1101.00 634.00 C 1101.01 644.73 1101.00 655.22 1101.00 666.00 C 1101.00 676.78 1101.00 688.22 1101.00 699.00 C 1101.00 709.78 1101.00 720.27 1101.00 731.00 C 1101.00 741.73 1101.00 752.27 1101.00 763.00 C 1101.00 773.73 1101.00 784.22 1101.00 795.00 C 1101.00 805.78 1101.00 817.22 1101.00 828.00 C 1101.00 838.78 1101.00 849.27 1101.00 860.00 C 1101.00 870.73 1101.00 881.27 1101.00 892.00 C 1101.00 902.73 1101.00 913.22 1101.00 924.00 C 1101.00 934.78 1101.01 946.23 1101.00 957.00 C 1100.99 967.77 1101.03 978.28 1101.00 989.00 C 1100.97 999.72 1101.06 1010.29 1101.00 1021.00 C 1100.94 1031.71 1101.14 1042.28 1101.00 1053.00 C 1100.86 1063.72 1101.30 1075.34 1101.00 1086.00 C 1100.70 1096.66 1101.88 1106.65 1102.00 1117.00 C 1102.12 1127.35 1101.88 1138.97 1102.00 1149.00 C 1102.12 1159.03 1101.72 1166.69 1093.75 1172.75 C 1085.79 1178.81 1075.07 1176.78 1065.00 1177.00 C 1054.93 1177.22 1043.11 1176.95 1033.00 1177.00 C 1022.89 1177.05 1010.78 1177.10 1001.00 1177.00 C 991.22 1176.90 979.83 1178.12 971.77 1174.23 C 963.71 1170.34 958.30 1164.12 958.01 1154.99 C 957.72 1145.87 960.12 1135.57 961.33 1126.33 C 962.54 1117.09 962.93 1106.52 964.00 1097.00 C 965.07 1087.48 966.63 1078.62 967.98 1068.98 C 969.32 1059.33 969.38 1047.91 970.00 1038.00 C 970.62 1028.09 972.44 1018.94 973.00 1009.00 C 973.56 999.06 975.46 990.06 976.00 980.00 C 976.54 969.94 977.29 959.97 977.78 949.78 C 978.27 939.58 979.26 929.23 980.00 919.00 C 980.74 908.77 981.22 899.47 982.00 889.00 C 982.78 878.53 982.73 869.09 983.00 858.00 C 983.27 846.91 982.42 837.89 983.00 826.00 C 983.58 814.11 981.77 806.30 983.00 793.00 C 984.23 779.70 974.57 782.47 962.00 782.00 C 949.43 781.53 953.11 794.35 953.00 805.00 C 952.89 815.65 953.05 826.23 953.00 837.00 C 952.95 847.77 953.04 859.18 953.00 870.00
C 953.29 873.05 954.85 876.59 954.00 880.00
C 952.02 879.53 954.11 876.40 952.00 876.00
C 951.79 883.39 950.19 889.70 950.00 897.00 C 949.81 904.31 948.59 911.28 947.22 918.22 C 945.85 925.17 945.33 932.09 944.01 939.01 C 942.69 945.92 942.77 953.26 941.07 960.07 C 939.38 966.89 939.86 974.24 938.00 981.00 C 936.15 987.77 936.34 995.12 935.02 1002.02 C 933.71 1008.92 933.46 1016.14 932.00 1023.00 C 930.54 1029.86 929.23 1036.84 929.00 1044.00 C 928.77 1051.16 926.09 1057.55 925.67 1064.67 C 925.25 1071.79 922.10 1077.81 922.07 1085.07 C 922.05 1092.33 920.38 1099.25 919.22 1106.22 C 918.06 1113.20 916.45 1119.80 916.00 1127.00 C 915.55 1134.21 914.76 1140.99 913.02 1148.02 C 911.29 1155.06 910.90 1162.29 911.00 1170.00 C 911.10 1177.71 911.03 1186.16 911.00 1194.00 C 910.97 1201.84 911.72 1209.15 909.67 1216.67 C 907.63 1224.19 900.35 1224.24 893.00 1224.00 C 885.65 1223.76 876.70 1224.11 869.00 1224.00 C 861.30 1223.89 852.84 1224.07 845.00 1224.00 C 837.16 1223.93 828.87 1224.06 821.00 1224.00 C 813.13 1223.94 804.81 1224.09 797.00 1224.00 C 789.19 1223.91 780.63 1224.19 773.00 1224.00 C 765.37 1223.81 763.06 1218.12 763.00 1211.00 C 762.95 1203.88 763.06 1194.35 763.00 1187.00 C 762.94 1179.65 762.70 1170.88 763.99 1163.99 C 765.28 1157.11 765.72 1150.63 768.32 1144.32 C 770.93 1138.01 771.54 1131.49 772.98 1124.98 C 774.41 1118.46 777.14 1112.86 778.32 1106.32 C 779.51 1099.78 780.79 1093.25 782.98 1086.98 C 785.16 1080.70 786.33 1074.21 787.78 1067.78 C 789.23 1061.34 792.03 1055.50 792.93 1048.93 C 793.82 1042.36 796.11 1036.26 797.93 1029.93 C 799.75 1023.59 799.76 1016.47 802.32 1010.32 C 804.89 1004.17 805.47 997.35 806.93 990.93 C 808.38 984.50 811.29 978.89 812.33 972.33 C 813.37 965.77 814.98 959.32 816.98 952.98 C 818.97 946.64 820.25 940.25 821.78 933.78 C 823.31 927.31 826.11 921.70 826.98 914.98 C 827.84 908.25 829.92 902.57 831.93 895.93 C 833.94 889.28 834.10 881.41 834.00 874.00 C 833.90 866.59 834.12 857.42 834.00 850.00 C 833.88 842.58 834.21 833.05 834.00 826.00 C 833.79 818.95 834.43 808.04 834.00 802.00 C 833.57 795.96 836.69 781.57 829.99 782.01 C 823.29 782.45 811.71 779.08 806.00 782.00
C 803.45 783.75 806.98 791.86 806.00 796.00 C 805.02 800.14 806.41 808.06 806.00 813.00 C 805.59 817.94 806.11 824.75 806.00 830.00 C 805.89 835.25 805.84 840.56 806.00 846.00 C 806.16 851.44 805.50 857.46 806.00 863.00 C 806.50 868.54 805.65 873.47 804.00 878.00
C 802.45 891.19 796.16 904.55 792.07 917.07 C 787.99 929.60 782.90 942.09 778.67 954.67 C 774.44 967.25 769.46 979.46 765.02 992.02 C 760.59 1004.59 756.20 1017.46 752.00 1030.00 C 747.80 1042.55 741.95 1054.46 738.02 1067.02 C 734.09 1079.59 728.68 1091.92 724.22 1104.22 C 719.77 1116.53 716.19 1130.19 711.02 1142.02 C 705.86 1153.86 705.94 1171.70 690.00 1172.00 C 674.06 1172.30 654.58 1171.13 639.00 1172.00 C 623.42 1172.87 605.63 1173.91 599.25 1159.75 C 592.86 1145.60 587.04 1140.22 580.23 1127.77 C 573.42 1115.32 568.46 1107.81 561.23 1095.77 C 554.00 1083.73 564.70 1071.49 570.92 1060.92 C 577.14 1050.35 584.30 1040.37 590.77 1029.77 C 597.24 1019.17 603.85 1009.19 610.75 998.75 C 617.66 988.32 624.12 978.45 630.92 967.92 C 637.71 957.39 644.17 947.66 651.25 937.25 C 658.33 926.83 663.93 916.97 671.30 906.30 C 678.68 895.64 684.71 882.72 686.00 869.00
C 685.17 862.05 682.89 851.35 684.00 842.00 C 685.11 832.65 683.04 821.37 684.00 812.00 C 684.96 802.63 681.65 791.69 686.00 784.00
C 682.98 777.89 669.45 783.42 662.00 782.00 C 654.55 780.58 655.49 795.70 656.00 803.00 C 656.51 810.30 655.66 822.03 656.00 830.00 C 656.34 837.97 655.60 849.06 656.00 857.00 C 656.40 864.94 654.10 872.88 651.68 879.68 C 649.26 886.47 646.38 891.79 642.23 897.23 C 638.08 902.67 633.33 906.08 629.25 911.25 C 625.17 916.42 621.24 920.91 616.75 925.75 C 612.26 930.59 608.68 935.81 604.23 940.23 C 599.79 944.66 596.21 950.07 591.75 954.75 C 587.28 959.42 583.72 964.65 579.23 969.23 C 574.74 973.81 571.03 979.05 566.70 983.70 C 562.36 988.34 557.76 992.92 554.08 998.08 C 550.39 1003.24 544.78 1006.57 541.25 1012.25 C 537.71 1017.92 532.20 1021.10 528.30 1026.30 C 524.40 1031.51 519.98 1035.52 515.77 1040.77 C 511.56 1046.02 506.94 1051.38 499.78 1048.22 C 492.61 1045.07 487.49 1043.27 480.78 1040.22 C 474.07 1037.18 467.61 1035.99 460.99 1033.01 C 454.37 1030.03 448.87 1028.02 441.93 1025.07 C 434.99 1022.13 430.05 1020.85 422.77 1017.23 C 415.49 1013.61 418.97 1003.87 419.98 996.98 C 420.98 990.08 422.19 980.49 423.00 973.00 C 423.81 965.51 424.83 956.56 425.98 948.98 C 427.12 941.39 428.31 932.62 429.00 925.00 C 429.69 917.38 435.74 913.79 441.68 910.68 C 447.62 907.56 452.59 903.64 458.25 900.25 C 463.90 896.85 469.54 893.60 475.08 890.08 C 480.61 886.55 486.24 883.43 491.75 879.75 C 497.27 876.07 503.04 873.13 508.68 869.68 C 514.31 866.23 519.19 862.38 525.23 859.23 C 531.27 856.08 535.39 850.60 537.00 844.00
C 537.66 819.90 535.83 793.95 536.00 769.00 C 536.17 744.05 537.15 717.17 537.00 693.00
C 533.84 678.50 519.69 674.87 508.30 666.70 C 496.92 658.53 485.85 654.28 473.97 646.03 C 462.09 637.78 451.85 633.30 438.97 625.03 C 426.10 616.75 427.87 599.26 425.02 583.98 C 422.18 568.69 423.71 551.89 419.02 534.98 C 414.34 518.06 434.51 515.53 447.22 509.22 C 459.94 502.91 473.63 501.83 486.69 493.69 C 499.76 485.56 512.67 487.95 520.75 501.25 C 528.84 514.54 538.76 519.45 546.92 531.08 C 555.08 542.71 564.31 549.49 572.75 560.25 C 581.20 571.00 589.66 579.11 598.25 589.75 C 606.84 600.39 615.78 608.31 624.75 619.25 C 633.71 630.20 641.77 637.10 648.92 650.08 C 656.08 663.05 656.62 681.43 656.00 698.00 C 655.38 714.57 656.47 736.91 656.00 754.00
C 665.33 754.00 674.67 754.00 684.00 754.00
C 683.43 739.46 684.76 724.49 684.00 710.00 C 683.24 695.51 684.55 679.97 686.00 667.00
C 684.78 653.95 678.74 641.85 671.75 631.25 C 664.76 620.65 659.07 610.55 651.75 600.25 C 644.43 589.96 638.74 579.35 631.70 569.30 C 624.66 559.26 618.37 548.58 611.70 538.30 C 605.02 528.03 597.75 518.28 591.23 507.77 C 584.71 497.26 577.96 486.88 571.75 476.25 C 565.53 465.63 554.23 454.36 560.78 441.78 C 567.32 429.20 573.49 422.77 579.92 409.92 C 586.34 397.07 592.61 392.24 598.92 377.92 C 605.23 363.60 619.84 364.53 636.00 365.00 C 652.16 365.47 670.51 366.15 687.00 365.00 C 703.49 363.85 706.69 379.11 710.77 392.23 C 714.85 405.35 719.68 417.20 723.98 430.03 C 728.27 442.85 733.38 454.58 737.77 467.23 C 742.16 479.88 746.32 492.52 750.98 505.03 C 755.63 517.53 759.82 530.10 764.32 542.68 C 768.82 555.26 773.46 567.46 777.92 580.08 C 782.39 592.69 786.67 605.07 791.31 617.69 C 795.94 630.32 800.86 643.52 803.00 657.00
C 808.17 670.82 805.77 688.14 806.00 704.00 C 806.23 719.86 806.66 737.89 805.00 753.00
C 810.53 758.53 826.91 750.93 834.00 754.00
C 833.47 735.73 834.71 715.03 834.00 697.00 C 833.29 678.97 836.16 657.50 832.01 640.99 C 827.86 624.48 823.67 610.98 820.01 594.99 C 816.35 579.01 811.64 564.70 808.02 548.98 C 804.41 533.25 800.04 518.30 796.22 502.78 C 792.41 487.26 788.33 471.47 785.02 455.98 C 781.72 440.48 775.28 425.86 772.67 410.33 C 770.06 394.79 761.79 378.13 763.00 362.00 C 764.21 345.87 756.16 320.47 772.00 313.00
C 772.06 312.99 772.00 312.00 772.00 312.00
C 772.13 312.19 785.65 310.34 791.00 311.00 C 796.35 311.66 807.66 310.74 814.00 311.00 C 820.34 311.26 829.36 311.01 836.00 311.00 C 842.64 310.99 852.65 311.26 859.00 311.00 C 865.35 310.74 875.81 311.74 881.00 311.00 C 886.19 310.26 900.87 312.20 901.00 312.00
M 1140.00 495.00 
C 1151.13 494.93 1160.45 501.80 1172.02 502.98 C 1183.60 504.15 1192.97 509.37 1205.07 510.93 C 1217.17 512.48 1223.75 517.48 1237.22 518.78 C 1250.70 520.08 1252.44 533.13 1251.00 546.00 C 1249.56 558.87 1251.48 573.19 1251.00 586.00 C 1250.52 598.81 1250.90 614.70 1251.00 627.00 C 1251.10 639.30 1251.83 652.35 1242.90 659.90 C 1233.97 667.45 1226.91 669.19 1217.77 674.77 C 1208.63 680.35 1201.16 684.87 1191.77 689.77 C 1182.38 694.67 1176.30 699.58 1166.30 704.30 C 1156.31 709.03 1151.10 714.21 1139.92 718.92 C 1128.74 723.63 1131.96 701.18 1132.00 690.00 C 1132.04 678.82 1131.91 662.28 1132.00 650.00 C 1132.09 637.72 1131.80 621.51 1132.00 609.00 C 1132.20 596.49 1131.55 581.07 1132.00 569.00 C 1132.45 556.93 1131.04 538.73 1132.00 528.00 C 1132.96 517.27 1126.67 495.08 1140.00 495.00
M 1131.00 682.00 
C 1131.00 694.67 1131.00 707.33 1131.00 720.00
C 1129.34 708.41 1129.33 693.52 1131.00 682.00
M 1251.00 709.00 
C 1279.50 727.30 1308.64 745.64 1338.00 763.00
C 1311.67 783.53 1279.04 799.90 1251.00 819.00
C 1233.04 807.39 1217.65 803.14 1199.77 790.23 C 1181.89 777.32 1155.19 775.73 1132.00 778.00
C 1132.00 768.67 1132.00 759.33 1132.00 750.00
C 1147.08 748.64 1169.14 753.04 1182.23 747.23 C 1195.32 741.42 1204.16 734.75 1216.25 728.25 C 1228.33 721.74 1239.09 715.87 1251.00 709.00
M 507.00 749.00 
C 507.35 749.23 508.00 749.00 508.00 749.00
C 510.51 751.43 509.11 760.29 509.00 764.00 C 508.89 767.71 510.61 777.47 508.00 780.00
C 507.74 780.25 507.00 780.00 507.00 780.00
C 500.84 784.11 494.66 787.29 488.30 791.30 C 481.94 795.31 476.64 799.04 469.77 802.77 C 462.90 806.50 459.50 811.07 451.31 814.31 C 443.11 817.54 431.80 815.61 422.00 816.00 C 412.20 816.39 402.64 815.77 392.00 816.00 C 381.36 816.23 373.90 815.77 362.00 816.00 C 350.10 816.23 361.25 807.64 365.00 802.00
C 368.11 797.33 372.05 793.95 376.00 790.00
C 382.57 782.32 385.52 778.01 392.75 770.75 C 399.99 763.50 390.22 754.88 384.75 749.25 C 379.28 743.62 372.86 735.20 368.23 729.77 C 363.60 724.34 349.17 713.74 361.00 713.00 C 372.83 712.26 386.36 713.65 398.00 713.00 C 409.64 712.35 422.94 714.02 434.00 713.00 C 445.06 711.98 454.46 714.79 462.22 720.78 C 469.99 726.76 476.40 729.45 484.22 734.78 C 492.05 740.10 499.33 743.87 507.00 749.00
M 1103.00 730.00 
C 1103.00 757.33 1103.00 784.67 1103.00 812.00
C 1101.34 785.74 1101.33 756.19 1103.00 730.00
M 1133.00 815.00 
C 1137.97 812.93 1146.43 822.70 1152.08 823.92 C 1157.72 825.15 1164.10 832.48 1170.25 834.75 C 1176.40 837.03 1182.90 842.18 1188.90 845.10 C 1194.90 848.02 1201.36 852.25 1207.23 855.77 C 1213.10 859.30 1220.03 862.05 1226.08 865.92 C 1232.12 869.80 1237.44 871.53 1243.23 876.77 C 1249.02 882.01 1251.22 889.42 1251.00 898.00 C 1250.78 906.58 1251.11 917.84 1251.00 927.00 C 1250.89 936.16 1251.08 946.61 1251.00 956.00 C 1250.92 965.39 1251.10 975.57 1251.00 985.00 C 1250.90 994.43 1251.60 1003.95 1250.00 1013.00
C 1237.42 1018.39 1223.05 1021.25 1209.78 1024.78 C 1196.50 1028.31 1179.73 1031.36 1166.93 1034.93 C 1154.12 1038.49 1131.53 1047.92 1132.00 1029.00 C 1132.47 1010.08 1131.78 994.24 1132.00 976.00 C 1132.22 957.76 1131.90 940.93 1132.00 923.00 C 1132.10 905.07 1131.95 887.80 1132.00 870.00 C 1132.05 852.20 1131.96 834.77 1132.00 817.00
C 1126.49 827.00 1134.05 843.80 1131.00 855.00
C 1129.34 849.29 1129.79 839.23 1130.00 833.00 C 1130.21 826.77 1127.93 816.43 1133.00 815.00 Z"/>
</g>
<g fill="None" fill-opacity="0.0" stroke="#4B3EA0" stroke-opacity="0.35" stroke-width="0.3"><path d="
M 930.00 253.00 
C 927.53 250.87 924.75 248.19 922.00 246.00
C 923.95 248.27 926.92 251.35 930.00 253.00 Z"/>
</g>
<g fill="None" fill-opacity="0.0" stroke="#493898" stroke-opacity="0.58" stroke-width="0.3"><path d="
M 772.00 312.00 
C 793.06 310.08 814.79 311.97 836.00 312.00 C 857.21 312.03 879.85 310.09 901.00 312.00
C 900.87 312.20 886.19 310.26 881.00 311.00 C 875.81 311.74 865.35 310.74 859.00 311.00 C 852.65 311.26 842.64 310.99 836.00 311.00 C 829.36 311.01 820.34 311.26 814.00 311.00 C 807.66 310.74 796.35 311.66 791.00 311.00 C 785.65 310.34 772.13 312.19 772.00 312.00 Z"/>
</g>
<g fill="None" fill-opacity="0.0" stroke="#7F007F" stroke-opacity="0.01" stroke-width="0.3"><path d="
M 772.00 313.00 
C 793.07 314.90 814.79 313.04 836.00 313.00 C 857.21 312.96 879.85 314.92 901.00 313.00
C 901.00 313.00 900.77 312.35 901.00 312.00
C 879.85 310.09 857.21 312.03 836.00 312.00 C 814.79 311.97 793.06 310.08 772.00 312.00
C 772.00 312.00 772.06 312.99 772.00 313.00 Z"/>
</g>
<g fill="None" fill-opacity="0.0" stroke="#000000" stroke-opacity="0.00" stroke-width="0.3"><path d="
M 805.00 753.00 
C 800.48 748.48 805.29 736.84 804.00 730.00 C 802.71 723.16 804.55 712.51 804.00 705.00 C 803.45 697.49 804.10 688.79 804.00 681.00 C 803.90 673.21 804.19 664.49 803.00 657.00
C 800.86 643.52 795.94 630.32 791.31 617.69 C 786.67 605.07 782.39 592.69 777.92 580.08 C 773.46 567.46 768.82 555.26 764.32 542.68 C 759.82 530.10 755.63 517.53 750.98 505.03 C 746.32 492.52 742.16 479.88 737.77 467.23 C 733.38 454.58 728.27 442.85 723.98 430.03 C 719.68 417.20 714.85 405.35 710.77 392.23 C 706.69 379.11 703.49 363.85 687.00 365.00 C 670.51 366.15 652.16 365.47 636.00 365.00 C 619.84 364.53 605.23 363.60 598.92 377.92 C 592.61 392.24 586.34 397.07 579.92 409.92 C 573.49 422.77 567.32 429.20 560.78 441.78 C 554.23 454.36 565.53 465.63 571.75 476.25 C 577.96 486.88 584.71 497.26 591.23 507.77 C 597.75 518.28 605.02 528.03 611.70 538.30 C 618.37 548.58 624.66 559.26 631.70 569.30 C 638.74 579.35 644.43 589.96 651.75 600.25 C 659.07 610.55 664.76 620.65 671.75 631.25 C 678.74 641.85 684.78 653.95 686.00 667.00
C 686.65 673.96 685.89 682.09 686.00 689.00 C 686.11 695.91 686.36 704.42 686.00 711.00 C 685.64 717.58 687.06 727.25 686.00 733.00 C 684.94 738.75 689.27 751.39 684.00 754.00
C 674.67 754.00 665.33 754.00 656.00 754.00
C 656.47 736.91 655.38 714.57 656.00 698.00 C 656.62 681.43 656.08 663.05 648.92 650.08 C 641.77 637.10 633.71 630.20 624.75 619.25 C 615.78 608.31 606.84 600.39 598.25 589.75 C 589.66 579.11 581.20 571.00 572.75 560.25 C 564.31 549.49 555.08 542.71 546.92 531.08 C 538.76 519.45 528.84 514.54 520.75 501.25 C 512.67 487.95 499.76 485.56 486.69 493.69 C 473.63 501.83 459.94 502.91 447.22 509.22 C 434.51 515.53 414.34 518.06 419.02 534.98 C 423.71 551.89 422.18 568.69 425.02 583.98 C 427.87 599.26 426.10 616.75 438.97 625.03 C 451.85 633.30 462.09 637.78 473.97 646.03 C 485.85 654.28 496.92 658.53 508.30 666.70 C 519.69 674.87 533.84 678.50 537.00 693.00
C 540.43 708.76 537.52 726.59 538.00 743.00 C 538.48 759.41 538.70 777.62 538.00 794.00 C 537.30 810.38 540.81 828.37 537.00 844.00
C 535.39 850.60 531.27 856.08 525.23 859.23 C 519.19 862.38 514.31 866.23 508.68 869.68 C 503.04 873.13 497.27 876.07 491.75 879.75 C 486.24 883.43 480.61 886.55 475.08 890.08 C 469.54 893.60 463.90 896.85 458.25 900.25 C 452.59 903.64 447.62 907.56 441.68 910.68 C 435.74 913.79 429.69 917.38 429.00 925.00 C 428.31 932.62 427.12 941.39 425.98 948.98 C 424.83 956.56 423.81 965.51 423.00 973.00 C 422.19 980.49 420.98 990.08 419.98 996.98 C 418.97 1003.87 415.49 1013.61 422.77 1017.23 C 430.05 1020.85 434.99 1022.13 441.93 1025.07 C 448.87 1028.02 454.37 1030.03 460.99 1033.01 C 467.61 1035.99 474.07 1037.18 480.78 1040.22 C 487.49 1043.27 492.61 1045.07 499.78 1048.22 C 506.94 1051.38 511.56 1046.02 515.77 1040.77 C 519.98 1035.52 524.40 1031.51 528.30 1026.30 C 532.20 1021.10 537.71 1017.92 541.25 1012.25 C 544.78 1006.57 550.39 1003.24 554.08 998.08 C 557.76 992.92 562.36 988.34 566.70 983.70 C 571.03 979.05 574.74 973.81 579.23 969.23 C 583.72 964.65 587.28 959.42 591.75 954.75 C 596.21 950.07 599.79 944.66 604.23 940.23 C 608.68 935.81 612.26 930.59 616.75 925.75 C 621.24 920.91 625.17 916.42 629.25 911.25 C 633.33 906.08 638.08 902.67 642.23 897.23 C 646.38 891.79 649.26 886.47 651.68 879.68 C 654.10 872.88 656.40 864.94 656.00 857.00 C 655.60 849.06 656.34 837.97 656.00 830.00 C 655.66 822.03 656.51 810.30 656.00 803.00 C 655.49 795.70 654.55 780.58 662.00 782.00 C 669.45 783.42 682.98 777.89 686.00 784.00
C 688.77 789.61 684.81 798.61 686.00 805.00 C 687.19 811.39 685.60 819.25 686.00 826.00 C 686.40 832.75 686.12 840.04 686.00 847.00 C 685.88 853.96 686.66 862.00 686.00 869.00
C 684.71 882.72 678.68 895.64 671.30 906.30 C 663.93 916.97 658.33 926.83 651.25 937.25 C 644.17 947.66 637.71 957.39 630.92 967.92 C 624.12 978.45 617.66 988.32 610.75 998.75 C 603.85 1009.19 597.24 1019.17 590.77 1029.77 C 584.30 1040.37 577.14 1050.35 570.92 1060.92 C 564.70 1071.49 554.00 1083.73 561.23 1095.77 C 568.46 1107.81 573.42 1115.32 580.23 1127.77 C 587.04 1140.22 592.86 1145.60 599.25 1159.75 C 605.63 1173.91 623.42 1172.87 639.00 1172.00 C 654.58 1171.13 674.06 1172.30 690.00 1172.00 C 705.94 1171.70 705.86 1153.86 711.02 1142.02 C 716.19 1130.19 719.77 1116.53 724.22 1104.22 C 728.68 1091.92 734.09 1079.59 738.02 1067.02 C 741.95 1054.46 747.80 1042.55 752.00 1030.00 C 756.20 1017.46 760.59 1004.59 765.02 992.02 C 769.46 979.46 774.44 967.25 778.67 954.67 C 782.90 942.09 787.99 929.60 792.07 917.07 C 796.16 904.55 802.45 891.19 804.00 878.00
C 804.90 870.33 803.40 861.64 804.00 854.00 C 804.60 846.36 803.28 836.26 804.00 829.00 C 804.72 821.74 802.65 811.19 804.00 805.00 C 805.35 798.81 800.32 784.90 806.00 782.00
C 811.71 779.08 823.29 782.45 829.99 782.01 C 836.69 781.57 833.57 795.96 834.00 802.00 C 834.43 808.04 833.79 818.95 834.00 826.00 C 834.21 833.05 833.88 842.58 834.00 850.00 C 834.12 857.42 833.90 866.59 834.00 874.00 C 834.10 881.41 833.94 889.28 831.93 895.93 C 829.92 902.57 827.84 908.25 826.98 914.98 C 826.11 921.70 823.31 927.31 821.78 933.78 C 820.25 940.25 818.97 946.64 816.98 952.98 C 814.98 959.32 813.37 965.77 812.33 972.33 C 811.29 978.89 808.38 984.50 806.93 990.93 C 805.47 997.35 804.89 1004.17 802.32 1010.32 C 799.76 1016.47 799.75 1023.59 797.93 1029.93 C 796.11 1036.26 793.82 1042.36 792.93 1048.93 C 792.03 1055.50 789.23 1061.34 787.78 1067.78 C 786.33 1074.21 785.16 1080.70 782.98 1086.98 C 780.79 1093.25 779.51 1099.78 778.32 1106.32 C 777.14 1112.86 774.41 1118.46 772.98 1124.98 C 771.54 1131.49 770.93 1138.01 768.32 1144.32 C 765.72 1150.63 765.28 1157.11 763.99 1163.99 C 762.70 1170.88 762.94 1179.65 763.00 1187.00 C 763.06 1194.35 762.95 1203.88 763.00 1211.00 C 763.06 1218.12 765.37 1223.81 773.00 1224.00 C 780.63 1224.19 789.19 1223.91 797.00 1224.00 C 804.81 1224.09 813.13 1223.94 821.00 1224.00 C 828.87 1224.06 837.16 1223.93 845.00 1224.00 C 852.84 1224.07 861.30 1223.89 869.00 1224.00 C 876.70 1224.11 885.65 1223.76 893.00 1224.00 C 900.35 1224.24 907.63 1224.19 909.67 1216.67 C 911.72 1209.15 910.97 1201.84 911.00 1194.00 C 911.03 1186.16 911.10 1177.71 911.00 1170.00 C 910.90 1162.29 911.29 1155.06 913.02 1148.02 C 914.76 1140.99 915.55 1134.21 916.00 1127.00 C 916.45 1119.80 918.06 1113.20 919.22 1106.22 C 920.38 1099.25 922.05 1092.33 922.07 1085.07 C 922.10 1077.81 925.25 1071.79 925.67 1064.67 C 926.09 1057.55 928.77 1051.16 929.00 1044.00 C 929.23 1036.84 930.54 1029.86 932.00 1023.00 C 933.46 1016.14 933.71 1008.92 935.02 1002.02 C 936.34 995.12 936.15 987.77 938.00 981.00 C 939.86 974.24 939.38 966.89 941.07 960.07 C 942.77 953.26 942.69 945.92 944.01 939.01 C 945.33 932.09 945.85 925.17 947.22 918.22 C 948.59 911.28 949.81 904.31 950.00 897.00 C 950.19 889.70 951.79 883.39 952.00 876.00
C 952.06 873.88 952.84 871.43 953.00 870.00
C 953.04 859.18 952.95 847.77 953.00 837.00 C 953.05 826.23 952.89 815.65 953.00 805.00 C 953.11 794.35 949.43 781.53 962.00 782.00 C 974.57 782.47 984.23 779.70 983.00 793.00 C 981.77 806.30 983.58 814.11 983.00 826.00 C 982.42 837.89 983.27 846.91 983.00 858.00 C 982.73 869.09 982.78 878.53 982.00 889.00 C 981.22 899.47 980.74 908.77 980.00 919.00 C 979.26 929.23 978.27 939.58 977.78 949.78 C 977.29 959.97 976.54 969.94 976.00 980.00 C 975.46 990.06 973.56 999.06 973.00 1009.00 C 972.44 1018.94 970.62 1028.09 970.00 1038.00 C 969.38 1047.91 969.32 1059.33 967.98 1068.98 C 966.63 1078.62 965.07 1087.48 964.00 1097.00 C 962.93 1106.52 962.54 1117.09 961.33 1126.33 C 960.12 1135.57 957.72 1145.87 958.01 1154.99 C 958.30 1164.12 963.71 1170.34 971.77 1174.23 C 979.83 1178.12 991.22 1176.90 1001.00 1177.00 C 1010.78 1177.10 1022.89 1177.05 1033.00 1177.00 C 1043.11 1176.95 1054.93 1177.22 1065.00 1177.00 C 1075.07 1176.78 1085.79 1178.81 1093.75 1172.75 C 1101.72 1166.69 1102.12 1159.03 1102.00 1149.00 C 1101.88 1138.97 1102.12 1127.35 1102.00 1117.00 C 1101.88 1106.65 1100.70 1096.66 1101.00 1086.00 C 1101.30 1075.34 1100.86 1063.72 1101.00 1053.00 C 1101.14 1042.28 1100.94 1031.71 1101.00 1021.00 C 1101.06 1010.29 1100.97 999.72 1101.00 989.00 C 1101.03 978.28 1100.99 967.77 1101.00 957.00 C 1101.01 946.23 1101.00 934.78 1101.00 924.00 C 1101.00 913.22 1101.00 902.73 1101.00 892.00 C 1101.00 881.27 1101.00 870.73 1101.00 860.00 C 1101.00 849.27 1101.00 838.78 1101.00 828.00 C 1101.00 817.22 1101.00 805.78 1101.00 795.00 C 1101.00 784.22 1101.00 773.73 1101.00 763.00 C 1101.00 752.27 1101.00 741.73 1101.00 731.00 C 1101.00 720.27 1101.00 709.78 1101.00 699.00 C 1101.00 688.22 1101.00 676.78 1101.00 666.00 C 1101.00 655.22 1101.01 644.73 1101.00 634.00 C 1100.99 623.27 1101.01 612.73 1101.00 602.00 C 1100.99 591.27 1101.03 580.76 1101.00 570.00 C 1100.97 559.24 1101.07 547.75 1101.00 537.00 C 1100.93 526.25 1101.15 515.67 1101.00 505.00 C 1100.85 494.33 1101.32 483.59 1101.00 473.00 C 1100.68 462.41 1102.06 452.37 1102.00 442.00 C 1101.94 431.63 1102.12 419.01 1102.00 409.00 C 1101.88 398.99 1102.57 386.50 1101.33 377.67 C 1100.09 368.84 1096.56 361.49 1087.00 360.00 C 1077.44 358.51 1065.17 360.70 1055.00 360.00 C 1044.83 359.30 1032.29 360.42 1022.00 360.00 C 1011.71 359.58 1000.03 360.41 990.00 360.00 C 979.97 359.59 971.97 359.89 964.75 366.75 C 957.54 373.61 957.96 381.66 959.00 391.00 C 960.04 400.34 962.18 410.40 963.00 420.00 C 963.82 429.60 963.70 439.92 965.67 449.33 C 967.64 458.74 967.23 468.46 969.00 478.00 C 970.77 487.54 969.42 498.28 971.02 507.98 C 972.62 517.67 973.18 528.07 974.01 537.99 C 974.84 547.91 976.41 556.98 977.00 567.00 C 977.59 577.02 976.79 587.99 978.07 597.93 C 979.36 607.86 979.63 617.23 980.67 627.33 C 981.71 637.43 981.23 648.67 982.07 658.93 C 982.92 669.18 983.23 679.39 983.00 690.00 C 982.77 700.61 983.12 711.36 983.00 722.00 C 982.88 732.64 983.09 743.36 983.00 754.00
C 973.00 754.00 963.00 754.00 953.00 754.00
C 953.23 739.25 952.70 723.67 953.00 709.00 C 953.30 694.33 952.87 679.08 952.00 665.00 C 951.13 650.92 950.40 637.34 948.00 624.00 C 945.60 610.66 944.23 597.41 942.93 584.07 C 941.63 570.74 937.16 559.18 936.00 546.00 C 934.84 532.82 933.10 520.06 930.78 507.22 C 928.46 494.38 927.85 480.68 924.98 468.02 C 922.11 455.37 922.15 441.38 919.00 429.00 C 915.85 416.63 916.78 401.48 913.33 389.67 C 909.88 377.86 911.56 358.09 911.00 347.00 C 910.44 335.91 915.39 312.78 901.00 313.00
C 879.85 314.92 857.21 312.96 836.00 313.00 C 814.79 313.04 793.07 314.90 772.00 313.00
C 756.16 320.47 764.21 345.87 763.00 362.00 C 761.79 378.13 770.06 394.79 772.67 410.33 C 775.28 425.86 781.72 440.48 785.02 455.98 C 788.33 471.47 792.41 487.26 796.22 502.78 C 800.04 518.30 804.41 533.25 808.02 548.98 C 811.64 564.70 816.35 579.01 820.01 594.99 C 823.67 610.98 827.86 624.48 832.01 640.99 C 836.16 657.50 833.29 678.97 834.00 697.00 C 834.71 715.03 833.47 735.73 834.00 754.00
C 826.91 750.93 810.53 758.53 805.00 753.00 Z"/>
</g>
<g fill="None" fill-opacity="0.0" stroke="#4A3A99" stroke-opacity="0.47" stroke-width="0.3"><path d="
M 496.00 415.00 
C 496.29 411.92 496.58 408.33 497.00 405.00 C 497.42 401.67 495.13 398.07 495.00 397.00
C 494.44 403.01 495.49 409.70 496.00 415.00 Z"/>
</g>
<g fill="None" fill-opacity="0.0" stroke="#483A9E" stroke-opacity="0.39" stroke-width="0.3"><path d="
M 1296.00 468.00 
C 1292.05 463.20 1288.04 459.14 1283.00 455.00
C 1285.75 458.67 1291.90 465.35 1296.00 468.00 Z"/>
</g>
<g fill="None" fill-opacity="0.0" stroke="#000000" stroke-opacity="0.00" stroke-width="0.3"><path d="
M 1140.00 495.00 
C 1126.67 495.08 1132.96 517.27 1132.00 528.00 C 1131.04 538.73 1132.45 556.93 1132.00 569.00 C 1131.55 581.07 1132.20 596.49 1132.00 609.00 C 1131.80 621.51 1132.09 637.72 1132.00 650.00 C 1131.91 662.28 1132.04 678.82 1132.00 690.00 C 1131.96 701.18 1128.74 723.63 1139.92 718.92 C 1151.10 714.21 1156.31 709.03 1166.30 704.30 C 1176.30 699.58 1182.38 694.67 1191.77 689.77 C 1201.16 684.87 1208.63 680.35 1217.77 674.77 C 1226.91 669.19 1233.97 667.45 1242.90 659.90 C 1251.83 652.35 1251.10 639.30 1251.00 627.00 C 1250.90 614.70 1250.52 598.81 1251.00 586.00 C 1251.48 573.19 1249.56 558.87 1251.00 546.00 C 1252.44 533.13 1250.70 520.08 1237.22 518.78 C 1223.75 517.48 1217.17 512.48 1205.07 510.93 C 1192.97 509.37 1183.60 504.15 1172.02 502.98 C 1160.45 501.80 1151.13 494.93 1140.00 495.00 Z"/>
</g>
<g fill="None" fill-opacity="0.0" stroke="#493A9A" stroke-opacity="0.55" stroke-width="0.3"><path d="
M 805.00 753.00 
C 806.66 737.89 806.23 719.86 806.00 704.00 C 805.77 688.14 808.17 670.82 803.00 657.00
C 804.19 664.49 803.90 673.21 804.00 681.00 C 804.10 688.79 803.45 697.49 804.00 705.00 C 804.55 712.51 802.71 723.16 804.00 730.00 C 805.29 736.84 800.48 748.48 805.00 753.00 Z"/>
</g>
<g fill="None" fill-opacity="0.0" stroke="#493898" stroke-opacity="0.61" stroke-width="0.3"><path d="
M 684.00 754.00 
C 689.27 751.39 684.94 738.75 686.00 733.00 C 687.06 727.25 685.64 717.58 686.00 711.00 C 686.36 704.42 686.11 695.91 686.00 689.00 C 685.89 682.09 686.65 673.96 686.00 667.00
C 684.55 679.97 683.24 695.51 684.00 710.00 C 684.76 724.49 683.43 739.46 684.00 754.00 Z"/>
</g>
<g fill="None" fill-opacity="0.0" stroke="#483898" stroke-opacity="0.77" stroke-width="0.3"><path d="
M 1131.00 682.00 
C 1129.33 693.52 1129.34 708.41 1131.00 720.00
C 1131.00 707.33 1131.00 694.67 1131.00 682.00 Z"/>
</g>
<g fill="None" fill-opacity="0.0" stroke="#473A9A" stroke-opacity="0.35" stroke-width="0.3"><path d="
M 537.00 844.00 
C 540.81 828.37 537.30 810.38 538.00 794.00 C 538.70 777.62 538.48 759.41 538.00 743.00 C 537.52 726.59 540.43 708.76 537.00 693.00
C 537.15 717.17 536.17 744.05 536.00 769.00 C 535.83 793.95 537.66 819.90 537.00 844.00 Z"/>
</g>
<g fill="None" fill-opacity="0.0" stroke="#000000" stroke-opacity="0.00" stroke-width="0.3"><path d="
M 1251.00 709.00 
C 1239.09 715.87 1228.33 721.74 1216.25 728.25 C 1204.16 734.75 1195.32 741.42 1182.23 747.23 C 1169.14 753.04 1147.08 748.64 1132.00 750.00
C 1132.00 759.33 1132.00 768.67 1132.00 778.00
C 1155.19 775.73 1181.89 777.32 1199.77 790.23 C 1217.65 803.14 1233.04 807.39 1251.00 819.00
C 1279.04 799.90 1311.67 783.53 1338.00 763.00
C 1308.64 745.64 1279.50 727.30 1251.00 709.00 Z"/>
</g>
<g fill="None" fill-opacity="0.0" stroke="#000000" stroke-opacity="0.00" stroke-width="0.3"><path d="
M 376.00 790.00 
C 372.42 794.19 368.62 798.13 365.00 802.00
C 361.25 807.64 350.10 816.23 362.00 816.00 C 373.90 815.77 381.36 816.23 392.00 816.00 C 402.64 815.77 412.20 816.39 422.00 816.00 C 431.80 815.61 443.11 817.54 451.31 814.31 C 459.50 811.07 462.90 806.50 469.77 802.77 C 476.64 799.04 481.94 795.31 488.30 791.30 C 494.66 787.29 500.84 784.11 507.00 780.00
C 506.11 770.23 506.12 758.77 507.00 749.00
C 499.33 743.87 492.05 740.10 484.22 734.78 C 476.40 729.45 469.99 726.76 462.22 720.78 C 454.46 714.79 445.06 711.98 434.00 713.00 C 422.94 714.02 409.64 712.35 398.00 713.00 C 386.36 713.65 372.83 712.26 361.00 713.00 C 349.17 713.74 363.60 724.34 368.23 729.77 C 372.86 735.20 379.28 743.62 384.75 749.25 C 390.22 754.88 399.99 763.50 392.75 770.75 C 385.52 778.01 382.57 782.32 376.00 790.00 Z"/>
</g>
<g fill="None" fill-opacity="0.0" stroke="#483898" stroke-opacity="0.68" stroke-width="0.3"><path d="
M 1103.00 730.00 
C 1101.33 756.19 1101.34 785.74 1103.00 812.00
C 1103.00 784.67 1103.00 757.33 1103.00 730.00 Z"/>
</g>
<g fill="None" fill-opacity="0.0" stroke="#483A99" stroke-opacity="0.14" stroke-width="0.3"><path d="
M 507.00 780.00 
C 507.00 780.00 507.74 780.25 508.00 780.00
C 508.88 770.23 508.88 758.77 508.00 749.00
C 508.00 749.00 507.35 749.23 507.00 749.00
C 506.12 758.77 506.11 770.23 507.00 780.00 Z"/>
</g>
<g fill="None" fill-opacity="0.0" stroke="#483998" stroke-opacity="0.71" stroke-width="0.3"><path d="
M 508.00 780.00 
C 510.61 777.47 508.89 767.71 509.00 764.00 C 509.11 760.29 510.51 751.43 508.00 749.00
C 508.88 758.77 508.88 770.23 508.00 780.00 Z"/>
</g>
<g fill="None" fill-opacity="0.0" stroke="#493A9A" stroke-opacity="0.55" stroke-width="0.3"><path d="
M 804.00 878.00 
C 805.65 873.47 806.50 868.54 806.00 863.00 C 805.50 857.46 806.16 851.44 806.00 846.00 C 805.84 840.56 805.89 835.25 806.00 830.00 C 806.11 824.75 805.59 817.94 806.00 813.00 C 806.41 808.06 805.02 800.14 806.00 796.00 C 806.98 791.86 803.45 783.75 806.00 782.00
C 800.32 784.90 805.35 798.81 804.00 805.00 C 802.65 811.19 804.72 821.74 804.00 829.00 C 803.28 836.26 804.60 846.36 804.00 854.00 C 803.40 861.64 804.90 870.33 804.00 878.00 Z"/>
</g>
<g fill="None" fill-opacity="0.0" stroke="#493899" stroke-opacity="0.62" stroke-width="0.3"><path d="
M 686.00 869.00 
C 686.66 862.00 685.88 853.96 686.00 847.00 C 686.12 840.04 686.40 832.75 686.00 826.00 C 685.60 819.25 687.19 811.39 686.00 805.00 C 684.81 798.61 688.77 789.61 686.00 784.00
C 681.65 791.69 684.96 802.63 684.00 812.00 C 683.04 821.37 685.11 832.65 684.00 842.00 C 682.89 851.35 685.17 862.05 686.00 869.00 Z"/>
</g>
<g fill="None" fill-opacity="0.0" stroke="#3D389B" stroke-opacity="0.07" stroke-width="0.3"><path d="
M 365.00 802.00 
C 368.62 798.13 372.42 794.19 376.00 790.00
C 372.05 793.95 368.11 797.33 365.00 802.00 Z"/>
</g>
<g fill="None" fill-opacity="0.0" stroke="#483898" stroke-opacity="0.75" stroke-width="0.3"><path d="
M 1132.00 817.00 
C 1132.09 816.83 1132.97 815.01 1133.00 815.00
C 1127.93 816.43 1130.21 826.77 1130.00 833.00 C 1129.79 839.23 1129.34 849.29 1131.00 855.00
C 1134.05 843.80 1126.49 827.00 1132.00 817.00 Z"/>
</g>
<g fill="None" fill-opacity="0.0" stroke="#000000" stroke-opacity="0.00" stroke-width="0.3"><path d="
M 1132.00 817.00 
C 1131.96 834.77 1132.05 852.20 1132.00 870.00 C 1131.95 887.80 1132.10 905.07 1132.00 923.00 C 1131.90 940.93 1132.22 957.76 1132.00 976.00 C 1131.78 994.24 1132.47 1010.08 1132.00 1029.00 C 1131.53 1047.92 1154.12 1038.49 1166.93 1034.93 C 1179.73 1031.36 1196.50 1028.31 1209.78 1024.78 C 1223.05 1021.25 1237.42 1018.39 1250.00 1013.00
C 1251.60 1003.95 1250.90 994.43 1251.00 985.00 C 1251.10 975.57 1250.92 965.39 1251.00 956.00 C 1251.08 946.61 1250.89 936.16 1251.00 927.00 C 1251.11 917.84 1250.78 906.58 1251.00 898.00 C 1251.22 889.42 1249.02 882.01 1243.23 876.77 C 1237.44 871.53 1232.12 869.80 1226.08 865.92 C 1220.03 862.05 1213.10 859.30 1207.23 855.77 C 1201.36 852.25 1194.90 848.02 1188.90 845.10 C 1182.90 842.18 1176.40 837.03 1170.25 834.75 C 1164.10 832.48 1157.72 825.15 1152.08 823.92 C 1146.43 822.70 1137.97 812.93 1133.00 815.00
C 1132.97 815.01 1132.09 816.83 1132.00 817.00 Z"/>
</g>
<g fill="None" fill-opacity="0.0" stroke="#4E3797" stroke-opacity="0.46" stroke-width="0.3"><path d="
M 952.00 876.00 
C 954.11 876.40 952.02 879.53 954.00 880.00
C 954.85 876.59 953.29 873.05 953.00 870.00
C 952.84 871.43 952.06 873.88 952.00 876.00 Z"/>
</g>
<g fill="None" fill-opacity="0.0" stroke="#4A3999" stroke-opacity="0.48" stroke-width="0.3"><path d="
M 496.00 1135.00 
C 496.38 1128.49 496.65 1120.95 496.00 1114.00
C 495.36 1120.61 495.06 1127.95 496.00 1135.00 Z"/>
</g>
<g fill="#000000" fill-opacity="0.00" stroke="None">
<path d="
M 0.00 1529.00 
L 1674.00 1529.00
L 1674.00 0.00
L 0.00 0.00
L 0.00 1529.00
M 922.00 246.00 
C 924.75 248.19 927.53 250.87 930.00 253.00
C 944.34 265.37 953.96 282.21 961.00 299.00
C 1003.37 265.67 1068.70 262.93 1114.25 290.75 C 1159.79 318.57 1185.00 370.96 1177.00 424.00
C 1215.40 419.36 1254.66 429.78 1283.00 455.00
C 1288.04 459.14 1292.05 463.20 1296.00 468.00
C 1316.03 492.39 1329.28 518.58 1330.00 551.00 C 1330.72 583.42 1322.29 613.88 1303.00 640.00
C 1352.66 660.28 1385.76 710.08 1386.00 764.00 C 1386.24 817.92 1352.80 868.88 1303.00 889.00
C 1335.99 931.95 1339.20 995.14 1311.23 1041.23 C 1283.26 1087.32 1230.69 1112.14 1177.00 1105.00
C 1184.84 1157.96 1160.18 1209.73 1114.78 1237.78 C 1069.38 1265.82 1003.49 1263.69 961.00 1230.00
C 941.96 1280.54 890.30 1312.92 837.00 1313.00 C 783.70 1313.08 731.38 1280.41 713.00 1230.00
C 674.68 1260.69 612.98 1265.26 569.97 1244.03 C 526.97 1222.79 499.92 1182.55 496.00 1135.00
C 495.06 1127.95 495.36 1120.61 496.00 1114.00
C 495.72 1111.03 496.21 1107.98 496.00 1105.00
C 443.14 1111.76 390.40 1087.49 362.23 1041.77 C 334.06 996.05 337.95 931.38 371.00 889.00
C 321.87 868.98 287.21 818.51 287.00 765.00 C 286.79 711.49 321.63 659.69 371.00 640.00
C 338.08 597.55 334.09 533.86 361.97 487.97 C 389.85 442.09 442.81 416.90 496.00 424.00
C 496.00 421.00 496.00 418.00 496.00 415.00
C 495.49 409.70 494.44 403.01 495.00 397.00
C 499.50 349.03 525.18 307.51 568.68 285.68 C 612.18 263.85 674.20 267.76 713.00 299.00
C 741.68 216.80 857.77 189.14 922.00 246.00 Z"/>
</g>
<g fill="#483898" fill-opacity="0.97" stroke="None">
<path d="
M 495.00 397.00 
C 495.13 398.07 497.42 401.67 497.00 405.00 C 496.58 408.33 496.29 411.92 496.00 415.00
C 496.00 418.00 496.00 421.00 496.00 424.00
C 442.81 416.90 389.85 442.09 361.97 487.97 C 334.09 533.86 338.08 597.55 371.00 640.00
C 321.63 659.69 286.79 711.49 287.00 765.00 C 287.21 818.51 321.87 868.98 371.00 889.00
C 337.95 931.38 334.06 996.05 362.23 1041.77 C 390.40 1087.49 443.14 1111.76 496.00 1105.00
C 496.21 1107.98 495.72 1111.03 496.00 1114.00
C 496.65 1120.95 496.38 1128.49 496.00 1135.00
C 499.92 1182.55 526.97 1222.79 569.97 1244.03 C 612.98 1265.26 674.68 1260.69 713.00 1230.00
C 731.38 1280.41 783.70 1313.08 837.00 1313.00 C 890.30 1312.92 941.96 1280.54 961.00 1230.00
C 1003.49 1263.69 1069.38 1265.82 1114.78 1237.78 C 1160.18 1209.73 1184.84 1157.96 1177.00 1105.00
C 1230.69 1112.14 1283.26 1087.32 1311.23 1041.23 C 1339.20 995.14 1335.99 931.95 1303.00 889.00
C 1352.80 868.88 1386.24 817.92 1386.00 764.00 C 1385.76 710.08 1352.66 660.28 1303.00 640.00
C 1322.29 613.88 1330.72 583.42 1330.00 551.00 C 1329.28 518.58 1316.03 492.39 1296.00 468.00
C 1291.90 465.35 1285.75 458.67 1283.00 455.00
C 1254.66 429.78 1215.40 419.36 1177.00 424.00
C 1185.00 370.96 1159.79 318.57 1114.25 290.75 C 1068.70 262.93 1003.37 265.67 961.00 299.00
C 953.96 282.21 944.34 265.37 930.00 253.00
C 926.92 251.35 923.95 248.27 922.00 246.00
C 857.77 189.14 741.68 216.80 713.00 299.00
C 674.20 267.76 612.18 263.85 568.68 285.68 C 525.18 307.51 499.50 349.03 495.00 397.00
M 901.00 312.00 
C 900.77 312.35 901.00 313.00 901.00 313.00
C 915.39 312.78 910.44 335.91 911.00 347.00 C 911.56 358.09 909.88 377.86 913.33 389.67 C 916.78 401.48 915.85 416.63 919.00 429.00 C 922.15 441.38 922.11 455.37 924.98 468.02 C 927.85 480.68 928.46 494.38 930.78 507.22 C 933.10 520.06 934.84 532.82 936.00 546.00 C 937.16 559.18 941.63 570.74 942.93 584.07 C 944.23 597.41 945.60 610.66 948.00 624.00 C 950.40 637.34 951.13 650.92 952.00 665.00 C 952.87 679.08 953.30 694.33 953.00 709.00 C 952.70 723.67 953.23 739.25 953.00 754.00
C 963.00 754.00 973.00 754.00 983.00 754.00
C 983.09 743.36 982.88 732.64 983.00 722.00 C 983.12 711.36 982.77 700.61 983.00 690.00 C 983.23 679.39 982.92 669.18 982.07 658.93 C 981.23 648.67 981.71 637.43 980.67 627.33 C 979.63 617.23 979.36 607.86 978.07 597.93 C 976.79 587.99 977.59 577.02 977.00 567.00 C 976.41 556.98 974.84 547.91 974.01 537.99 C 973.18 528.07 972.62 517.67 971.02 507.98 C 969.42 498.28 970.77 487.54 969.00 478.00 C 967.23 468.46 967.64 458.74 965.67 449.33 C 963.70 439.92 963.82 429.60 963.00 420.00 C 962.18 410.40 960.04 400.34 959.00 391.00 C 957.96 381.66 957.54 373.61 964.75 366.75 C 971.97 359.89 979.97 359.59 990.00 360.00 C 1000.03 360.41 1011.71 359.58 1022.00 360.00 C 1032.29 360.42 1044.83 359.30 1055.00 360.00 C 1065.17 360.70 1077.44 358.51 1087.00 360.00 C 1096.56 361.49 1100.09 368.84 1101.33 377.67 C 1102.57 386.50 1101.88 398.99 1102.00 409.00 C 1102.12 419.01 1101.94 431.63 1102.00 442.00 C 1102.06 452.37 1100.68 462.41 1101.00 473.00 C 1101.32 483.59 1100.85 494.33 1101.00 505.00 C 1101.15 515.67 1100.93 526.25 1101.00 537.00 C 1101.07 547.75 1100.97 559.24 1101.00 570.00 C 1101.03 580.76 1100.99 591.27 1101.00 602.00 C 1101.01 612.73 1100.99 623.27 1101.00 634.00 C 1101.01 644.73 1101.00 655.22 1101.00 666.00 C 1101.00 676.78 1101.00 688.22 1101.00 699.00 C 1101.00 709.78 1101.00 720.27 1101.00 731.00 C 1101.00 741.73 1101.00 752.27 1101.00 763.00 C 1101.00 773.73 1101.00 784.22 1101.00 795.00 C 1101.00 805.78 1101.00 817.22 1101.00 828.00 C 1101.00 838.78 1101.00 849.27 1101.00 860.00 C 1101.00 870.73 1101.00 881.27 1101.00 892.00 C 1101.00 902.73 1101.00 913.22 1101.00 924.00 C 1101.00 934.78 1101.01 946.23 1101.00 957.00 C 1100.99 967.77 1101.03 978.28 1101.00 989.00 C 1100.97 999.72 1101.06 1010.29 1101.00 1021.00 C 1100.94 1031.71 1101.14 1042.28 1101.00 1053.00 C 1100.86 1063.72 1101.30 1075.34 1101.00 1086.00 C 1100.70 1096.66 1101.88 1106.65 1102.00 1117.00 C 1102.12 1127.35 1101.88 1138.97 1102.00 1149.00 C 1102.12 1159.03 1101.72 1166.69 1093.75 1172.75 C 1085.79 1178.81 1075.07 1176.78 1065.00 1177.00 C 1054.93 1177.22 1043.11 1176.95 1033.00 1177.00 C 1022.89 1177.05 1010.78 1177.10 1001.00 1177.00 C 991.22 1176.90 979.83 1178.12 971.77 1174.23 C 963.71 1170.34 958.30 1164.12 958.01 1154.99 C 957.72 1145.87 960.12 1135.57 961.33 1126.33 C 962.54 1117.09 962.93 1106.52 964.00 1097.00 C 965.07 1087.48 966.63 1078.62 967.98 1068.98 C 969.32 1059.33 969.38 1047.91 970.00 1038.00 C 970.62 1028.09 972.44 1018.94 973.00 1009.00 C 973.56 999.06 975.46 990.06 976.00 980.00 C 976.54 969.94 977.29 959.97 977.78 949.78 C 978.27 939.58 979.26 929.23 980.00 919.00 C 980.74 908.77 981.22 899.47 982.00 889.00 C 982.78 878.53 982.73 869.09 983.00 858.00 C 983.27 846.91 982.42 837.89 983.00 826.00 C 983.58 814.11 981.77 806.30 983.00 793.00 C 984.23 779.70 974.57 782.47 962.00 782.00 C 949.43 781.53 953.11 794.35 953.00 805.00 C 952.89 815.65 953.05 826.23 953.00 837.00 C 952.95 847.77 953.04 859.18 953.00 870.00
C 953.29 873.05 954.85 876.59 954.00 880.00
C 952.02 879.53 954.11 876.40 952.00 876.00
C 951.79 883.39 950.19 889.70 950.00 897.00 C 949.81 904.31 948.59 911.28 947.22 918.22 C 945.85 925.17 945.33 932.09 944.01 939.01 C 942.69 945.92 942.77 953.26 941.07 960.07 C 939.38 966.89 939.86 974.24 938.00 981.00 C 936.15 987.77 936.34 995.12 935.02 1002.02 C 933.71 1008.92 933.46 1016.14 932.00 1023.00 C 930.54 1029.86 929.23 1036.84 929.00 1044.00 C 928.77 1051.16 926.09 1057.55 925.67 1064.67 C 925.25 1071.79 922.10 1077.81 922.07 1085.07 C 922.05 1092.33 920.38 1099.25 919.22 1106.22 C 918.06 1113.20 916.45 1119.80 916.00 1127.00 C 915.55 1134.21 914.76 1140.99 913.02 1148.02 C 911.29 1155.06 910.90 1162.29 911.00 1170.00 C 911.10 1177.71 911.03 1186.16 911.00 1194.00 C 910.97 1201.84 911.72 1209.15 909.67 1216.67 C 907.63 1224.19 900.35 1224.24 893.00 1224.00 C 885.65 1223.76 876.70 1224.11 869.00 1224.00 C 861.30 1223.89 852.84 1224.07 845.00 1224.00 C 837.16 1223.93 828.87 1224.06 821.00 1224.00 C 813.13 1223.94 804.81 1224.09 797.00 1224.00 C 789.19 1223.91 780.63 1224.19 773.00 1224.00 C 765.37 1223.81 763.06 1218.12 763.00 1211.00 C 762.95 1203.88 763.06 1194.35 763.00 1187.00 C 762.94 1179.65 762.70 1170.88 763.99 1163.99 C 765.28 1157.11 765.72 1150.63 768.32 1144.32 C 770.93 1138.01 771.54 1131.49 772.98 1124.98 C 774.41 1118.46 777.14 1112.86 778.32 1106.32 C 779.51 1099.78 780.79 1093.25 782.98 1086.98 C 785.16 1080.70 786.33 1074.21 787.78 1067.78 C 789.23 1061.34 792.03 1055.50 792.93 1048.93 C 793.82 1042.36 796.11 1036.26 797.93 1029.93 C 799.75 1023.59 799.76 1016.47 802.32 1010.32 C 804.89 1004.17 805.47 997.35 806.93 990.93 C 808.38 984.50 811.29 978.89 812.33 972.33 C 813.37 965.77 814.98 959.32 816.98 952.98 C 818.97 946.64 820.25 940.25 821.78 933.78 C 823.31 927.31 826.11 921.70 826.98 914.98 C 827.84 908.25 829.92 902.57 831.93 895.93 C 833.94 889.28 834.10 881.41 834.00 874.00 C 833.90 866.59 834.12 857.42 834.00 850.00 C 833.88 842.58 834.21 833.05 834.00 826.00 C 833.79 818.95 834.43 808.04 834.00 802.00 C 833.57 795.96 836.69 781.57 829.99 782.01 C 823.29 782.45 811.71 779.08 806.00 782.00
C 803.45 783.75 806.98 791.86 806.00 796.00 C 805.02 800.14 806.41 808.06 806.00 813.00 C 805.59 817.94 806.11 824.75 806.00 830.00 C 805.89 835.25 805.84 840.56 806.00 846.00 C 806.16 851.44 805.50 857.46 806.00 863.00 C 806.50 868.54 805.65 873.47 804.00 878.00
C 802.45 891.19 796.16 904.55 792.07 917.07 C 787.99 929.60 782.90 942.09 778.67 954.67 C 774.44 967.25 769.46 979.46 765.02 992.02 C 760.59 1004.59 756.20 1017.46 752.00 1030.00 C 747.80 1042.55 741.95 1054.46 738.02 1067.02 C 734.09 1079.59 728.68 1091.92 724.22 1104.22 C 719.77 1116.53 716.19 1130.19 711.02 1142.02 C 705.86 1153.86 705.94 1171.70 690.00 1172.00 C 674.06 1172.30 654.58 1171.13 639.00 1172.00 C 623.42 1172.87 605.63 1173.91 599.25 1159.75 C 592.86 1145.60 587.04 1140.22 580.23 1127.77 C 573.42 1115.32 568.46 1107.81 561.23 1095.77 C 554.00 1083.73 564.70 1071.49 570.92 1060.92 C 577.14 1050.35 584.30 1040.37 590.77 1029.77 C 597.24 1019.17 603.85 1009.19 610.75 998.75 C 617.66 988.32 624.12 978.45 630.92 967.92 C 637.71 957.39 644.17 947.66 651.25 937.25 C 658.33 926.83 663.93 916.97 671.30 906.30 C 678.68 895.64 684.71 882.72 686.00 869.00
C 685.17 862.05 682.89 851.35 684.00 842.00 C 685.11 832.65 683.04 821.37 684.00 812.00 C 684.96 802.63 681.65 791.69 686.00 784.00
C 682.98 777.89 669.45 783.42 662.00 782.00 C 654.55 780.58 655.49 795.70 656.00 803.00 C 656.51 810.30 655.66 822.03 656.00 830.00 C 656.34 837.97 655.60 849.06 656.00 857.00 C 656.40 864.94 654.10 872.88 651.68 879.68 C 649.26 886.47 646.38 891.79 642.23 897.23 C 638.08 902.67 633.33 906.08 629.25 911.25 C 625.17 916.42 621.24 920.91 616.75 925.75 C 612.26 930.59 608.68 935.81 604.23 940.23 C 599.79 944.66 596.21 950.07 591.75 954.75 C 587.28 959.42 583.72 964.65 579.23 969.23 C 574.74 973.81 571.03 979.05 566.70 983.70 C 562.36 988.34 557.76 992.92 554.08 998.08 C 550.39 1003.24 544.78 1006.57 541.25 1012.25 C 537.71 1017.92 532.20 1021.10 528.30 1026.30 C 524.40 1031.51 519.98 1035.52 515.77 1040.77 C 511.56 1046.02 506.94 1051.38 499.78 1048.22 C 492.61 1045.07 487.49 1043.27 480.78 1040.22 C 474.07 1037.18 467.61 1035.99 460.99 1033.01 C 454.37 1030.03 448.87 1028.02 441.93 1025.07 C 434.99 1022.13 430.05 1020.85 422.77 1017.23 C 415.49 1013.61 418.97 1003.87 419.98 996.98 C 420.98 990.08 422.19 980.49 423.00 973.00 C 423.81 965.51 424.83 956.56 425.98 948.98 C 427.12 941.39 428.31 932.62 429.00 925.00 C 429.69 917.38 435.74 913.79 441.68 910.68 C 447.62 907.56 452.59 903.64 458.25 900.25 C 463.90 896.85 469.54 893.60 475.08 890.08 C 480.61 886.55 486.24 883.43 491.75 879.75 C 497.27 876.07 503.04 873.13 508.68 869.68 C 514.31 866.23 519.19 862.38 525.23 859.23 C 531.27 856.08 535.39 850.60 537.00 844.00
C 537.66 819.90 535.83 793.95 536.00 769.00 C 536.17 744.05 537.15 717.17 537.00 693.00
C 533.84 678.50 519.69 674.87 508.30 666.70 C 496.92 658.53 485.85 654.28 473.97 646.03 C 462.09 637.78 451.85 633.30 438.97 625.03 C 426.10 616.75 427.87 599.26 425.02 583.98 C 422.18 568.69 423.71 551.89 419.02 534.98 C 414.34 518.06 434.51 515.53 447.22 509.22 C 459.94 502.91 473.63 501.83 486.69 493.69 C 499.76 485.56 512.67 487.95 520.75 501.25 C 528.84 514.54 538.76 519.45 546.92 531.08 C 555.08 542.71 564.31 549.49 572.75 560.25 C 581.20 571.00 589.66 579.11 598.25 589.75 C 606.84 600.39 615.78 608.31 624.75 619.25 C 633.71 630.20 641.77 637.10 648.92 650.08 C 656.08 663.05 656.62 681.43 656.00 698.00 C 655.38 714.57 656.47 736.91 656.00 754.00
C 665.33 754.00 674.67 754.00 684.00 754.00
C 683.43 739.46 684.76 724.49 684.00 710.00 C 683.24 695.51 684.55 679.97 686.00 667.00
C 684.78 653.95 678.74 641.85 671.75 631.25 C 664.76 620.65 659.07 610.55 651.75 600.25 C 644.43 589.96 638.74 579.35 631.70 569.30 C 624.66 559.26 618.37 548.58 611.70 538.30 C 605.02 528.03 597.75 518.28 591.23 507.77 C 584.71 497.26 577.96 486.88 571.75 476.25 C 565.53 465.63 554.23 454.36 560.78 441.78 C 567.32 429.20 573.49 422.77 579.92 409.92 C 586.34 397.07 592.61 392.24 598.92 377.92 C 605.23 363.60 619.84 364.53 636.00 365.00 C 652.16 365.47 670.51 366.15 687.00 365.00 C 703.49 363.85 706.69 379.11 710.77 392.23 C 714.85 405.35 719.68 417.20 723.98 430.03 C 728.27 442.85 733.38 454.58 737.77 467.23 C 742.16 479.88 746.32 492.52 750.98 505.03 C 755.63 517.53 759.82 530.10 764.32 542.68 C 768.82 555.26 773.46 567.46 777.92 580.08 C 782.39 592.69 786.67 605.07 791.31 617.69 C 795.94 630.32 800.86 643.52 803.00 657.00
C 808.17 670.82 805.77 688.14 806.00 704.00 C 806.23 719.86 806.66 737.89 805.00 753.00
C 810.53 758.53 826.91 750.93 834.00 754.00
C 833.47 735.73 834.71 715.03 834.00 697.00 C 833.29 678.97 836.16 657.50 832.01 640.99 C 827.86 624.48 823.67 610.98 820.01 594.99 C 816.35 579.01 811.64 564.70 808.02 548.98 C 804.41 533.25 800.04 518.30 796.22 502.78 C 792.41 487.26 788.33 471.47 785.02 455.98 C 781.72 440.48 775.28 425.86 772.67 410.33 C 770.06 394.79 761.79 378.13 763.00 362.00 C 764.21 345.87 756.16 320.47 772.00 313.00
C 772.06 312.99 772.00 312.00 772.00 312.00
C 772.13 312.19 785.65 310.34 791.00 311.00 C 796.35 311.66 807.66 310.74 814.00 311.00 C 820.34 311.26 829.36 311.01 836.00 311.00 C 842.64 310.99 852.65 311.26 859.00 311.00 C 865.35 310.74 875.81 311.74 881.00 311.00 C 886.19 310.26 900.87 312.20 901.00 312.00
M 1140.00 495.00 
C 1151.13 494.93 1160.45 501.80 1172.02 502.98 C 1183.60 504.15 1192.97 509.37 1205.07 510.93 C 1217.17 512.48 1223.75 517.48 1237.22 518.78 C 1250.70 520.08 1252.44 533.13 1251.00 546.00 C 1249.56 558.87 1251.48 573.19 1251.00 586.00 C 1250.52 598.81 1250.90 614.70 1251.00 627.00 C 1251.10 639.30 1251.83 652.35 1242.90 659.90 C 1233.97 667.45 1226.91 669.19 1217.77 674.77 C 1208.63 680.35 1201.16 684.87 1191.77 689.77 C 1182.38 694.67 1176.30 699.58 1166.30 704.30 C 1156.31 709.03 1151.10 714.21 1139.92 718.92 C 1128.74 723.63 1131.96 701.18 1132.00 690.00 C 1132.04 678.82 1131.91 662.28 1132.00 650.00 C 1132.09 637.72 1131.80 621.51 1132.00 609.00 C 1132.20 596.49 1131.55 581.07 1132.00 569.00 C 1132.45 556.93 1131.04 538.73 1132.00 528.00 C 1132.96 517.27 1126.67 495.08 1140.00 495.00
M 1131.00 682.00 
C 1131.00 694.67 1131.00 707.33 1131.00 720.00
C 1129.34 708.41 1129.33 693.52 1131.00 682.00
M 1251.00 709.00 
C 1279.50 727.30 1308.64 745.64 1338.00 763.00
C 1311.67 783.53 1279.04 799.90 1251.00 819.00
C 1233.04 807.39 1217.65 803.14 1199.77 790.23 C 1181.89 777.32 1155.19 775.73 1132.00 778.00
C 1132.00 768.67 1132.00 759.33 1132.00 750.00
C 1147.08 748.64 1169.14 753.04 1182.23 747.23 C 1195.32 741.42 1204.16 734.75 1216.25 728.25 C 1228.33 721.74 1239.09 715.87 1251.00 709.00
M 507.00 749.00 
C 507.35 749.23 508.00 749.00 508.00 749.00
C 510.51 751.43 509.11 760.29 509.00 764.00 C 508.89 767.71 510.61 777.47 508.00 780.00
C 507.74 780.25 507.00 780.00 507.00 780.00
C 500.84 784.11 494.66 787.29 488.30 791.30 C 481.94 795.31 476.64 799.04 469.77 802.77 C 462.90 806.50 459.50 811.07 451.31 814.31 C 443.11 817.54 431.80 815.61 422.00 816.00 C 412.20 816.39 402.64 815.77 392.00 816.00 C 381.36 816.23 373.90 815.77 362.00 816.00 C 350.10 816.23 361.25 807.64 365.00 802.00
C 368.11 797.33 372.05 793.95 376.00 790.00
C 382.57 782.32 385.52 778.01 392.75 770.75 C 399.99 763.50 390.22 754.88 384.75 749.25 C 379.28 743.62 372.86 735.20 368.23 729.77 C 363.60 724.34 349.17 713.74 361.00 713.00 C 372.83 712.26 386.36 713.65 398.00 713.00 C 409.64 712.35 422.94 714.02 434.00 713.00 C 445.06 711.98 454.46 714.79 462.22 720.78 C 469.99 726.76 476.40 729.45 484.22 734.78 C 492.05 740.10 499.33 743.87 507.00 749.00
M 1103.00 730.00 
C 1103.00 757.33 1103.00 784.67 1103.00 812.00
C 1101.34 785.74 1101.33 756.19 1103.00 730.00
M 1133.00 815.00 
C 1137.97 812.93 1146.43 822.70 1152.08 823.92 C 1157.72 825.15 1164.10 832.48 1170.25 834.75 C 1176.40 837.03 1182.90 842.18 1188.90 845.10 C 1194.90 848.02 1201.36 852.25 1207.23 855.77 C 1213.10 859.30 1220.03 862.05 1226.08 865.92 C 1232.12 869.80 1237.44 871.53 1243.23 876.77 C 1249.02 882.01 1251.22 889.42 1251.00 898.00 C 1250.78 906.58 1251.11 917.84 1251.00 927.00 C 1250.89 936.16 1251.08 946.61 1251.00 956.00 C 1250.92 965.39 1251.10 975.57 1251.00 985.00 C 1250.90 994.43 1251.60 1003.95 1250.00 1013.00
C 1237.42 1018.39 1223.05 1021.25 1209.78 1024.78 C 1196.50 1028.31 1179.73 1031.36 1166.93 1034.93 C 1154.12 1038.49 1131.53 1047.92 1132.00 1029.00 C 1132.47 1010.08 1131.78 994.24 1132.00 976.00 C 1132.22 957.76 1131.90 940.93 1132.00 923.00 C 1132.10 905.07 1131.95 887.80 1132.00 870.00 C 1132.05 852.20 1131.96 834.77 1132.00 817.00
C 1126.49 827.00 1134.05 843.80 1131.00 855.00
C 1129.34 849.29 1129.79 839.23 1130.00 833.00 C 1130.21 826.77 1127.93 816.43 1133.00 815.00 Z"/>
</g>
<g fill="#4B3EA0" fill-opacity="0.35" stroke="None">
<path d="
M 930.00 253.00 
C 927.53 250.87 924.75 248.19 922.00 246.00
C 923.95 248.27 926.92 251.35 930.00 253.00 Z"/>
</g>
<g fill="#493898" fill-opacity="0.58" stroke="None">
<path d="
M 772.00 312.00 
C 793.06 310.08 814.79 311.97 836.00 312.00 C 857.21 312.03 879.85 310.09 901.00 312.00
C 900.87 312.20 886.19 310.26 881.00 311.00 C 875.81 311.74 865.35 310.74 859.00 311.00 C 852.65 311.26 842.64 310.99 836.00 311.00 C 829.36 311.01 820.34 311.26 814.00 311.00 C 807.66 310.74 796.35 311.66 791.00 311.00 C 785.65 310.34 772.13 312.19 772.00 312.00 Z"/>
</g>
<g fill="#7F007F" fill-opacity="0.01" stroke="None">
<path d="
M 772.00 313.00 
C 793.07 314.90 814.79 313.04 836.00 313.00 C 857.21 312.96 879.85 314.92 901.00 313.00
C 901.00 313.00 900.77 312.35 901.00 312.00
C 879.85 310.09 857.21 312.03 836.00 312.00 C 814.79 311.97 793.06 310.08 772.00 312.00
C 772.00 312.00 772.06 312.99 772.00 313.00 Z"/>
</g>
<g fill="#000000" fill-opacity="0.00" stroke="None">
<path d="
M 805.00 753.00 
C 800.48 748.48 805.29 736.84 804.00 730.00 C 802.71 723.16 804.55 712.51 804.00 705.00 C 803.45 697.49 804.10 688.79 804.00 681.00 C 803.90 673.21 804.19 664.49 803.00 657.00
C 800.86 643.52 795.94 630.32 791.31 617.69 C 786.67 605.07 782.39 592.69 777.92 580.08 C 773.46 567.46 768.82 555.26 764.32 542.68 C 759.82 530.10 755.63 517.53 750.98 505.03 C 746.32 492.52 742.16 479.88 737.77 467.23 C 733.38 454.58 728.27 442.85 723.98 430.03 C 719.68 417.20 714.85 405.35 710.77 392.23 C 706.69 379.11 703.49 363.85 687.00 365.00 C 670.51 366.15 652.16 365.47 636.00 365.00 C 619.84 364.53 605.23 363.60 598.92 377.92 C 592.61 392.24 586.34 397.07 579.92 409.92 C 573.49 422.77 567.32 429.20 560.78 441.78 C 554.23 454.36 565.53 465.63 571.75 476.25 C 577.96 486.88 584.71 497.26 591.23 507.77 C 597.75 518.28 605.02 528.03 611.70 538.30 C 618.37 548.58 624.66 559.26 631.70 569.30 C 638.74 579.35 644.43 589.96 651.75 600.25 C 659.07 610.55 664.76 620.65 671.75 631.25 C 678.74 641.85 684.78 653.95 686.00 667.00
C 686.65 673.96 685.89 682.09 686.00 689.00 C 686.11 695.91 686.36 704.42 686.00 711.00 C 685.64 717.58 687.06 727.25 686.00 733.00 C 684.94 738.75 689.27 751.39 684.00 754.00
C 674.67 754.00 665.33 754.00 656.00 754.00
C 656.47 736.91 655.38 714.57 656.00 698.00 C 656.62 681.43 656.08 663.05 648.92 650.08 C 641.77 637.10 633.71 630.20 624.75 619.25 C 615.78 608.31 606.84 600.39 598.25 589.75 C 589.66 579.11 581.20 571.00 572.75 560.25 C 564.31 549.49 555.08 542.71 546.92 531.08 C 538.76 519.45 528.84 514.54 520.75 501.25 C 512.67 487.95 499.76 485.56 486.69 493.69 C 473.63 501.83 459.94 502.91 447.22 509.22 C 434.51 515.53 414.34 518.06 419.02 534.98 C 423.71 551.89 422.18 568.69 425.02 583.98 C 427.87 599.26 426.10 616.75 438.97 625.03 C 451.85 633.30 462.09 637.78 473.97 646.03 C 485.85 654.28 496.92 658.53 508.30 666.70 C 519.69 674.87 533.84 678.50 537.00 693.00
C 540.43 708.76 537.52 726.59 538.00 743.00 C 538.48 759.41 538.70 777.62 538.00 794.00 C 537.30 810.38 540.81 828.37 537.00 844.00
C 535.39 850.60 531.27 856.08 525.23 859.23 C 519.19 862.38 514.31 866.23 508.68 869.68 C 503.04 873.13 497.27 876.07 491.75 879.75 C 486.24 883.43 480.61 886.55 475.08 890.08 C 469.54 893.60 463.90 896.85 458.25 900.25 C 452.59 903.64 447.62 907.56 441.68 910.68 C 435.74 913.79 429.69 917.38 429.00 925.00 C 428.31 932.62 427.12 941.39 425.98 948.98 C 424.83 956.56 423.81 965.51 423.00 973.00 C 422.19 980.49 420.98 990.08 419.98 996.98 C 418.97 1003.87 415.49 1013.61 422.77 1017.23 C 430.05 1020.85 434.99 1022.13 441.93 1025.07 C 448.87 1028.02 454.37 1030.03 460.99 1033.01 C 467.61 1035.99 474.07 1037.18 480.78 1040.22 C 487.49 1043.27 492.61 1045.07 499.78 1048.22 C 506.94 1051.38 511.56 1046.02 515.77 1040.77 C 519.98 1035.52 524.40 1031.51 528.30 1026.30 C 532.20 1021.10 537.71 1017.92 541.25 1012.25 C 544.78 1006.57 550.39 1003.24 554.08 998.08 C 557.76 992.92 562.36 988.34 566.70 983.70 C 571.03 979.05 574.74 973.81 579.23 969.23 C 583.72 964.65 587.28 959.42 591.75 954.75 C 596.21 950.07 599.79 944.66 604.23 940.23 C 608.68 935.81 612.26 930.59 616.75 925.75 C 621.24 920.91 625.17 916.42 629.25 911.25 C 633.33 906.08 638.08 902.67 642.23 897.23 C 646.38 891.79 649.26 886.47 651.68 879.68 C 654.10 872.88 656.40 864.94 656.00 857.00 C 655.60 849.06 656.34 837.97 656.00 830.00 C 655.66 822.03 656.51 810.30 656.00 803.00 C 655.49 795.70 654.55 780.58 662.00 782.00 C 669.45 783.42 682.98 777.89 686.00 784.00
C 688.77 789.61 684.81 798.61 686.00 805.00 C 687.19 811.39 685.60 819.25 686.00 826.00 C 686.40 832.75 686.12 840.04 686.00 847.00 C 685.88 853.96 686.66 862.00 686.00 869.00
C 684.71 882.72 678.68 895.64 671.30 906.30 C 663.93 916.97 658.33 926.83 651.25 937.25 C 644.17 947.66 637.71 957.39 630.92 967.92 C 624.12 978.45 617.66 988.32 610.75 998.75 C 603.85 1009.19 597.24 1019.17 590.77 1029.77 C 584.30 1040.37 577.14 1050.35 570.92 1060.92 C 564.70 1071.49 554.00 1083.73 561.23 1095.77 C 568.46 1107.81 573.42 1115.32 580.23 1127.77 C 587.04 1140.22 592.86 1145.60 599.25 1159.75 C 605.63 1173.91 623.42 1172.87 639.00 1172.00 C 654.58 1171.13 674.06 1172.30 690.00 1172.00 C 705.94 1171.70 705.86 1153.86 711.02 1142.02 C 716.19 1130.19 719.77 1116.53 724.22 1104.22 C 728.68 1091.92 734.09 1079.59 738.02 1067.02 C 741.95 1054.46 747.80 1042.55 752.00 1030.00 C 756.20 1017.46 760.59 1004.59 765.02 992.02 C 769.46 979.46 774.44 967.25 778.67 954.67 C 782.90 942.09 787.99 929.60 792.07 917.07 C 796.16 904.55 802.45 891.19 804.00 878.00
C 804.90 870.33 803.40 861.64 804.00 854.00 C 804.60 846.36 803.28 836.26 804.00 829.00 C 804.72 821.74 802.65 811.19 804.00 805.00 C 805.35 798.81 800.32 784.90 806.00 782.00
C 811.71 779.08 823.29 782.45 829.99 782.01 C 836.69 781.57 833.57 795.96 834.00 802.00 C 834.43 808.04 833.79 818.95 834.00 826.00 C 834.21 833.05 833.88 842.58 834.00 850.00 C 834.12 857.42 833.90 866.59 834.00 874.00 C 834.10 881.41 833.94 889.28 831.93 895.93 C 829.92 902.57 827.84 908.25 826.98 914.98 C 826.11 921.70 823.31 927.31 821.78 933.78 C 820.25 940.25 818.97 946.64 816.98 952.98 C 814.98 959.32 813.37 965.77 812.33 972.33 C 811.29 978.89 808.38 984.50 806.93 990.93 C 805.47 997.35 804.89 1004.17 802.32 1010.32 C 799.76 1016.47 799.75 1023.59 797.93 1029.93 C 796.11 1036.26 793.82 1042.36 792.93 1048.93 C 792.03 1055.50 789.23 1061.34 787.78 1067.78 C 786.33 1074.21 785.16 1080.70 782.98 1086.98 C 780.79 1093.25 779.51 1099.78 778.32 1106.32 C 777.14 1112.86 774.41 1118.46 772.98 1124.98 C 771.54 1131.49 770.93 1138.01 768.32 1144.32 C 765.72 1150.63 765.28 1157.11 763.99 1163.99 C 762.70 1170.88 762.94 1179.65 763.00 1187.00 C 763.06 1194.35 762.95 1203.88 763.00 1211.00 C 763.06 1218.12 765.37 1223.81 773.00 1224.00 C 780.63 1224.19 789.19 1223.91 797.00 1224.00 C 804.81 1224.09 813.13 1223.94 821.00 1224.00 C 828.87 1224.06 837.16 1223.93 845.00 1224.00 C 852.84 1224.07 861.30 1223.89 869.00 1224.00 C 876.70 1224.11 885.65 1223.76 893.00 1224.00 C 900.35 1224.24 907.63 1224.19 909.67 1216.67 C 911.72 1209.15 910.97 1201.84 911.00 1194.00 C 911.03 1186.16 911.10 1177.71 911.00 1170.00 C 910.90 1162.29 911.29 1155.06 913.02 1148.02 C 914.76 1140.99 915.55 1134.21 916.00 1127.00 C 916.45 1119.80 918.06 1113.20 919.22 1106.22 C 920.38 1099.25 922.05 1092.33 922.07 1085.07 C 922.10 1077.81 925.25 1071.79 925.67 1064.67 C 926.09 1057.55 928.77 1051.16 929.00 1044.00 C 929.23 1036.84 930.54 1029.86 932.00 1023.00 C 933.46 1016.14 933.71 1008.92 935.02 1002.02 C 936.34 995.12 936.15 987.77 938.00 981.00 C 939.86 974.24 939.38 966.89 941.07 960.07 C 942.77 953.26 942.69 945.92 944.01 939.01 C 945.33 932.09 945.85 925.17 947.22 918.22 C 948.59 911.28 949.81 904.31 950.00 897.00 C 950.19 889.70 951.79 883.39 952.00 876.00
C 952.06 873.88 952.84 871.43 953.00 870.00
C 953.04 859.18 952.95 847.77 953.00 837.00 C 953.05 826.23 952.89 815.65 953.00 805.00 C 953.11 794.35 949.43 781.53 962.00 782.00 C 974.57 782.47 984.23 779.70 983.00 793.00 C 981.77 806.30 983.58 814.11 983.00 826.00 C 982.42 837.89 983.27 846.91 983.00 858.00 C 982.73 869.09 982.78 878.53 982.00 889.00 C 981.22 899.47 980.74 908.77 980.00 919.00 C 979.26 929.23 978.27 939.58 977.78 949.78 C 977.29 959.97 976.54 969.94 976.00 980.00 C 975.46 990.06 973.56 999.06 973.00 1009.00 C 972.44 1018.94 970.62 1028.09 970.00 1038.00 C 969.38 1047.91 969.32 1059.33 967.98 1068.98 C 966.63 1078.62 965.07 1087.48 964.00 1097.00 C 962.93 1106.52 962.54 1117.09 961.33 1126.33 C 960.12 1135.57 957.72 1145.87 958.01 1154.99 C 958.30 1164.12 963.71 1170.34 971.77 1174.23 C 979.83 1178.12 991.22 1176.90 1001.00 1177.00 C 1010.78 1177.10 1022.89 1177.05 1033.00 1177.00 C 1043.11 1176.95 1054.93 1177.22 1065.00 1177.00 C 1075.07 1176.78 1085.79 1178.81 1093.75 1172.75 C 1101.72 1166.69 1102.12 1159.03 1102.00 1149.00 C 1101.88 1138.97 1102.12 1127.35 1102.00 1117.00 C 1101.88 1106.65 1100.70 1096.66 1101.00 1086.00 C 1101.30 1075.34 1100.86 1063.72 1101.00 1053.00 C 1101.14 1042.28 1100.94 1031.71 1101.00 1021.00 C 1101.06 1010.29 1100.97 999.72 1101.00 989.00 C 1101.03 978.28 1100.99 967.77 1101.00 957.00 C 1101.01 946.23 1101.00 934.78 1101.00 924.00 C 1101.00 913.22 1101.00 902.73 1101.00 892.00 C 1101.00 881.27 1101.00 870.73 1101.00 860.00 C 1101.00 849.27 1101.00 838.78 1101.00 828.00 C 1101.00 817.22 1101.00 805.78 1101.00 795.00 C 1101.00 784.22 1101.00 773.73 1101.00 763.00 C 1101.00 752.27 1101.00 741.73 1101.00 731.00 C 1101.00 720.27 1101.00 709.78 1101.00 699.00 C 1101.00 688.22 1101.00 676.78 1101.00 666.00 C 1101.00 655.22 1101.01 644.73 1101.00 634.00 C 1100.99 623.27 1101.01 612.73 1101.00 602.00 C 1100.99 591.27 1101.03 580.76 1101.00 570.00 C 1100.97 559.24 1101.07 547.75 1101.00 537.00 C 1100.93 526.25 1101.15 515.67 1101.00 505.00 C 1100.85 494.33 1101.32 483.59 1101.00 473.00 C 1100.68 462.41 1102.06 452.37 1102.00 442.00 C 1101.94 431.63 1102.12 419.01 1102.00 409.00 C 1101.88 398.99 1102.57 386.50 1101.33 377.67 C 1100.09 368.84 1096.56 361.49 1087.00 360.00 C 1077.44 358.51 1065.17 360.70 1055.00 360.00 C 1044.83 359.30 1032.29 360.42 1022.00 360.00 C 1011.71 359.58 1000.03 360.41 990.00 360.00 C 979.97 359.59 971.97 359.89 964.75 366.75 C 957.54 373.61 957.96 381.66 959.00 391.00 C 960.04 400.34 962.18 410.40 963.00 420.00 C 963.82 429.60 963.70 439.92 965.67 449.33 C 967.64 458.74 967.23 468.46 969.00 478.00 C 970.77 487.54 969.42 498.28 971.02 507.98 C 972.62 517.67 973.18 528.07 974.01 537.99 C 974.84 547.91 976.41 556.98 977.00 567.00 C 977.59 577.02 976.79 587.99 978.07 597.93 C 979.36 607.86 979.63 617.23 980.67 627.33 C 981.71 637.43 981.23 648.67 982.07 658.93 C 982.92 669.18 983.23 679.39 983.00 690.00 C 982.77 700.61 983.12 711.36 983.00 722.00 C 982.88 732.64 983.09 743.36 983.00 754.00
C 973.00 754.00 963.00 754.00 953.00 754.00
C 953.23 739.25 952.70 723.67 953.00 709.00 C 953.30 694.33 952.87 679.08 952.00 665.00 C 951.13 650.92 950.40 637.34 948.00 624.00 C 945.60 610.66 944.23 597.41 942.93 584.07 C 941.63 570.74 937.16 559.18 936.00 546.00 C 934.84 532.82 933.10 520.06 930.78 507.22 C 928.46 494.38 927.85 480.68 924.98 468.02 C 922.11 455.37 922.15 441.38 919.00 429.00 C 915.85 416.63 916.78 401.48 913.33 389.67 C 909.88 377.86 911.56 358.09 911.00 347.00 C 910.44 335.91 915.39 312.78 901.00 313.00
C 879.85 314.92 857.21 312.96 836.00 313.00 C 814.79 313.04 793.07 314.90 772.00 313.00
C 756.16 320.47 764.21 345.87 763.00 362.00 C 761.79 378.13 770.06 394.79 772.67 410.33 C 775.28 425.86 781.72 440.48 785.02 455.98 C 788.33 471.47 792.41 487.26 796.22 502.78 C 800.04 518.30 804.41 533.25 808.02 548.98 C 811.64 564.70 816.35 579.01 820.01 594.99 C 823.67 610.98 827.86 624.48 832.01 640.99 C 836.16 657.50 833.29 678.97 834.00 697.00 C 834.71 715.03 833.47 735.73 834.00 754.00
C 826.91 750.93 810.53 758.53 805.00 753.00 Z"/>
</g>
<g fill="#4A3A99" fill-opacity="0.47" stroke="None">
<path d="
M 496.00 415.00 
C 496.29 411.92 496.58 408.33 497.00 405.00 C 497.42 401.67 495.13 398.07 495.00 397.00
C 494.44 403.01 495.49 409.70 496.00 415.00 Z"/>
</g>
<g fill="#483A9E" fill-opacity="0.39" stroke="None">
<path d="
M 1296.00 468.00 
C 1292.05 463.20 1288.04 459.14 1283.00 455.00
C 1285.75 458.67 1291.90 465.35 1296.00 468.00 Z"/>
</g>
<g fill="#000000" fill-opacity="0.00" stroke="None">
<path d="
M 1140.00 495.00 
C 1126.67 495.08 1132.96 517.27 1132.00 528.00 C 1131.04 538.73 1132.45 556.93 1132.00 569.00 C 1131.55 581.07 1132.20 596.49 1132.00 609.00 C 1131.80 621.51 1132.09 637.72 1132.00 650.00 C 1131.91 662.28 1132.04 678.82 1132.00 690.00 C 1131.96 701.18 1128.74 723.63 1139.92 718.92 C 1151.10 714.21 1156.31 709.03 1166.30 704.30 C 1176.30 699.58 1182.38 694.67 1191.77 689.77 C 1201.16 684.87 1208.63 680.35 1217.77 674.77 C 1226.91 669.19 1233.97 667.45 1242.90 659.90 C 1251.83 652.35 1251.10 639.30 1251.00 627.00 C 1250.90 614.70 1250.52 598.81 1251.00 586.00 C 1251.48 573.19 1249.56 558.87 1251.00 546.00 C 1252.44 533.13 1250.70 520.08 1237.22 518.78 C 1223.75 517.48 1217.17 512.48 1205.07 510.93 C 1192.97 509.37 1183.60 504.15 1172.02 502.98 C 1160.45 501.80 1151.13 494.93 1140.00 495.00 Z"/>
</g>
<g fill="#493A9A" fill-opacity="0.55" stroke="None">
<path d="
M 805.00 753.00 
C 806.66 737.89 806.23 719.86 806.00 704.00 C 805.77 688.14 808.17 670.82 803.00 657.00
C 804.19 664.49 803.90 673.21 804.00 681.00 C 804.10 688.79 803.45 697.49 804.00 705.00 C 804.55 712.51 802.71 723.16 804.00 730.00 C 805.29 736.84 800.48 748.48 805.00 753.00 Z"/>
</g>
<g fill="#493898" fill-opacity="0.61" stroke="None">
<path d="
M 684.00 754.00 
C 689.27 751.39 684.94 738.75 686.00 733.00 C 687.06 727.25 685.64 717.58 686.00 711.00 C 686.36 704.42 686.11 695.91 686.00 689.00 C 685.89 682.09 686.65 673.96 686.00 667.00
C 684.55 679.97 683.24 695.51 684.00 710.00 C 684.76 724.49 683.43 739.46 684.00 754.00 Z"/>
</g>
<g fill="#483898" fill-opacity="0.77" stroke="None">
<path d="
M 1131.00 682.00 
C 1129.33 693.52 1129.34 708.41 1131.00 720.00
C 1131.00 707.33 1131.00 694.67 1131.00 682.00 Z"/>
</g>
<g fill="#473A9A" fill-opacity="0.35" stroke="None">
<path d="
M 537.00 844.00 
C 540.81 828.37 537.30 810.38 538.00 794.00 C 538.70 777.62 538.48 759.41 538.00 743.00 C 537.52 726.59 540.43 708.76 537.00 693.00
C 537.15 717.17 536.17 744.05 536.00 769.00 C 535.83 793.95 537.66 819.90 537.00 844.00 Z"/>
</g>
<g fill="#000000" fill-opacity="0.00" stroke="None">
<path d="
M 1251.00 709.00 
C 1239.09 715.87 1228.33 721.74 1216.25 728.25 C 1204.16 734.75 1195.32 741.42 1182.23 747.23 C 1169.14 753.04 1147.08 748.64 1132.00 750.00
C 1132.00 759.33 1132.00 768.67 1132.00 778.00
C 1155.19 775.73 1181.89 777.32 1199.77 790.23 C 1217.65 803.14 1233.04 807.39 1251.00 819.00
C 1279.04 799.90 1311.67 783.53 1338.00 763.00
C 1308.64 745.64 1279.50 727.30 1251.00 709.00 Z"/>
</g>
<g fill="#000000" fill-opacity="0.00" stroke="None">
<path d="
M 376.00 790.00 
C 372.42 794.19 368.62 798.13 365.00 802.00
C 361.25 807.64 350.10 816.23 362.00 816.00 C 373.90 815.77 381.36 816.23 392.00 816.00 C 402.64 815.77 412.20 816.39 422.00 816.00 C 431.80 815.61 443.11 817.54 451.31 814.31 C 459.50 811.07 462.90 806.50 469.77 802.77 C 476.64 799.04 481.94 795.31 488.30 791.30 C 494.66 787.29 500.84 784.11 507.00 780.00
C 506.11 770.23 506.12 758.77 507.00 749.00
C 499.33 743.87 492.05 740.10 484.22 734.78 C 476.40 729.45 469.99 726.76 462.22 720.78 C 454.46 714.79 445.06 711.98 434.00 713.00 C 422.94 714.02 409.64 712.35 398.00 713.00 C 386.36 713.65 372.83 712.26 361.00 713.00 C 349.17 713.74 363.60 724.34 368.23 729.77 C 372.86 735.20 379.28 743.62 384.75 749.25 C 390.22 754.88 399.99 763.50 392.75 770.75 C 385.52 778.01 382.57 782.32 376.00 790.00 Z"/>
</g>
<g fill="#483898" fill-opacity="0.68" stroke="None">
<path d="
M 1103.00 730.00 
C 1101.33 756.19 1101.34 785.74 1103.00 812.00
C 1103.00 784.67 1103.00 757.33 1103.00 730.00 Z"/>
</g>
<g fill="#483A99" fill-opacity="0.14" stroke="None">
<path d="
M 507.00 780.00 
C 507.00 780.00 507.74 780.25 508.00 780.00
C 508.88 770.23 508.88 758.77 508.00 749.00
C 508.00 749.00 507.35 749.23 507.00 749.00
C 506.12 758.77 506.11 770.23 507.00 780.00 Z"/>
</g>
<g fill="#483998" fill-opacity="0.71" stroke="None">
<path d="
M 508.00 780.00 
C 510.61 777.47 508.89 767.71 509.00 764.00 C 509.11 760.29 510.51 751.43 508.00 749.00
C 508.88 758.77 508.88 770.23 508.00 780.00 Z"/>
</g>
<g fill="#493A9A" fill-opacity="0.55" stroke="None">
<path d="
M 804.00 878.00 
C 805.65 873.47 806.50 868.54 806.00 863.00 C 805.50 857.46 806.16 851.44 806.00 846.00 C 805.84 840.56 805.89 835.25 806.00 830.00 C 806.11 824.75 805.59 817.94 806.00 813.00 C 806.41 808.06 805.02 800.14 806.00 796.00 C 806.98 791.86 803.45 783.75 806.00 782.00
C 800.32 784.90 805.35 798.81 804.00 805.00 C 802.65 811.19 804.72 821.74 804.00 829.00 C 803.28 836.26 804.60 846.36 804.00 854.00 C 803.40 861.64 804.90 870.33 804.00 878.00 Z"/>
</g>
<g fill="#493899" fill-opacity="0.62" stroke="None">
<path d="
M 686.00 869.00 
C 686.66 862.00 685.88 853.96 686.00 847.00 C 686.12 840.04 686.40 832.75 686.00 826.00 C 685.60 819.25 687.19 811.39 686.00 805.00 C 684.81 798.61 688.77 789.61 686.00 784.00
C 681.65 791.69 684.96 802.63 684.00 812.00 C 683.04 821.37 685.11 832.65 684.00 842.00 C 682.89 851.35 685.17 862.05 686.00 869.00 Z"/>
</g>
<g fill="#3D389B" fill-opacity="0.07" stroke="None">
<path d="
M 365.00 802.00 
C 368.62 798.13 372.42 794.19 376.00 790.00
C 372.05 793.95 368.11 797.33 365.00 802.00 Z"/>
</g>
<g fill="#483898" fill-opacity="0.75" stroke="None">
<path d="
M 1132.00 817.00 
C 1132.09 816.83 1132.97 815.01 1133.00 815.00
C 1127.93 816.43 1130.21 826.77 1130.00 833.00 C 1129.79 839.23 1129.34 849.29 1131.00 855.00
C 1134.05 843.80 1126.49 827.00 1132.00 817.00 Z"/>
</g>
<g fill="#000000" fill-opacity="0.00" stroke="None">
<path d="
M 1132.00 817.00 
C 1131.96 834.77 1132.05 852.20 1132.00 870.00 C 1131.95 887.80 1132.10 905.07 1132.00 923.00 C 1131.90 940.93 1132.22 957.76 1132.00 976.00 C 1131.78 994.24 1132.47 1010.08 1132.00 1029.00 C 1131.53 1047.92 1154.12 1038.49 1166.93 1034.93 C 1179.73 1031.36 1196.50 1028.31 1209.78 1024.78 C 1223.05 1021.25 1237.42 1018.39 1250.00 1013.00
C 1251.60 1003.95 1250.90 994.43 1251.00 985.00 C 1251.10 975.57 1250.92 965.39 1251.00 956.00 C 1251.08 946.61 1250.89 936.16 1251.00 927.00 C 1251.11 917.84 1250.78 906.58 1251.00 898.00 C 1251.22 889.42 1249.02 882.01 1243.23 876.77 C 1237.44 871.53 1232.12 869.80 1226.08 865.92 C 1220.03 862.05 1213.10 859.30 1207.23 855.77 C 1201.36 852.25 1194.90 848.02 1188.90 845.10 C 1182.90 842.18 1176.40 837.03 1170.25 834.75 C 1164.10 832.48 1157.72 825.15 1152.08 823.92 C 1146.43 822.70 1137.97 812.93 1133.00 815.00
C 1132.97 815.01 1132.09 816.83 1132.00 817.00 Z"/>
</g>
<g fill="#4E3797" fill-opacity="0.46" stroke="None">
<path d="
M 952.00 876.00 
C 954.11 876.40 952.02 879.53 954.00 880.00
C 954.85 876.59 953.29 873.05 953.00 870.00
C 952.84 871.43 952.06 873.88 952.00 876.00 Z"/>
</g>
<g fill="#4A3999" fill-opacity="0.48" stroke="None">
<path d="
M 496.00 1135.00 
C 496.38 1128.49 496.65 1120.95 496.00 1114.00
C 495.36 1120.61 495.06 1127.95 496.00 1135.00 Z"/>
</g>
</svg>