<svg xmlns="http://www.w3.org/2000/svg" xmlns:v="https://svgstorm.com"
viewBox = "0 0 1674 1529"
width="1674"
height="1529">
<g fill="None" fill-opacity="0.0" stroke="#000000" stroke-opacity="0.00" stroke-width="0.3"><path d="
M 0.00 1529.00 
L 1674.00 1529.00
L 1674.00 0.00
L 0.00 0.00
L 0.00 1529.00
M 1179.00 399.00 
C 1179.38 403.08 1179.38 407.92 1179.00 412.00
C 1178.76 414.55 1177.95 417.11 1178.00 420.00
C 1178.03 421.57 1177.81 422.69 1177.00 424.00
C 1178.00 424.00 1179.00 424.00 1180.00 424.00
C 1203.76 417.15 1236.85 427.37 1257.08 436.92 C 1277.30 446.47 1293.54 461.27 1306.25 479.75 C 1318.97 498.22 1332.23 525.25 1330.00 549.00
C 1330.46 553.72 1330.45 559.35 1330.00 564.00
C 1332.68 591.69 1316.19 618.19 1303.00 640.00
C 1352.90 659.87 1385.78 709.93 1386.00 764.00 C 1386.22 818.07 1352.71 869.09 1303.00 889.00
C 1318.26 910.68 1329.45 936.43 1330.00 964.00
C 1330.46 968.72 1330.45 974.35 1330.00 979.00
C 1333.14 1011.45 1313.08 1043.51 1291.75 1066.75 C 1270.43 1089.99 1234.97 1103.89 1204.00 1106.00
C 1198.84 1106.35 1193.16 1106.35 1188.00 1106.00
C 1184.28 1105.75 1180.91 1104.55 1177.00 1105.00
C 1179.43 1108.53 1176.58 1113.48 1179.00 1117.00
C 1179.42 1121.44 1178.35 1126.34 1178.00 1130.00
C 1181.16 1162.62 1162.33 1193.22 1141.30 1216.30 C 1120.28 1239.38 1090.38 1253.93 1058.00 1257.00 C 1025.62 1260.07 986.60 1249.72 961.00 1230.00
C 953.41 1250.28 940.19 1268.13 923.00 1282.00
C 921.83 1283.02 921.22 1283.21 920.00 1284.00
C 903.35 1294.79 891.18 1304.10 870.98 1308.98 C 850.77 1313.85 824.22 1313.64 803.93 1309.07 C 783.64 1304.51 770.69 1294.83 754.00 1284.00
C 752.88 1283.27 752.07 1282.94 751.00 1282.00
C 734.20 1267.30 720.12 1250.71 713.00 1230.00
C 673.87 1260.77 612.47 1265.61 568.78 1243.22 C 525.08 1220.83 497.74 1178.87 496.00 1130.00
C 495.64 1126.27 494.58 1121.44 495.00 1117.00
C 495.35 1113.28 496.10 1108.66 497.00 1105.00
C 493.06 1104.32 489.79 1106.03 486.00 1106.00
C 480.51 1106.37 474.49 1106.37 469.00 1106.00
C 435.84 1103.74 406.67 1089.89 382.25 1066.75 C 357.83 1043.62 347.15 1011.58 344.00 979.00
C 343.54 974.28 343.55 968.65 344.00 964.00
C 341.36 936.76 358.05 910.45 371.00 889.00
C 327.89 869.80 296.01 832.42 289.01 783.99 C 282.00 735.57 303.99 681.14 345.00 654.00
C 345.61 653.63 346.45 653.37 347.00 653.00
C 354.45 647.92 362.71 643.49 371.00 640.00
C 355.73 618.22 344.70 592.63 344.00 565.00
C 343.51 559.96 343.52 553.97 344.00 549.00
C 341.79 525.49 354.71 498.76 367.30 480.30 C 379.90 461.84 396.03 446.93 416.25 437.25 C 436.46 427.56 470.11 417.11 494.00 424.00
C 494.97 423.84 496.02 424.13 497.00 424.00
C 496.07 422.86 495.92 421.45 496.00 420.00
C 496.05 417.06 495.24 414.60 495.00 412.00
C 494.62 407.92 494.62 403.08 495.00 399.00
C 499.54 350.61 523.90 308.13 568.03 286.03 C 612.16 263.92 673.66 267.13 713.00 299.00
C 731.70 248.34 783.35 216.00 837.00 216.00 C 890.65 216.00 942.29 248.34 961.00 299.00
C 999.91 267.29 1062.49 263.74 1106.08 285.92 C 1149.67 308.11 1175.38 350.69 1179.00 399.00 Z"/>
</g>
<g fill="None" fill-opacity="0.0" stroke="#FFFFFF" stroke-opacity="0.98" stroke-width="0.3"><path d="
M 495.00 399.00 
C 495.00 398.96 496.00 399.00 496.00 399.00
C 497.88 400.82 497.82 410.23 496.00 412.00
C 495.74 412.25 495.00 412.00 495.00 412.00
C 495.24 414.60 496.05 417.06 496.00 420.00
C 496.19 420.80 499.72 421.93 498.00 425.00 C 496.28 428.07 494.47 424.13 494.00 424.00
C 470.11 417.11 436.46 427.56 416.25 437.25 C 396.03 446.93 379.90 461.84 367.30 480.30 C 354.71 498.76 341.79 525.49 344.00 549.00
C 344.52 554.50 344.51 559.52 344.00 565.00
C 344.70 592.63 355.73 618.22 371.00 640.00
C 362.71 643.49 354.45 647.92 347.00 653.00
C 347.08 652.92 345.78 658.28 343.00 657.00
C 343.30 655.75 344.83 655.29 345.00 654.00
C 303.99 681.14 282.00 735.57 289.01 783.99 C 296.01 832.42 327.89 869.80 371.00 889.00
C 358.05 910.45 341.36 936.76 344.00 964.00
C 344.46 968.72 344.45 974.35 344.00 979.00
C 347.15 1011.58 357.83 1043.62 382.25 1066.75 C 406.67 1089.89 435.84 1103.74 469.00 1106.00
C 470.24 1105.82 473.64 1104.28 477.00 1104.00 C 480.36 1103.72 484.71 1105.81 486.00 1106.00
C 489.79 1106.03 493.06 1104.32 497.00 1105.00
C 496.10 1108.66 495.35 1113.28 495.00 1117.00
C 495.00 1116.96 496.00 1117.00 496.00 1117.00
C 498.88 1119.79 496.28 1127.12 496.00 1130.00
C 497.74 1178.87 525.08 1220.83 568.78 1243.22 C 612.47 1265.61 673.87 1260.77 713.00 1230.00
C 720.12 1250.71 734.20 1267.30 751.00 1282.00
C 751.84 1282.47 753.63 1283.59 754.00 1284.00
C 770.69 1294.83 783.64 1304.51 803.93 1309.07 C 824.22 1313.64 850.77 1313.85 870.98 1308.98 C 891.18 1304.10 903.35 1294.79 920.00 1284.00
C 920.43 1283.52 922.25 1282.42 923.00 1282.00
C 940.19 1268.13 953.41 1250.28 961.00 1230.00
C 986.60 1249.72 1025.62 1260.07 1058.00 1257.00 C 1090.38 1253.93 1120.28 1239.38 1141.30 1216.30 C 1162.33 1193.22 1181.16 1162.62 1178.00 1130.00
C 1177.71 1127.00 1175.12 1119.78 1178.00 1117.00
C 1178.26 1116.75 1179.00 1117.00 1179.00 1117.00
C 1176.58 1113.48 1179.43 1108.53 1177.00 1105.00
C 1180.91 1104.55 1184.28 1105.75 1188.00 1106.00
C 1189.10 1105.84 1192.80 1104.00 1196.00 1104.00 C 1199.20 1104.00 1202.85 1105.83 1204.00 1106.00
C 1234.97 1103.89 1270.43 1089.99 1291.75 1066.75 C 1313.08 1043.51 1333.14 1011.45 1330.00 979.00
C 1329.54 974.21 1329.52 969.11 1330.00 964.00
C 1329.45 936.43 1318.26 910.68 1303.00 889.00
C 1352.71 869.09 1386.22 818.07 1386.00 764.00 C 1385.78 709.93 1352.90 659.87 1303.00 640.00
C 1316.19 618.19 1332.68 591.69 1330.00 564.00
C 1329.54 559.20 1329.52 554.11 1330.00 549.00
C 1332.23 525.25 1318.97 498.22 1306.25 479.75 C 1293.54 461.27 1277.30 446.47 1257.08 436.92 C 1236.85 427.37 1203.76 417.15 1180.00 424.00
C 1179.47 424.15 1177.77 428.14 1176.11 424.89 C 1174.45 421.64 1177.75 421.04 1178.00 420.00
C 1177.95 417.11 1178.76 414.55 1179.00 412.00
C 1179.00 412.04 1178.00 412.00 1178.00 412.00
C 1176.13 410.19 1176.17 400.76 1178.00 399.00
C 1178.26 398.75 1179.00 399.00 1179.00 399.00
C 1175.38 350.69 1149.67 308.11 1106.08 285.92 C 1062.49 263.74 999.91 267.29 961.00 299.00
C 942.29 248.34 890.65 216.00 837.00 216.00 C 783.35 216.00 731.70 248.34 713.00 299.00
C 673.66 267.13 612.16 263.92 568.03 286.03 C 523.90 308.13 499.54 350.61 495.00 399.00
M 904.00 313.00 
C 919.38 322.04 908.06 350.73 911.00 367.00 C 913.94 383.27 914.60 404.05 917.98 421.02 C 921.35 438.00 922.97 456.52 925.99 474.01 C 929.01 491.49 931.32 510.20 934.00 528.00 C 936.68 545.80 939.71 562.88 942.00 581.00 C 944.29 599.12 947.70 615.43 950.00 634.00 C 952.29 652.57 953.22 672.24 953.00 692.00 C 952.78 711.76 953.17 734.01 953.00 754.00
C 963.00 754.00 973.00 754.00 983.00 754.00
C 983.00 726.33 983.00 698.67 983.00 671.00
C 982.79 670.01 980.43 667.01 981.00 664.00 C 981.57 660.99 981.75 658.69 982.00 656.00
C 982.74 648.11 981.15 640.67 981.00 633.00
C 980.92 632.66 978.96 631.98 979.01 629.99 C 979.06 628.00 979.88 626.22 980.00 625.00
C 977.75 601.74 978.32 574.93 976.00 552.00 C 973.68 529.07 971.16 503.92 969.22 481.78 C 967.28 459.64 964.12 432.37 962.00 412.00 C 959.88 391.63 951.13 362.86 979.00 360.00
C 988.30 356.61 1002.24 358.05 1014.00 358.00 C 1025.76 357.95 1039.20 357.65 1051.00 358.00 C 1062.80 358.35 1077.67 356.16 1087.00 360.00
C 1104.69 362.36 1101.93 382.96 1102.00 398.00 C 1102.07 413.04 1101.85 434.42 1102.00 451.00 C 1102.15 467.58 1101.66 487.77 1102.00 505.00 C 1102.34 522.23 1101.24 540.51 1102.00 558.00 C 1102.76 575.49 1100.36 594.48 1102.00 612.00
C 1106.98 665.15 1103.00 721.26 1103.00 775.00 C 1103.00 828.74 1106.98 884.88 1102.00 938.00
C 1099.50 964.60 1103.92 995.73 1102.00 1022.00 C 1100.08 1048.27 1104.62 1081.22 1102.00 1106.00 C 1099.38 1130.78 1112.64 1164.09 1088.00 1176.00
C 1078.84 1180.43 1063.84 1177.42 1052.00 1178.00 C 1040.16 1178.58 1025.92 1177.99 1014.00 1178.00 C 1002.08 1178.01 987.47 1179.45 978.00 1176.00
C 950.39 1173.16 960.64 1144.14 961.99 1123.99 C 963.35 1103.84 968.41 1076.30 969.33 1054.33 C 970.25 1032.36 975.67 1006.68 975.98 983.98 C 976.29 961.28 982.21 933.87 980.00 911.00
C 979.87 909.66 979.93 909.11 979.00 907.00 C 978.08 904.88 980.91 903.37 981.00 903.00
C 981.15 895.36 982.74 887.87 982.00 880.00
C 981.75 877.31 981.59 875.03 981.00 872.00 C 980.41 868.97 982.78 866.06 983.00 865.00
C 983.00 856.12 983.11 844.61 983.00 836.00 C 982.89 827.39 983.29 814.65 983.00 807.00 C 982.71 799.35 985.81 781.80 978.00 782.00 C 970.18 782.20 954.66 777.73 953.01 786.01 C 951.36 794.29 953.64 806.94 953.00 816.00 C 952.36 825.06 952.99 835.62 953.00 845.00 C 953.01 854.38 952.83 864.92 952.00 874.00
C 952.05 874.46 953.48 874.61 953.99 877.01 C 954.49 879.42 952.21 880.27 952.00 881.00
C 951.61 888.92 950.71 897.99 950.00 906.00 C 949.29 914.01 947.01 922.03 946.00 930.00 C 944.99 937.98 943.15 945.53 942.67 953.67 C 942.19 961.81 939.57 969.59 938.67 977.67 C 937.77 985.75 935.77 993.04 935.22 1001.22 C 934.67 1009.41 932.58 1017.25 931.22 1025.22 C 929.86 1033.20 929.16 1042.04 928.02 1050.02 C 926.88 1058.01 925.76 1065.16 924.02 1073.02 C 922.29 1080.88 922.48 1090.07 921.00 1098.00 C 919.52 1105.94 918.58 1113.05 917.01 1121.01 C 915.44 1128.96 916.02 1138.10 914.00 1146.00 C 911.98 1153.90 910.76 1162.59 911.00 1171.00 C 911.24 1179.41 911.36 1190.13 911.00 1198.00 C 910.64 1205.87 913.33 1216.65 906.75 1221.75 C 900.17 1226.86 890.42 1223.12 882.00 1224.00 C 873.58 1224.88 862.89 1223.61 854.00 1224.00 C 845.11 1224.39 835.05 1223.84 826.00 1224.00 C 816.95 1224.16 808.14 1223.99 799.00 1224.00 C 789.86 1224.01 780.71 1224.46 771.78 1223.22 C 762.85 1221.99 762.81 1213.28 763.00 1205.00 C 763.20 1196.72 762.99 1185.38 763.00 1177.00 C 763.01 1168.62 764.41 1160.72 765.98 1152.98 C 767.54 1145.23 771.14 1138.78 771.99 1130.99 C 772.84 1123.20 775.99 1116.32 777.93 1108.93 C 779.86 1101.53 780.23 1094.12 782.98 1086.98 C 785.72 1079.84 786.02 1071.87 788.78 1064.78 C 791.53 1057.68 791.84 1050.25 793.98 1042.98 C 796.11 1035.70 798.48 1027.96 799.33 1020.33 C 800.18 1012.70 805.09 1006.54 805.93 998.93 C 806.77 991.31 808.95 984.30 810.98 976.98 C 813.00 969.65 813.99 961.90 816.78 954.78 C 819.56 947.65 819.70 940.31 821.98 932.98 C 824.26 925.64 826.32 918.45 827.78 910.78 C 829.24 903.11 832.24 896.29 833.33 888.33 C 834.42 880.37 834.06 870.38 834.00 862.00 C 833.94 853.62 834.25 842.08 834.00 834.00 C 833.75 825.92 834.64 813.96 834.00 807.00 C 833.36 800.04 836.75 783.79 830.97 782.03 C 825.19 780.26 807.43 780.56 805.00 784.00
C 803.44 787.85 807.29 796.51 806.00 802.00 C 804.71 807.49 806.46 815.03 806.00 821.00 C 805.54 826.97 805.95 833.81 806.00 840.00 C 806.05 846.19 805.39 852.67 806.00 859.00 C 806.61 865.33 805.41 872.71 804.00 877.00
C 803.13 887.95 798.06 898.36 794.68 908.68 C 791.30 919.00 787.33 929.63 784.02 940.03 C 780.72 950.42 775.56 959.83 772.22 970.22 C 768.89 980.61 765.42 991.07 761.23 1001.23 C 757.03 1011.39 754.51 1022.41 750.69 1032.69 C 746.87 1042.98 742.73 1052.64 739.08 1063.08 C 735.42 1073.52 731.82 1083.64 728.22 1094.22 C 724.63 1104.81 720.10 1113.96 717.07 1125.07 C 714.05 1136.19 708.53 1143.00 706.22 1155.22 C 703.92 1167.45 694.46 1174.35 681.00 1172.00 C 667.54 1169.65 651.35 1173.43 639.00 1172.00 C 626.65 1170.57 610.08 1175.70 603.08 1165.92 C 596.08 1156.13 593.12 1148.56 587.68 1139.32 C 582.24 1130.08 576.03 1122.23 571.75 1113.25 C 567.48 1104.26 557.43 1095.26 558.01 1084.99 C 558.59 1074.73 569.54 1067.40 573.25 1058.25 C 576.96 1049.10 584.33 1041.05 589.25 1032.25 C 594.18 1023.46 600.12 1015.65 605.30 1007.30 C 610.48 998.96 616.79 990.56 621.92 981.92 C 627.06 973.29 633.28 965.49 638.75 956.75 C 644.22 948.02 649.46 940.08 655.30 931.30 C 661.15 922.53 665.55 915.30 671.77 905.77 C 677.99 896.24 682.49 889.23 684.78 876.78 C 687.07 864.33 684.99 850.18 686.00 836.00 C 687.01 821.82 683.92 809.73 686.00 794.00 C 688.08 778.27 669.25 781.45 656.00 782.00
C 656.56 805.25 655.25 835.44 656.00 858.00 C 656.75 880.56 643.92 894.47 630.75 909.75 C 617.59 925.03 607.24 936.31 594.75 950.75 C 582.26 965.19 570.85 978.35 559.00 992.00
C 557.54 995.24 555.67 997.27 553.00 999.00
C 545.39 1007.74 537.07 1018.63 528.92 1025.92 C 520.76 1033.20 515.48 1050.40 502.92 1049.07 C 490.37 1047.74 479.98 1037.99 466.32 1034.68 C 452.66 1031.37 445.76 1023.80 429.98 1020.03 C 414.19 1016.25 420.04 997.87 421.98 983.98 C 423.91 970.09 426.40 952.81 427.33 938.33 C 428.25 923.85 433.96 912.79 447.08 907.08 C 460.20 901.38 467.31 894.20 478.75 887.75 C 490.19 881.30 499.71 875.07 510.69 868.69 C 521.68 862.32 534.33 855.89 537.00 843.00
C 536.71 794.01 536.71 741.92 537.00 693.00
C 534.17 679.36 520.55 673.74 509.25 666.75 C 497.95 659.75 487.20 652.94 474.92 646.08 C 462.65 639.21 456.04 632.54 441.75 625.25 C 427.47 617.95 428.56 602.06 426.00 586.00 C 423.45 569.94 424.11 554.37 419.67 537.33 C 415.23 520.29 429.19 515.88 443.68 510.68 C 458.17 505.47 468.69 501.39 483.07 495.07 C 497.45 488.75 507.22 483.40 519.00 498.00
C 520.34 498.96 521.20 500.56 522.00 502.00
C 534.26 515.15 545.50 529.88 557.75 543.25 C 570.00 556.62 581.13 569.67 593.75 584.25 C 606.37 598.83 616.79 609.79 629.75 625.25 C 642.71 640.71 655.97 653.30 656.00 676.00 C 656.03 698.70 655.98 730.47 656.00 754.00
C 669.35 754.51 687.94 757.79 686.00 742.00 C 684.06 726.21 686.75 714.28 686.00 700.00 C 685.25 685.72 686.77 672.16 684.22 659.78 C 681.67 647.40 678.24 639.42 671.70 630.30 C 665.17 621.18 661.45 613.33 655.23 604.77 C 649.01 596.22 644.61 587.79 638.70 579.30 C 632.78 570.81 627.09 562.10 621.68 553.32 C 616.27 544.54 609.74 537.03 604.75 528.25 C 599.76 519.46 592.93 511.43 588.23 502.77 C 583.53 494.11 576.04 485.75 572.23 476.77 C 568.42 467.79 557.20 459.15 558.01 448.99 C 558.82 438.83 568.59 430.67 572.77 421.77 C 576.95 412.87 583.73 403.95 587.98 394.98 C 592.22 386.00 600.64 377.88 604.00 368.00
C 607.85 360.39 621.38 363.08 631.00 363.00 C 640.62 362.92 656.18 362.52 666.00 363.00 C 675.82 363.48 691.40 360.70 697.00 365.00
C 709.77 374.81 709.94 396.17 716.99 411.01 C 724.04 425.85 728.32 444.53 734.78 460.22 C 741.23 475.92 746.56 493.50 752.33 509.67 C 758.10 525.84 764.80 542.26 770.31 558.69 C 775.81 575.13 782.80 591.68 787.78 608.22 C 792.75 624.76 802.60 641.39 804.00 659.00
C 805.35 663.11 806.58 669.81 806.00 676.00 C 805.42 682.19 806.03 688.86 806.00 695.00 C 805.97 701.14 805.49 708.03 806.00 714.00 C 806.51 719.97 804.61 727.45 806.00 733.00 C 807.39 738.55 803.41 748.09 805.00 752.00
C 809.41 758.24 826.58 751.48 834.00 754.00
C 834.45 733.38 833.40 710.38 834.00 690.00 C 834.60 669.62 834.51 648.09 829.02 629.98 C 823.54 611.86 820.48 596.01 815.68 578.32 C 810.88 560.64 806.99 543.88 802.67 526.33 C 798.36 508.78 793.28 492.24 789.22 474.78 C 785.17 457.31 780.03 440.14 776.22 422.78 C 772.41 405.42 765.18 387.80 764.00 370.00 C 762.82 352.20 757.73 325.75 770.00 313.00
C 777.97 308.60 791.26 311.52 802.00 311.00 C 812.74 310.48 826.08 310.95 837.00 311.00 C 847.92 311.05 860.29 310.29 871.00 311.00 C 881.71 311.71 896.05 308.33 904.00 313.00
M 1251.00 527.00 
C 1255.72 536.67 1250.04 552.87 1252.00 565.00 C 1253.96 577.13 1253.32 592.23 1253.00 605.00 C 1252.68 617.77 1255.20 633.62 1251.00 645.00
C 1250.57 648.52 1248.55 652.59 1247.00 656.00
C 1245.90 658.42 1243.18 660.91 1241.00 662.00
C 1235.16 666.79 1227.41 668.67 1220.97 672.97 C 1214.54 677.28 1207.77 680.92 1200.92 684.92 C 1194.07 688.91 1187.48 692.12 1180.30 696.30 C 1173.13 700.49 1167.66 703.36 1159.77 707.77 C 1151.89 712.18 1149.41 714.09 1139.92 718.92 C 1130.42 723.74 1131.39 708.57 1132.00 699.00 C 1132.61 689.43 1131.74 677.15 1132.00 667.00 C 1132.26 656.85 1131.93 645.39 1132.00 635.00 C 1132.07 624.61 1132.08 614.57 1132.00 604.00 C 1131.92 593.43 1132.27 582.78 1132.00 572.00 C 1131.73 561.22 1132.65 551.06 1132.00 540.00 C 1131.35 528.94 1133.46 519.61 1132.00 508.00 C 1130.54 496.39 1138.81 493.77 1148.22 496.78 C 1157.63 499.79 1164.79 501.55 1174.00 503.00 C 1183.22 504.44 1190.28 508.40 1199.22 509.78 C 1208.17 511.16 1216.36 514.12 1225.02 515.98 C 1233.69 517.83 1241.95 519.25 1250.00 523.00
C 1250.28 524.28 1249.24 526.50 1251.00 527.00
M 1251.00 709.00 
C 1265.07 718.85 1280.36 726.85 1294.70 736.30 C 1309.04 745.76 1325.89 753.96 1338.00 765.00
C 1308.86 782.63 1279.51 800.82 1251.00 819.00
C 1239.23 811.99 1228.81 807.02 1216.77 800.23 C 1204.73 793.44 1195.83 787.22 1182.78 781.22 C 1169.73 775.22 1147.33 779.01 1132.00 778.00
C 1132.00 768.67 1132.00 759.33 1132.00 750.00
C 1146.96 748.62 1169.14 753.07 1182.23 747.23 C 1195.32 741.39 1204.08 734.63 1216.23 728.23 C 1228.38 721.83 1238.93 715.82 1251.00 709.00
M 506.00 748.00 
C 506.66 748.47 508.27 747.62 509.00 748.00
C 509.00 759.00 509.00 770.00 509.00 781.00
C 507.46 780.63 506.60 782.43 505.00 782.00
C 490.32 788.26 479.74 795.35 465.92 804.92 C 452.11 814.50 434.16 818.74 415.00 816.00 C 395.84 813.26 373.21 819.69 355.00 814.00
C 361.31 807.46 364.66 801.13 371.75 794.75 C 378.84 788.38 380.99 781.19 388.92 774.92 C 396.84 768.65 397.46 760.47 389.25 753.75 C 381.04 747.03 378.78 740.61 371.90 734.10 C 365.02 727.59 360.35 721.20 355.00 714.00
C 374.04 710.80 396.82 714.84 416.00 713.00 C 435.18 711.16 452.90 713.16 466.75 724.25 C 480.60 735.34 492.82 737.95 506.00 748.00
M 1251.00 891.00 
C 1255.03 901.91 1253.40 917.65 1253.00 930.00 C 1252.60 942.35 1255.16 959.07 1253.00 971.00 C 1250.84 982.93 1255.58 999.61 1251.00 1009.00
C 1245.89 1019.48 1233.17 1017.05 1222.93 1020.93 C 1212.68 1024.80 1200.48 1025.17 1189.98 1028.98 C 1179.47 1032.78 1167.61 1033.13 1156.99 1036.99 C 1146.38 1040.85 1130.89 1044.42 1132.00 1029.00 C 1133.11 1013.58 1131.54 1002.51 1132.00 988.00 C 1132.46 973.49 1131.88 961.15 1132.00 947.00 C 1132.12 932.85 1132.15 920.12 1132.00 906.00 C 1131.85 891.88 1132.53 880.52 1132.00 866.00 C 1131.47 851.48 1133.23 840.54 1132.00 825.00 C 1130.77 809.46 1144.24 819.96 1153.23 824.77 C 1162.22 829.59 1170.30 835.00 1179.25 839.75 C 1188.19 844.51 1196.56 849.54 1205.25 854.75 C 1213.93 859.97 1223.01 864.02 1231.70 869.30 C 1240.38 874.58 1249.68 880.11 1251.00 891.00 Z"/>
</g>
<g fill="None" fill-opacity="0.0" stroke="#FFFFFF" stroke-opacity="0.20" stroke-width="0.3"><path d="
M 770.00 313.00 
C 783.79 309.95 799.76 313.72 814.00 313.00 C 828.24 312.28 844.73 312.01 859.00 313.00 C 873.27 313.99 890.19 309.63 904.00 313.00
C 896.05 308.33 881.71 311.71 871.00 311.00 C 860.29 310.29 847.92 311.05 837.00 311.00 C 826.08 310.95 812.74 310.48 802.00 311.00 C 791.26 311.52 777.97 308.60 770.00 313.00 Z"/>
</g>
<g fill="None" fill-opacity="0.0" stroke="#000000" stroke-opacity="0.00" stroke-width="0.3"><path d="
M 805.00 752.00 
C 799.90 744.79 805.71 731.22 804.00 722.00 C 802.29 712.78 804.92 700.87 804.00 691.00 C 803.08 681.13 804.80 669.06 804.00 659.00
C 802.60 641.39 792.75 624.76 787.78 608.22 C 782.80 591.68 775.81 575.13 770.31 558.69 C 764.80 542.26 758.10 525.84 752.33 509.67 C 746.56 493.50 741.23 475.92 734.78 460.22 C 728.32 444.53 724.04 425.85 716.99 411.01 C 709.94 396.17 709.77 374.81 697.00 365.00
C 687.58 362.67 674.61 365.63 665.00 365.00 C 655.39 364.37 642.11 364.35 633.00 365.00 C 623.89 365.65 610.55 361.32 604.00 368.00
C 600.64 377.88 592.22 386.00 587.98 394.98 C 583.73 403.95 576.95 412.87 572.77 421.77 C 568.59 430.67 558.82 438.83 558.01 448.99 C 557.20 459.15 568.42 467.79 572.23 476.77 C 576.04 485.75 583.53 494.11 588.23 502.77 C 592.93 511.43 599.76 519.46 604.75 528.25 C 609.74 537.03 616.27 544.54 621.68 553.32 C 627.09 562.10 632.78 570.81 638.70 579.30 C 644.61 587.79 649.01 596.22 655.23 604.77 C 661.45 613.33 665.17 621.18 671.70 630.30 C 678.24 639.42 681.67 647.40 684.22 659.78 C 686.77 672.16 685.25 685.72 686.00 700.00 C 686.75 714.28 684.06 726.21 686.00 742.00 C 687.94 757.79 669.35 754.51 656.00 754.00
C 655.98 730.47 656.03 698.70 656.00 676.00 C 655.97 653.30 642.71 640.71 629.75 625.25 C 616.79 609.79 606.37 598.83 593.75 584.25 C 581.13 569.67 570.00 556.62 557.75 543.25 C 545.50 529.88 534.26 515.15 522.00 502.00
C 520.75 500.66 519.97 499.21 519.00 498.00
C 507.22 483.40 497.45 488.75 483.07 495.07 C 468.69 501.39 458.17 505.47 443.68 510.68 C 429.19 515.88 415.23 520.29 419.67 537.33 C 424.11 554.37 423.45 569.94 426.00 586.00 C 428.56 602.06 427.47 617.95 441.75 625.25 C 456.04 632.54 462.65 639.21 474.92 646.08 C 487.20 652.94 497.95 659.75 509.25 666.75 C 520.55 673.74 534.17 679.36 537.00 693.00
C 541.71 715.73 537.99 744.18 538.00 768.00 C 538.01 791.82 541.69 820.34 537.00 843.00
C 534.33 855.89 521.68 862.32 510.69 868.69 C 499.71 875.07 490.19 881.30 478.75 887.75 C 467.31 894.20 460.20 901.38 447.08 907.08 C 433.96 912.79 428.25 923.85 427.33 938.33 C 426.40 952.81 423.91 970.09 421.98 983.98 C 420.04 997.87 414.19 1016.25 429.98 1020.03 C 445.76 1023.80 452.66 1031.37 466.32 1034.68 C 479.98 1037.99 490.37 1047.74 502.92 1049.07 C 515.48 1050.40 520.76 1033.20 528.92 1025.92 C 537.07 1018.63 545.39 1007.74 553.00 999.00
C 555.00 996.71 557.02 994.24 559.00 992.00
C 570.85 978.35 582.26 965.19 594.75 950.75 C 607.24 936.31 617.59 925.03 630.75 909.75 C 643.92 894.47 656.75 880.56 656.00 858.00 C 655.25 835.44 656.56 805.25 656.00 782.00
C 669.25 781.45 688.08 778.27 686.00 794.00 C 683.92 809.73 687.01 821.82 686.00 836.00 C 684.99 850.18 687.07 864.33 684.78 876.78 C 682.49 889.23 677.99 896.24 671.77 905.77 C 665.55 915.30 661.15 922.53 655.30 931.30 C 649.46 940.08 644.22 948.02 638.75 956.75 C 633.28 965.49 627.06 973.29 621.92 981.92 C 616.79 990.56 610.48 998.96 605.30 1007.30 C 600.12 1015.65 594.18 1023.46 589.25 1032.25 C 584.33 1041.05 576.96 1049.10 573.25 1058.25 C 569.54 1067.40 558.59 1074.73 558.01 1084.99 C 557.43 1095.26 567.48 1104.26 571.75 1113.25 C 576.03 1122.23 582.24 1130.08 587.68 1139.32 C 593.12 1148.56 596.08 1156.13 603.08 1165.92 C 610.08 1175.70 626.65 1170.57 639.00 1172.00 C 651.35 1173.43 667.54 1169.65 681.00 1172.00 C 694.46 1174.35 703.92 1167.45 706.22 1155.22 C 708.53 1143.00 714.05 1136.19 717.07 1125.07 C 720.10 1113.96 724.63 1104.81 728.22 1094.22 C 731.82 1083.64 735.42 1073.52 739.08 1063.08 C 742.73 1052.64 746.87 1042.98 750.69 1032.69 C 754.51 1022.41 757.03 1011.39 761.23 1001.23 C 765.42 991.07 768.89 980.61 772.22 970.22 C 775.56 959.83 780.72 950.42 784.02 940.03 C 787.33 929.63 791.30 919.00 794.68 908.68 C 798.06 898.36 803.13 887.95 804.00 877.00
C 804.79 867.11 803.04 855.75 804.00 846.00 C 804.96 836.25 802.22 824.22 804.00 815.00 C 805.78 805.78 799.87 791.25 805.00 784.00
C 807.43 780.56 825.19 780.26 830.97 782.03 C 836.75 783.79 833.36 800.04 834.00 807.00 C 834.64 813.96 833.75 825.92 834.00 834.00 C 834.25 842.08 833.94 853.62 834.00 862.00 C 834.06 870.38 834.42 880.37 833.33 888.33 C 832.24 896.29 829.24 903.11 827.78 910.78 C 826.32 918.45 824.26 925.64 821.98 932.98 C 819.70 940.31 819.56 947.65 816.78 954.78 C 813.99 961.90 813.00 969.65 810.98 976.98 C 808.95 984.30 806.77 991.31 805.93 998.93 C 805.09 1006.54 800.18 1012.70 799.33 1020.33 C 798.48 1027.96 796.11 1035.70 793.98 1042.98 C 791.84 1050.25 791.53 1057.68 788.78 1064.78 C 786.02 1071.87 785.72 1079.84 782.98 1086.98 C 780.23 1094.12 779.86 1101.53 777.93 1108.93 C 775.99 1116.32 772.84 1123.20 771.99 1130.99 C 771.14 1138.78 767.54 1145.23 765.98 1152.98 C 764.41 1160.72 763.01 1168.62 763.00 1177.00 C 762.99 1185.38 763.20 1196.72 763.00 1205.00 C 762.81 1213.28 762.85 1221.99 771.78 1223.22 C 780.71 1224.46 789.86 1224.01 799.00 1224.00 C 808.14 1223.99 816.95 1224.16 826.00 1224.00 C 835.05 1223.84 845.11 1224.39 854.00 1224.00 C 862.89 1223.61 873.58 1224.88 882.00 1224.00 C 890.42 1223.12 900.17 1226.86 906.75 1221.75 C 913.33 1216.65 910.64 1205.87 911.00 1198.00 C 911.36 1190.13 911.24 1179.41 911.00 1171.00 C 910.76 1162.59 911.98 1153.90 914.00 1146.00 C 916.02 1138.10 915.44 1128.96 917.01 1121.01 C 918.58 1113.05 919.52 1105.94 921.00 1098.00 C 922.48 1090.07 922.29 1080.88 924.02 1073.02 C 925.76 1065.16 926.88 1058.01 928.02 1050.02 C 929.16 1042.04 929.86 1033.20 931.22 1025.22 C 932.58 1017.25 934.67 1009.41 935.22 1001.22 C 935.77 993.04 937.77 985.75 938.67 977.67 C 939.57 969.59 942.19 961.81 942.67 953.67 C 943.15 945.53 944.99 937.98 946.00 930.00 C 947.01 922.03 949.29 914.01 950.00 906.00 C 950.71 897.99 951.61 888.92 952.00 881.00
C 952.12 878.68 951.79 876.31 952.00 874.00
C 952.83 864.92 953.01 854.38 953.00 845.00 C 952.99 835.62 952.36 825.06 953.00 816.00 C 953.64 806.94 951.36 794.29 953.01 786.01 C 954.66 777.73 970.18 782.20 978.00 782.00 C 985.81 781.80 982.71 799.35 983.00 807.00 C 983.29 814.65 982.89 827.39 983.00 836.00 C 983.11 844.61 983.00 856.12 983.00 865.00
C 983.00 870.06 982.42 875.68 982.00 880.00
C 982.74 887.87 981.15 895.36 981.00 903.00
C 980.95 905.74 980.20 908.98 980.00 911.00
C 982.21 933.87 976.29 961.28 975.98 983.98 C 975.67 1006.68 970.25 1032.36 969.33 1054.33 C 968.41 1076.30 963.35 1103.84 961.99 1123.99 C 960.64 1144.14 950.39 1173.16 978.00 1176.00
C 995.65 1177.81 1015.28 1176.49 1033.00 1176.00 C 1050.72 1175.51 1070.62 1179.11 1088.00 1176.00
C 1112.64 1164.09 1099.38 1130.78 1102.00 1106.00 C 1104.62 1081.22 1100.08 1048.27 1102.00 1022.00 C 1103.92 995.73 1099.50 964.60 1102.00 938.00
C 1096.90 885.30 1101.00 828.64 1101.00 775.00 C 1101.00 721.36 1096.91 664.63 1102.00 612.00
C 1100.36 594.48 1102.76 575.49 1102.00 558.00 C 1101.24 540.51 1102.34 522.23 1102.00 505.00 C 1101.66 487.77 1102.15 467.58 1102.00 451.00 C 1101.85 434.42 1102.07 413.04 1102.00 398.00 C 1101.93 382.96 1104.69 362.36 1087.00 360.00
C 1069.60 357.68 1050.58 360.20 1033.00 360.00 C 1015.42 359.80 996.49 358.20 979.00 360.00
C 951.13 362.86 959.88 391.63 962.00 412.00 C 964.12 432.37 967.28 459.64 969.22 481.78 C 971.16 503.92 973.68 529.07 976.00 552.00 C 978.32 574.93 977.75 601.74 980.00 625.00
C 980.20 627.07 980.95 630.27 981.00 633.00
C 981.15 640.67 982.74 648.11 982.00 656.00
C 982.42 660.39 983.00 665.93 983.00 671.00
C 983.00 698.67 983.00 726.33 983.00 754.00
C 973.00 754.00 963.00 754.00 953.00 754.00
C 953.17 734.01 952.78 711.76 953.00 692.00 C 953.22 672.24 952.29 652.57 950.00 634.00 C 947.70 615.43 944.29 599.12 942.00 581.00 C 939.71 562.88 936.68 545.80 934.00 528.00 C 931.32 510.20 929.01 491.49 925.99 474.01 C 922.97 456.52 921.35 438.00 917.98 421.02 C 914.60 404.05 913.94 383.27 911.00 367.00 C 908.06 350.73 919.38 322.04 904.00 313.00
C 890.19 309.63 873.27 313.99 859.00 313.00 C 844.73 312.01 828.24 312.28 814.00 313.00 C 799.76 313.72 783.79 309.95 770.00 313.00
C 757.73 325.75 762.82 352.20 764.00 370.00 C 765.18 387.80 772.41 405.42 776.22 422.78 C 780.03 440.14 785.17 457.31 789.22 474.78 C 793.28 492.24 798.36 508.78 802.67 526.33 C 806.99 543.88 810.88 560.64 815.68 578.32 C 820.48 596.01 823.54 611.86 829.02 629.98 C 834.51 648.09 834.60 669.62 834.00 690.00 C 833.40 710.38 834.45 733.38 834.00 754.00
C 826.58 751.48 809.41 758.24 805.00 752.00 Z"/>
</g>
<g fill="None" fill-opacity="0.0" stroke="#FFFFFF" stroke-opacity="0.34" stroke-width="0.3"><path d="
M 979.00 360.00 
C 996.49 358.20 1015.42 359.80 1033.00 360.00 C 1050.58 360.20 1069.60 357.68 1087.00 360.00
C 1077.67 356.16 1062.80 358.35 1051.00 358.00 C 1039.20 357.65 1025.76 357.95 1014.00 358.00 C 1002.24 358.05 988.30 356.61 979.00 360.00 Z"/>
</g>
<g fill="None" fill-opacity="0.0" stroke="#FFFFFF" stroke-opacity="0.37" stroke-width="0.3"><path d="
M 604.00 368.00 
C 610.55 361.32 623.89 365.65 633.00 365.00 C 642.11 364.35 655.39 364.37 665.00 365.00 C 674.61 365.63 687.58 362.67 697.00 365.00
C 691.40 360.70 675.82 363.48 666.00 363.00 C 656.18 362.52 640.62 362.92 631.00 363.00 C 621.38 363.08 607.85 360.39 604.00 368.00 Z"/>
</g>
<g fill="None" fill-opacity="0.0" stroke="#FFFFFF" stroke-opacity="0.13" stroke-width="0.3"><path d="
M 495.00 412.00 
C 495.00 412.00 495.74 412.25 496.00 412.00
C 496.37 407.90 496.37 403.10 496.00 399.00
C 496.00 399.00 495.00 398.96 495.00 399.00
C 494.62 403.08 494.62 407.92 495.00 412.00 Z"/>
</g>
<g fill="None" fill-opacity="0.0" stroke="#FFFFFF" stroke-opacity="0.75" stroke-width="0.3"><path d="
M 496.00 412.00 
C 497.82 410.23 497.88 400.82 496.00 399.00
C 496.37 403.10 496.37 407.90 496.00 412.00 Z"/>
</g>
<g fill="None" fill-opacity="0.0" stroke="#FFFFFF" stroke-opacity="0.75" stroke-width="0.3"><path d="
M 1178.00 412.00 
C 1177.64 407.89 1177.63 403.10 1178.00 399.00
C 1176.17 400.76 1176.13 410.19 1178.00 412.00 Z"/>
</g>
<g fill="None" fill-opacity="0.0" stroke="#FFFFFF" stroke-opacity="0.13" stroke-width="0.3"><path d="
M 1178.00 412.00 
C 1178.00 412.00 1179.00 412.04 1179.00 412.00
C 1179.38 407.92 1179.38 403.08 1179.00 399.00
C 1179.00 399.00 1178.26 398.75 1178.00 399.00
C 1177.63 403.10 1177.64 407.89 1178.00 412.00 Z"/>
</g>
<g fill="None" fill-opacity="0.0" stroke="#FFFFFF" stroke-opacity="0.60" stroke-width="0.3"><path d="
M 494.00 424.00 
C 494.47 424.13 496.28 428.07 498.00 425.00 C 499.72 421.93 496.19 420.80 496.00 420.00
C 495.92 421.45 496.07 422.86 497.00 424.00
C 496.02 424.13 494.97 423.84 494.00 424.00 Z"/>
</g>
<g fill="None" fill-opacity="0.0" stroke="#FFFFFF" stroke-opacity="0.60" stroke-width="0.3"><path d="
M 1180.00 424.00 
C 1179.00 424.00 1178.00 424.00 1177.00 424.00
C 1177.81 422.69 1178.03 421.57 1178.00 420.00
C 1177.75 421.04 1174.45 421.64 1176.11 424.89 C 1177.77 428.14 1179.47 424.15 1180.00 424.00 Z"/>
</g>
<g fill="None" fill-opacity="0.0" stroke="#000000" stroke-opacity="0.00" stroke-width="0.3"><path d="
M 1241.00 662.00 
C 1242.62 660.67 1245.78 657.59 1247.00 656.00
C 1248.55 652.59 1250.57 648.52 1251.00 645.00
C 1252.53 632.32 1250.79 618.79 1251.00 606.00 C 1251.21 593.21 1251.97 579.77 1251.00 567.00 C 1250.04 554.23 1253.68 539.49 1251.00 527.00
C 1249.24 526.50 1250.28 524.28 1250.00 523.00
C 1241.95 519.25 1233.69 517.83 1225.02 515.98 C 1216.36 514.12 1208.17 511.16 1199.22 509.78 C 1190.28 508.40 1183.22 504.44 1174.00 503.00 C 1164.79 501.55 1157.63 499.79 1148.22 496.78 C 1138.81 493.77 1130.54 496.39 1132.00 508.00 C 1133.46 519.61 1131.35 528.94 1132.00 540.00 C 1132.65 551.06 1131.73 561.22 1132.00 572.00 C 1132.27 582.78 1131.92 593.43 1132.00 604.00 C 1132.08 614.57 1132.07 624.61 1132.00 635.00 C 1131.93 645.39 1132.26 656.85 1132.00 667.00 C 1131.74 677.15 1132.61 689.43 1132.00 699.00 C 1131.39 708.57 1130.42 723.74 1139.92 718.92 C 1149.41 714.09 1151.89 712.18 1159.77 707.77 C 1167.66 703.36 1173.13 700.49 1180.30 696.30 C 1187.48 692.12 1194.07 688.91 1200.92 684.92 C 1207.77 680.92 1214.54 677.28 1220.97 672.97 C 1227.41 668.67 1235.16 666.79 1241.00 662.00 Z"/>
</g>
<g fill="None" fill-opacity="0.0" stroke="#FFFFFF" stroke-opacity="0.35" stroke-width="0.3"><path d="
M 519.00 498.00 
C 519.97 499.21 520.75 500.66 522.00 502.00
C 521.20 500.56 520.34 498.96 519.00 498.00 Z"/>
</g>
<g fill="None" fill-opacity="0.0" stroke="#FFFFFF" stroke-opacity="0.41" stroke-width="0.3"><path d="
M 1251.00 645.00 
C 1255.20 633.62 1252.68 617.77 1253.00 605.00 C 1253.32 592.23 1253.96 577.13 1252.00 565.00 C 1250.04 552.87 1255.72 536.67 1251.00 527.00
C 1253.68 539.49 1250.04 554.23 1251.00 567.00 C 1251.97 579.77 1251.21 593.21 1251.00 606.00 C 1250.79 618.79 1252.53 632.32 1251.00 645.00 Z"/>
</g>
<g fill="None" fill-opacity="0.0" stroke="#FFFFFF" stroke-opacity="0.30" stroke-width="0.3"><path d="
M 344.00 565.00 
C 344.51 559.52 344.52 554.50 344.00 549.00
C 343.52 553.97 343.51 559.96 344.00 565.00 Z"/>
</g>
<g fill="None" fill-opacity="0.0" stroke="#FFFFFF" stroke-opacity="0.31" stroke-width="0.3"><path d="
M 1330.00 564.00 
C 1330.45 559.35 1330.46 553.72 1330.00 549.00
C 1329.52 554.11 1329.54 559.20 1330.00 564.00 Z"/>
</g>
<g fill="None" fill-opacity="0.0" stroke="#FFFFFF" stroke-opacity="0.28" stroke-width="0.3"><path d="
M 1102.00 938.00 
C 1106.98 884.88 1103.00 828.74 1103.00 775.00 C 1103.00 721.26 1106.98 665.15 1102.00 612.00
C 1096.91 664.63 1101.00 721.36 1101.00 775.00 C 1101.00 828.64 1096.90 885.30 1102.00 938.00 Z"/>
</g>
<g fill="None" fill-opacity="0.0" stroke="#FFFFFF" stroke-opacity="0.47" stroke-width="0.3"><path d="
M 981.00 633.00 
C 980.95 630.27 980.20 627.07 980.00 625.00
C 979.88 626.22 979.06 628.00 979.01 629.99 C 978.96 631.98 980.92 632.66 981.00 633.00 Z"/>
</g>
<g fill="None" fill-opacity="0.0" stroke="#FFFFFF" stroke-opacity="0.40" stroke-width="0.3"><path d="
M 345.00 654.00 
C 344.83 655.29 343.30 655.75 343.00 657.00
C 345.78 658.28 347.08 652.92 347.00 653.00
C 346.45 653.37 345.61 653.63 345.00 654.00 Z"/>
</g>
<g fill="None" fill-opacity="0.0" stroke="#FFFFFF" stroke-opacity="0.33" stroke-width="0.3"><path d="
M 983.00 671.00 
C 983.00 665.93 982.42 660.39 982.00 656.00
C 981.75 658.69 981.57 660.99 981.00 664.00 C 980.43 667.01 982.79 670.01 983.00 671.00 Z"/>
</g>
<g fill="None" fill-opacity="0.0" stroke="#FFFFFF" stroke-opacity="0.23" stroke-width="0.3"><path d="
M 1241.00 662.00 
C 1243.18 660.91 1245.90 658.42 1247.00 656.00
C 1245.78 657.59 1242.62 660.67 1241.00 662.00 Z"/>
</g>
<g fill="None" fill-opacity="0.0" stroke="#FFFFFF" stroke-opacity="0.55" stroke-width="0.3"><path d="
M 805.00 752.00 
C 803.41 748.09 807.39 738.55 806.00 733.00 C 804.61 727.45 806.51 719.97 806.00 714.00 C 805.49 708.03 805.97 701.14 806.00 695.00 C 806.03 688.86 805.42 682.19 806.00 676.00 C 806.58 669.81 805.35 663.11 804.00 659.00
C 804.80 669.06 803.08 681.13 804.00 691.00 C 804.92 700.87 802.29 712.78 804.00 722.00 C 805.71 731.22 799.90 744.79 805.00 752.00 Z"/>
</g>
<g fill="None" fill-opacity="0.0" stroke="#FFFFFF" stroke-opacity="0.45" stroke-width="0.3"><path d="
M 537.00 843.00 
C 541.69 820.34 538.01 791.82 538.00 768.00 C 537.99 744.18 541.71 715.73 537.00 693.00
C 536.71 741.92 536.71 794.01 537.00 843.00 Z"/>
</g>
<g fill="None" fill-opacity="0.0" stroke="#000000" stroke-opacity="0.00" stroke-width="0.3"><path d="
M 1251.00 709.00 
C 1238.93 715.82 1228.38 721.83 1216.23 728.23 C 1204.08 734.63 1195.32 741.39 1182.23 747.23 C 1169.14 753.07 1146.96 748.62 1132.00 750.00
C 1132.00 759.33 1132.00 768.67 1132.00 778.00
C 1147.33 779.01 1169.73 775.22 1182.78 781.22 C 1195.83 787.22 1204.73 793.44 1216.77 800.23 C 1228.81 807.02 1239.23 811.99 1251.00 819.00
C 1279.51 800.82 1308.86 782.63 1338.00 765.00
C 1325.89 753.96 1309.04 745.76 1294.70 736.30 C 1280.36 726.85 1265.07 718.85 1251.00 709.00 Z"/>
</g>
<g fill="None" fill-opacity="0.0" stroke="#000000" stroke-opacity="0.00" stroke-width="0.3"><path d="
M 505.00 782.00 
C 508.70 778.96 507.25 770.56 507.00 766.00 C 506.75 761.44 508.77 751.91 506.00 748.00
C 492.82 737.95 480.60 735.34 466.75 724.25 C 452.90 713.16 435.18 711.16 416.00 713.00 C 396.82 714.84 374.04 710.80 355.00 714.00
C 360.35 721.20 365.02 727.59 371.90 734.10 C 378.78 740.61 381.04 747.03 389.25 753.75 C 397.46 760.47 396.84 768.65 388.92 774.92 C 380.99 781.19 378.84 788.38 371.75 794.75 C 364.66 801.13 361.31 807.46 355.00 814.00
C 373.21 819.69 395.84 813.26 415.00 816.00 C 434.16 818.74 452.11 814.50 465.92 804.92 C 479.74 795.35 490.32 788.26 505.00 782.00 Z"/>
</g>
<g fill="None" fill-opacity="0.0" stroke="#FFFFFF" stroke-opacity="0.33" stroke-width="0.3"><path d="
M 505.00 782.00 
C 506.60 782.43 507.46 780.63 509.00 781.00
C 509.00 770.00 509.00 759.00 509.00 748.00
C 508.27 747.62 506.66 748.47 506.00 748.00
C 508.77 751.91 506.75 761.44 507.00 766.00 C 507.25 770.56 508.70 778.96 505.00 782.00 Z"/>
</g>
<g fill="None" fill-opacity="0.0" stroke="#FFFFFF" stroke-opacity="0.55" stroke-width="0.3"><path d="
M 804.00 877.00 
C 805.41 872.71 806.61 865.33 806.00 859.00 C 805.39 852.67 806.05 846.19 806.00 840.00 C 805.95 833.81 805.54 826.97 806.00 821.00 C 806.46 815.03 804.71 807.49 806.00 802.00 C 807.29 796.51 803.44 787.85 805.00 784.00
C 799.87 791.25 805.78 805.78 804.00 815.00 C 802.22 824.22 804.96 836.25 804.00 846.00 C 803.04 855.75 804.79 867.11 804.00 877.00 Z"/>
</g>
<g fill="None" fill-opacity="0.0" stroke="#000000" stroke-opacity="0.00" stroke-width="0.3"><path d="
M 1251.00 1009.00 
C 1253.65 996.64 1250.11 982.71 1251.00 970.00 C 1251.89 957.29 1251.28 943.87 1251.00 931.00 C 1250.72 918.13 1252.55 903.82 1251.00 891.00
C 1249.68 880.11 1240.38 874.58 1231.70 869.30 C 1223.01 864.02 1213.93 859.97 1205.25 854.75 C 1196.56 849.54 1188.19 844.51 1179.25 839.75 C 1170.30 835.00 1162.22 829.59 1153.23 824.77 C 1144.24 819.96 1130.77 809.46 1132.00 825.00 C 1133.23 840.54 1131.47 851.48 1132.00 866.00 C 1132.53 880.52 1131.85 891.88 1132.00 906.00 C 1132.15 920.12 1132.12 932.85 1132.00 947.00 C 1131.88 961.15 1132.46 973.49 1132.00 988.00 C 1131.54 1002.51 1133.11 1013.58 1132.00 1029.00 C 1130.89 1044.42 1146.38 1040.85 1156.99 1036.99 C 1167.61 1033.13 1179.47 1032.78 1189.98 1028.98 C 1200.48 1025.17 1212.68 1024.80 1222.93 1020.93 C 1233.17 1017.05 1245.89 1019.48 1251.00 1009.00 Z"/>
</g>
<g fill="None" fill-opacity="0.0" stroke="#FFFFFF" stroke-opacity="0.33" stroke-width="0.3"><path d="
M 982.00 880.00 
C 982.42 875.68 983.00 870.06 983.00 865.00
C 982.78 866.06 980.41 868.97 981.00 872.00 C 981.59 875.03 981.75 877.31 982.00 880.00 Z"/>
</g>
<g fill="None" fill-opacity="0.0" stroke="#FFFFFF" stroke-opacity="0.42" stroke-width="0.3"><path d="
M 952.00 881.00 
C 952.21 880.27 954.49 879.42 953.99 877.01 C 953.48 874.61 952.05 874.46 952.00 874.00
C 951.79 876.31 952.12 878.68 952.00 881.00 Z"/>
</g>
<g fill="None" fill-opacity="0.0" stroke="#FFFFFF" stroke-opacity="0.42" stroke-width="0.3"><path d="
M 1251.00 1009.00 
C 1255.58 999.61 1250.84 982.93 1253.00 971.00 C 1255.16 959.07 1252.60 942.35 1253.00 930.00 C 1253.40 917.65 1255.03 901.91 1251.00 891.00
C 1252.55 903.82 1250.72 918.13 1251.00 931.00 C 1251.28 943.87 1251.89 957.29 1251.00 970.00 C 1250.11 982.71 1253.65 996.64 1251.00 1009.00 Z"/>
</g>
<g fill="None" fill-opacity="0.0" stroke="#FFFFFF" stroke-opacity="0.48" stroke-width="0.3"><path d="
M 980.00 911.00 
C 980.20 908.98 980.95 905.74 981.00 903.00
C 980.91 903.37 978.08 904.88 979.00 907.00 C 979.93 909.11 979.87 909.66 980.00 911.00 Z"/>
</g>
<g fill="None" fill-opacity="0.0" stroke="#FFFFFF" stroke-opacity="0.31" stroke-width="0.3"><path d="
M 344.00 979.00 
C 344.45 974.35 344.46 968.72 344.00 964.00
C 343.55 968.65 343.54 974.28 344.00 979.00 Z"/>
</g>
<g fill="None" fill-opacity="0.0" stroke="#FFFFFF" stroke-opacity="0.31" stroke-width="0.3"><path d="
M 1330.00 979.00 
C 1330.45 974.35 1330.46 968.72 1330.00 964.00
C 1329.52 969.11 1329.54 974.21 1330.00 979.00 Z"/>
</g>
<g fill="None" fill-opacity="0.0" stroke="#FFFFFF" stroke-opacity="0.33" stroke-width="0.3"><path d="
M 553.00 999.00 
C 555.67 997.27 557.54 995.24 559.00 992.00
C 557.02 994.24 555.00 996.71 553.00 999.00 Z"/>
</g>
<g fill="None" fill-opacity="0.0" stroke="#FFFFFF" stroke-opacity="0.49" stroke-width="0.3"><path d="
M 469.00 1106.00 
C 474.49 1106.37 480.51 1106.37 486.00 1106.00
C 484.71 1105.81 480.36 1103.72 477.00 1104.00 C 473.64 1104.28 470.24 1105.82 469.00 1106.00 Z"/>
</g>
<g fill="None" fill-opacity="0.0" stroke="#FFFFFF" stroke-opacity="0.48" stroke-width="0.3"><path d="
M 1188.00 1106.00 
C 1193.16 1106.35 1198.84 1106.35 1204.00 1106.00
C 1202.85 1105.83 1199.20 1104.00 1196.00 1104.00 C 1192.80 1104.00 1189.10 1105.84 1188.00 1106.00 Z"/>
</g>
<g fill="None" fill-opacity="0.0" stroke="#FFFFFF" stroke-opacity="0.13" stroke-width="0.3"><path d="
M 496.00 1130.00 
C 495.71 1125.69 496.39 1121.30 496.00 1117.00
C 496.00 1117.00 495.00 1116.96 495.00 1117.00
C 494.58 1121.44 495.64 1126.27 496.00 1130.00 Z"/>
</g>
<g fill="None" fill-opacity="0.0" stroke="#FFFFFF" stroke-opacity="0.75" stroke-width="0.3"><path d="
M 496.00 1130.00 
C 496.28 1127.12 498.88 1119.79 496.00 1117.00
C 496.39 1121.30 495.71 1125.69 496.00 1130.00 Z"/>
</g>
<g fill="None" fill-opacity="0.0" stroke="#FFFFFF" stroke-opacity="0.75" stroke-width="0.3"><path d="
M 1178.00 1130.00 
C 1178.29 1125.69 1177.61 1121.30 1178.00 1117.00
C 1175.12 1119.78 1177.71 1127.00 1178.00 1130.00 Z"/>
</g>
<g fill="None" fill-opacity="0.0" stroke="#FFFFFF" stroke-opacity="0.13" stroke-width="0.3"><path d="
M 1178.00 1130.00 
C 1178.35 1126.34 1179.42 1121.44 1179.00 1117.00
C 1179.00 1117.00 1178.26 1116.75 1178.00 1117.00
C 1177.61 1121.30 1178.29 1125.69 1178.00 1130.00 Z"/>
</g>
<g fill="None" fill-opacity="0.0" stroke="#FFFFFF" stroke-opacity="0.25" stroke-width="0.3"><path d="
M 1088.00 1176.00 
C 1070.62 1179.11 1050.72 1175.51 1033.00 1176.00 C 1015.28 1176.49 995.65 1177.81 978.00 1176.00
C 987.47 1179.45 1002.08 1178.01 1014.00 1178.00 C 1025.92 1177.99 1040.16 1178.58 1052.00 1178.00 C 1063.84 1177.42 1078.84 1180.43 1088.00 1176.00 Z"/>
</g>
<g fill="None" fill-opacity="0.0" stroke="#FFFFFF" stroke-opacity="0.33" stroke-width="0.3"><path d="
M 751.00 1282.00 
C 752.07 1282.94 752.88 1283.27 754.00 1284.00
C 753.63 1283.59 751.84 1282.47 751.00 1282.00 Z"/>
</g>
<g fill="None" fill-opacity="0.0" stroke="#FFFFFF" stroke-opacity="0.33" stroke-width="0.3"><path d="
M 920.00 1284.00 
C 921.22 1283.21 921.83 1283.02 923.00 1282.00
C 922.25 1282.42 920.43 1283.52 920.00 1284.00 Z"/>
</g>
<g fill="#000000" fill-opacity="0.00" stroke="None">
<path d="
M 0.00 1529.00 
L 1674.00 1529.00
L 1674.00 0.00
L 0.00 0.00
L 0.00 1529.00
M 1179.00 399.00 
C 1179.38 403.08 1179.38 407.92 1179.00 412.00
C 1178.76 414.55 1177.95 417.11 1178.00 420.00
C 1178.03 421.57 1177.81 422.69 1177.00 424.00
C 1178.00 424.00 1179.00 424.00 1180.00 424.00
C 1203.76 417.15 1236.85 427.37 1257.08 436.92 C 1277.30 446.47 1293.54 461.27 1306.25 479.75 C 1318.97 498.22 1332.23 525.25 1330.00 549.00
C 1330.46 553.72 1330.45 559.35 1330.00 564.00
C 1332.68 591.69 1316.19 618.19 1303.00 640.00
C 1352.90 659.87 1385.78 709.93 1386.00 764.00 C 1386.22 818.07 1352.71 869.09 1303.00 889.00
C 1318.26 910.68 1329.45 936.43 1330.00 964.00
C 1330.46 968.72 1330.45 974.35 1330.00 979.00
C 1333.14 1011.45 1313.08 1043.51 1291.75 1066.75 C 1270.43 1089.99 1234.97 1103.89 1204.00 1106.00
C 1198.84 1106.35 1193.16 1106.35 1188.00 1106.00
C 1184.28 1105.75 1180.91 1104.55 1177.00 1105.00
C 1179.43 1108.53 1176.58 1113.48 1179.00 1117.00
C 1179.42 1121.44 1178.35 1126.34 1178.00 1130.00
C 1181.16 1162.62 1162.33 1193.22 1141.30 1216.30 C 1120.28 1239.38 1090.38 1253.93 1058.00 1257.00 C 1025.62 1260.07 986.60 1249.72 961.00 1230.00
C 953.41 1250.28 940.19 1268.13 923.00 1282.00
C 921.83 1283.02 921.22 1283.21 920.00 1284.00
C 903.35 1294.79 891.18 1304.10 870.98 1308.98 C 850.77 1313.85 824.22 1313.64 803.93 1309.07 C 783.64 1304.51 770.69 1294.83 754.00 1284.00
C 752.88 1283.27 752.07 1282.94 751.00 1282.00
C 734.20 1267.30 720.12 1250.71 713.00 1230.00
C 673.87 1260.77 612.47 1265.61 568.78 1243.22 C 525.08 1220.83 497.74 1178.87 496.00 1130.00
C 495.64 1126.27 494.58 1121.44 495.00 1117.00
C 495.35 1113.28 496.10 1108.66 497.00 1105.00
C 493.06 1104.32 489.79 1106.03 486.00 1106.00
C 480.51 1106.37 474.49 1106.37 469.00 1106.00
C 435.84 1103.74 406.67 1089.89 382.25 1066.75 C 357.83 1043.62 347.15 1011.58 344.00 979.00
C 343.54 974.28 343.55 968.65 344.00 964.00
C 341.36 936.76 358.05 910.45 371.00 889.00
C 327.89 869.80 296.01 832.42 289.01 783.99 C 282.00 735.57 303.99 681.14 345.00 654.00
C 345.61 653.63 346.45 653.37 347.00 653.00
C 354.45 647.92 362.71 643.49 371.00 640.00
C 355.73 618.22 344.70 592.63 344.00 565.00
C 343.51 559.96 343.52 553.97 344.00 549.00
C 341.79 525.49 354.71 498.76 367.30 480.30 C 379.90 461.84 396.03 446.93 416.25 437.25 C 436.46 427.56 470.11 417.11 494.00 424.00
C 494.97 423.84 496.02 424.13 497.00 424.00
C 496.07 422.86 495.92 421.45 496.00 420.00
C 496.05 417.06 495.24 414.60 495.00 412.00
C 494.62 407.92 494.62 403.08 495.00 399.00
C 499.54 350.61 523.90 308.13 568.03 286.03 C 612.16 263.92 673.66 267.13 713.00 299.00
C 731.70 248.34 783.35 216.00 837.00 216.00 C 890.65 216.00 942.29 248.34 961.00 299.00
C 999.91 267.29 1062.49 263.74 1106.08 285.92 C 1149.67 308.11 1175.38 350.69 1179.00 399.00 Z"/>
</g>
<g fill="#FFFFFF" fill-opacity="0.98" stroke="None">
<path d="
M 495.00 399.00 
C 495.00 398.96 496.00 399.00 496.00 399.00
C 497.88 400.82 497.82 410.23 496.00 412.00
C 495.74 412.25 495.00 412.00 495.00 412.00
C 495.24 414.60 496.05 417.06 496.00 420.00
C 496.19 420.80 499.72 421.93 498.00 425.00 C 496.28 428.07 494.47 424.13 494.00 424.00
C 470.11 417.11 436.46 427.56 416.25 437.25 C 396.03 446.93 379.90 461.84 367.30 480.30 C 354.71 498.76 341.79 525.49 344.00 549.00
C 344.52 554.50 344.51 559.52 344.00 565.00
C 344.70 592.63 355.73 618.22 371.00 640.00
C 362.71 643.49 354.45 647.92 347.00 653.00
C 347.08 652.92 345.78 658.28 343.00 657.00
C 343.30 655.75 344.83 655.29 345.00 654.00
C 303.99 681.14 282.00 735.57 289.01 783.99 C 296.01 832.42 327.89 869.80 371.00 889.00
C 358.05 910.45 341.36 936.76 344.00 964.00
C 344.46 968.72 344.45 974.35 344.00 979.00
C 347.15 1011.58 357.83 1043.62 382.25 1066.75 C 406.67 1089.89 435.84 1103.74 469.00 1106.00
C 470.24 1105.82 473.64 1104.28 477.00 1104.00 C 480.36 1103.72 484.71 1105.81 486.00 1106.00
C 489.79 1106.03 493.06 1104.32 497.00 1105.00
C 496.10 1108.66 495.35 1113.28 495.00 1117.00
C 495.00 1116.96 496.00 1117.00 496.00 1117.00
C 498.88 1119.79 496.28 1127.12 496.00 1130.00
C 497.74 1178.87 525.08 1220.83 568.78 1243.22 C 612.47 1265.61 673.87 1260.77 713.00 1230.00
C 720.12 1250.71 734.20 1267.30 751.00 1282.00
C 751.84 1282.47 753.63 1283.59 754.00 1284.00
C 770.69 1294.83 783.64 1304.51 803.93 1309.07 C 824.22 1313.64 850.77 1313.85 870.98 1308.98 C 891.18 1304.10 903.35 1294.79 920.00 1284.00
C 920.43 1283.52 922.25 1282.42 923.00 1282.00
C 940.19 1268.13 953.41 1250.28 961.00 1230.00
C 986.60 1249.72 1025.62 1260.07 1058.00 1257.00 C 1090.38 1253.93 1120.28 1239.38 1141.30 1216.30 C 1162.33 1193.22 1181.16 1162.62 1178.00 1130.00
C 1177.71 1127.00 1175.12 1119.78 1178.00 1117.00
C 1178.26 1116.75 1179.00 1117.00 1179.00 1117.00
C 1176.58 1113.48 1179.43 1108.53 1177.00 1105.00
C 1180.91 1104.55 1184.28 1105.75 1188.00 1106.00
C 1189.10 1105.84 1192.80 1104.00 1196.00 1104.00 C 1199.20 1104.00 1202.85 1105.83 1204.00 1106.00
C 1234.97 1103.89 1270.43 1089.99 1291.75 1066.75 C 1313.08 1043.51 1333.14 1011.45 1330.00 979.00
C 1329.54 974.21 1329.52 969.11 1330.00 964.00
C 1329.45 936.43 1318.26 910.68 1303.00 889.00
C 1352.71 869.09 1386.22 818.07 1386.00 764.00 C 1385.78 709.93 1352.90 659.87 1303.00 640.00
C 1316.19 618.19 1332.68 591.69 1330.00 564.00
C 1329.54 559.20 1329.52 554.11 1330.00 549.00
C 1332.23 525.25 1318.97 498.22 1306.25 479.75 C 1293.54 461.27 1277.30 446.47 1257.08 436.92 C 1236.85 427.37 1203.76 417.15 1180.00 424.00
C 1179.47 424.15 1177.77 428.14 1176.11 424.89 C 1174.45 421.64 1177.75 421.04 1178.00 420.00
C 1177.95 417.11 1178.76 414.55 1179.00 412.00
C 1179.00 412.04 1178.00 412.00 1178.00 412.00
C 1176.13 410.19 1176.17 400.76 1178.00 399.00
C 1178.26 398.75 1179.00 399.00 1179.00 399.00
C 1175.38 350.69 1149.67 308.11 1106.08 285.92 C 1062.49 263.74 999.91 267.29 961.00 299.00
C 942.29 248.34 890.65 216.00 837.00 216.00 C 783.35 216.00 731.70 248.34 713.00 299.00
C 673.66 267.13 612.16 263.92 568.03 286.03 C 523.90 308.13 499.54 350.61 495.00 399.00
M 904.00 313.00 
C 919.38 322.04 908.06 350.73 911.00 367.00 C 913.94 383.27 914.60 404.05 917.98 421.02 C 921.35 438.00 922.97 456.52 925.99 474.01 C 929.01 491.49 931.32 510.20 934.00 528.00 C 936.68 545.80 939.71 562.88 942.00 581.00 C 944.29 599.12 947.70 615.43 950.00 634.00 C 952.29 652.57 953.22 672.24 953.00 692.00 C 952.78 711.76 953.17 734.01 953.00 754.00
C 963.00 754.00 973.00 754.00 983.00 754.00
C 983.00 726.33 983.00 698.67 983.00 671.00
C 982.79 670.01 980.43 667.01 981.00 664.00 C 981.57 660.99 981.75 658.69 982.00 656.00
C 982.74 648.11 981.15 640.67 981.00 633.00
C 980.92 632.66 978.96 631.98 979.01 629.99 C 979.06 628.00 979.88 626.22 980.00 625.00
C 977.75 601.74 978.32 574.93 976.00 552.00 C 973.68 529.07 971.16 503.92 969.22 481.78 C 967.28 459.64 964.12 432.37 962.00 412.00 C 959.88 391.63 951.13 362.86 979.00 360.00
C 988.30 356.61 1002.24 358.05 1014.00 358.00 C 1025.76 357.95 1039.20 357.65 1051.00 358.00 C 1062.80 358.35 1077.67 356.16 1087.00 360.00
C 1104.69 362.36 1101.93 382.96 1102.00 398.00 C 1102.07 413.04 1101.85 434.42 1102.00 451.00 C 1102.15 467.58 1101.66 487.77 1102.00 505.00 C 1102.34 522.23 1101.24 540.51 1102.00 558.00 C 1102.76 575.49 1100.36 594.48 1102.00 612.00
C 1106.98 665.15 1103.00 721.26 1103.00 775.00 C 1103.00 828.74 1106.98 884.88 1102.00 938.00
C 1099.50 964.60 1103.92 995.73 1102.00 1022.00 C 1100.08 1048.27 1104.62 1081.22 1102.00 1106.00 C 1099.38 1130.78 1112.64 1164.09 1088.00 1176.00
C 1078.84 1180.43 1063.84 1177.42 1052.00 1178.00 C 1040.16 1178.58 1025.92 1177.99 1014.00 1178.00 C 1002.08 1178.01 987.47 1179.45 978.00 1176.00
C 950.39 1173.16 960.64 1144.14 961.99 1123.99 C 963.35 1103.84 968.41 1076.30 969.33 1054.33 C 970.25 1032.36 975.67 1006.68 975.98 983.98 C 976.29 961.28 982.21 933.87 980.00 911.00
C 979.87 909.66 979.93 909.11 979.00 907.00 C 978.08 904.88 980.91 903.37 981.00 903.00
C 981.15 895.36 982.74 887.87 982.00 880.00
C 981.75 877.31 981.59 875.03 981.00 872.00 C 980.41 868.97 982.78 866.06 983.00 865.00
C 983.00 856.12 983.11 844.61 983.00 836.00 C 982.89 827.39 983.29 814.65 983.00 807.00 C 982.71 799.35 985.81 781.80 978.00 782.00 C 970.18 782.20 954.66 777.73 953.01 786.01 C 951.36 794.29 953.64 806.94 953.00 816.00 C 952.36 825.06 952.99 835.62 953.00 845.00 C 953.01 854.38 952.83 864.92 952.00 874.00
C 952.05 874.46 953.48 874.61 953.99 877.01 C 954.49 879.42 952.21 880.27 952.00 881.00
C 951.61 888.92 950.71 897.99 950.00 906.00 C 949.29 914.01 947.01 922.03 946.00 930.00 C 944.99 937.98 943.15 945.53 942.67 953.67 C 942.19 961.81 939.57 969.59 938.67 977.67 C 937.77 985.75 935.77 993.04 935.22 1001.22 C 934.67 1009.41 932.58 1017.25 931.22 1025.22 C 929.86 1033.20 929.16 1042.04 928.02 1050.02 C 926.88 1058.01 925.76 1065.16 924.02 1073.02 C 922.29 1080.88 922.48 1090.07 921.00 1098.00 C 919.52 1105.94 918.58 1113.05 917.01 1121.01 C 915.44 1128.96 916.02 1138.10 914.00 1146.00 C 911.98 1153.90 910.76 1162.59 911.00 1171.00 C 911.24 1179.41 911.36 1190.13 911.00 1198.00 C 910.64 1205.87 913.33 1216.65 906.75 1221.75 C 900.17 1226.86 890.42 1223.12 882.00 1224.00 C 873.58 1224.88 862.89 1223.61 854.00 1224.00 C 845.11 1224.39 835.05 1223.84 826.00 1224.00 C 816.95 1224.16 808.14 1223.99 799.00 1224.00 C 789.86 1224.01 780.71 1224.46 771.78 1223.22 C 762.85 1221.99 762.81 1213.28 763.00 1205.00 C 763.20 1196.72 762.99 1185.38 763.00 1177.00 C 763.01 1168.62 764.41 1160.72 765.98 1152.98 C 767.54 1145.23 771.14 1138.78 771.99 1130.99 C 772.84 1123.20 775.99 1116.32 777.93 1108.93 C 779.86 1101.53 780.23 1094.12 782.98 1086.98 C 785.72 1079.84 786.02 1071.87 788.78 1064.78 C 791.53 1057.68 791.84 1050.25 793.98 1042.98 C 796.11 1035.70 798.48 1027.96 799.33 1020.33 C 800.18 1012.70 805.09 1006.54 805.93 998.93 C 806.77 991.31 808.95 984.30 810.98 976.98 C 813.00 969.65 813.99 961.90 816.78 954.78 C 819.56 947.65 819.70 940.31 821.98 932.98 C 824.26 925.64 826.32 918.45 827.78 910.78 C 829.24 903.11 832.24 896.29 833.33 888.33 C 834.42 880.37 834.06 870.38 834.00 862.00 C 833.94 853.62 834.25 842.08 834.00 834.00 C 833.75 825.92 834.64 813.96 834.00 807.00 C 833.36 800.04 836.75 783.79 830.97 782.03 C 825.19 780.26 807.43 780.56 805.00 784.00
C 803.44 787.85 807.29 796.51 806.00 802.00 C 804.71 807.49 806.46 815.03 806.00 821.00 C 805.54 826.97 805.95 833.81 806.00 840.00 C 806.05 846.19 805.39 852.67 806.00 859.00 C 806.61 865.33 805.41 872.71 804.00 877.00
C 803.13 887.95 798.06 898.36 794.68 908.68 C 791.30 919.00 787.33 929.63 784.02 940.03 C 780.72 950.42 775.56 959.83 772.22 970.22 C 768.89 980.61 765.42 991.07 761.23 1001.23 C 757.03 1011.39 754.51 1022.41 750.69 1032.69 C 746.87 1042.98 742.73 1052.64 739.08 1063.08 C 735.42 1073.52 731.82 1083.64 728.22 1094.22 C 724.63 1104.81 720.10 1113.96 717.07 1125.07 C 714.05 1136.19 708.53 1143.00 706.22 1155.22 C 703.92 1167.45 694.46 1174.35 681.00 1172.00 C 667.54 1169.65 651.35 1173.43 639.00 1172.00 C 626.65 1170.57 610.08 1175.70 603.08 1165.92 C 596.08 1156.13 593.12 1148.56 587.68 1139.32 C 582.24 1130.08 576.03 1122.23 571.75 1113.25 C 567.48 1104.26 557.43 1095.26 558.01 1084.99 C 558.59 1074.73 569.54 1067.40 573.25 1058.25 C 576.96 1049.10 584.33 1041.05 589.25 1032.25 C 594.18 1023.46 600.12 1015.65 605.30 1007.30 C 610.48 998.96 616.79 990.56 621.92 981.92 C 627.06 973.29 633.28 965.49 638.75 956.75 C 644.22 948.02 649.46 940.08 655.30 931.30 C 661.15 922.53 665.55 915.30 671.77 905.77 C 677.99 896.24 682.49 889.23 684.78 876.78 C 687.07 864.33 684.99 850.18 686.00 836.00 C 687.01 821.82 683.92 809.73 686.00 794.00 C 688.08 778.27 669.25 781.45 656.00 782.00
C 656.56 805.25 655.25 835.44 656.00 858.00 C 656.75 880.56 643.92 894.47 630.75 909.75 C 617.59 925.03 607.24 936.31 594.75 950.75 C 582.26 965.19 570.85 978.35 559.00 992.00
C 557.54 995.24 555.67 997.27 553.00 999.00
C 545.39 1007.74 537.07 1018.63 528.92 1025.92 C 520.76 1033.20 515.48 1050.40 502.92 1049.07 C 490.37 1047.74 479.98 1037.99 466.32 1034.68 C 452.66 1031.37 445.76 1023.80 429.98 1020.03 C 414.19 1016.25 420.04 997.87 421.98 983.98 C 423.91 970.09 426.40 952.81 427.33 938.33 C 428.25 923.85 433.96 912.79 447.08 907.08 C 460.20 901.38 467.31 894.20 478.75 887.75 C 490.19 881.30 499.71 875.07 510.69 868.69 C 521.68 862.32 534.33 855.89 537.00 843.00
C 536.71 794.01 536.71 741.92 537.00 693.00
C 534.17 679.36 520.55 673.74 509.25 666.75 C 497.95 659.75 487.20 652.94 474.92 646.08 C 462.65 639.21 456.04 632.54 441.75 625.25 C 427.47 617.95 428.56 602.06 426.00 586.00 C 423.45 569.94 424.11 554.37 419.67 537.33 C 415.23 520.29 429.19 515.88 443.68 510.68 C 458.17 505.47 468.69 501.39 483.07 495.07 C 497.45 488.75 507.22 483.40 519.00 498.00
C 520.34 498.96 521.20 500.56 522.00 502.00
C 534.26 515.15 545.50 529.88 557.75 543.25 C 570.00 556.62 581.13 569.67 593.75 584.25 C 606.37 598.83 616.79 609.79 629.75 625.25 C 642.71 640.71 655.97 653.30 656.00 676.00 C 656.03 698.70 655.98 730.47 656.00 754.00
C 669.35 754.51 687.94 757.79 686.00 742.00 C 684.06 726.21 686.75 714.28 686.00 700.00 C 685.25 685.72 686.77 672.16 684.22 659.78 C 681.67 647.40 678.24 639.42 671.70 630.30 C 665.17 621.18 661.45 613.33 655.23 604.77 C 649.01 596.22 644.61 587.79 638.70 579.30 C 632.78 570.81 627.09 562.10 621.68 553.32 C 616.27 544.54 609.74 537.03 604.75 528.25 C 599.76 519.46 592.93 511.43 588.23 502.77 C 583.53 494.11 576.04 485.75 572.23 476.77 C 568.42 467.79 557.20 459.15 558.01 448.99 C 558.82 438.83 568.59 430.67 572.77 421.77 C 576.95 412.87 583.73 403.95 587.98 394.98 C 592.22 386.00 600.64 377.88 604.00 368.00
C 607.85 360.39 621.38 363.08 631.00 363.00 C 640.62 362.92 656.18 362.52 666.00 363.00 C 675.82 363.48 691.40 360.70 697.00 365.00
C 709.77 374.81 709.94 396.17 716.99 411.01 C 724.04 425.85 728.32 444.53 734.78 460.22 C 741.23 475.92 746.56 493.50 752.33 509.67 C 758.10 525.84 764.80 542.26 770.31 558.69 C 775.81 575.13 782.80 591.68 787.78 608.22 C 792.75 624.76 802.60 641.39 804.00 659.00
C 805.35 663.11 806.58 669.81 806.00 676.00 C 805.42 682.19 806.03 688.86 806.00 695.00 C 805.97 701.14 805.49 708.03 806.00 714.00 C 806.51 719.97 804.61 727.45 806.00 733.00 C 807.39 738.55 803.41 748.09 805.00 752.00
C 809.41 758.24 826.58 751.48 834.00 754.00
C 834.45 733.38 833.40 710.38 834.00 690.00 C 834.60 669.62 834.51 648.09 829.02 629.98 C 823.54 611.86 820.48 596.01 815.68 578.32 C 810.88 560.64 806.99 543.88 802.67 526.33 C 798.36 508.78 793.28 492.24 789.22 474.78 C 785.17 457.31 780.03 440.14 776.22 422.78 C 772.41 405.42 765.18 387.80 764.00 370.00 C 762.82 352.20 757.73 325.75 770.00 313.00
C 777.97 308.60 791.26 311.52 802.00 311.00 C 812.74 310.48 826.08 310.95 837.00 311.00 C 847.92 311.05 860.29 310.29 871.00 311.00 C 881.71 311.71 896.05 308.33 904.00 313.00
M 1251.00 527.00 
C 1255.72 536.67 1250.04 552.87 1252.00 565.00 C 1253.96 577.13 1253.32 592.23 1253.00 605.00 C 1252.68 617.77 1255.20 633.62 1251.00 645.00
C 1250.57 648.52 1248.55 652.59 1247.00 656.00
C 1245.90 658.42 1243.18 660.91 1241.00 662.00
C 1235.16 666.79 1227.41 668.67 1220.97 672.97 C 1214.54 677.28 1207.77 680.92 1200.92 684.92 C 1194.07 688.91 1187.48 692.12 1180.30 696.30 C 1173.13 700.49 1167.66 703.36 1159.77 707.77 C 1151.89 712.18 1149.41 714.09 1139.92 718.92 C 1130.42 723.74 1131.39 708.57 1132.00 699.00 C 1132.61 689.43 1131.74 677.15 1132.00 667.00 C 1132.26 656.85 1131.93 645.39 1132.00 635.00 C 1132.07 624.61 1132.08 614.57 1132.00 604.00 C 1131.92 593.43 1132.27 582.78 1132.00 572.00 C 1131.73 561.22 1132.65 551.06 1132.00 540.00 C 1131.35 528.94 1133.46 519.61 1132.00 508.00 C 1130.54 496.39 1138.81 493.77 1148.22 496.78 C 1157.63 499.79 1164.79 501.55 1174.00 503.00 C 1183.22 504.44 1190.28 508.40 1199.22 509.78 C 1208.17 511.16 1216.36 514.12 1225.02 515.98 C 1233.69 517.83 1241.95 519.25 1250.00 523.00
C 1250.28 524.28 1249.24 526.50 1251.00 527.00
M 1251.00 709.00 
C 1265.07 718.85 1280.36 726.85 1294.70 736.30 C 1309.04 745.76 1325.89 753.96 1338.00 765.00
C 1308.86 782.63 1279.51 800.82 1251.00 819.00
C 1239.23 811.99 1228.81 807.02 1216.77 800.23 C 1204.73 793.44 1195.83 787.22 1182.78 781.22 C 1169.73 775.22 1147.33 779.01 1132.00 778.00
C 1132.00 768.67 1132.00 759.33 1132.00 750.00
C 1146.96 748.62 1169.14 753.07 1182.23 747.23 C 1195.32 741.39 1204.08 734.63 1216.23 728.23 C 1228.38 721.83 1238.93 715.82 1251.00 709.00
M 506.00 748.00 
C 506.66 748.47 508.27 747.62 509.00 748.00
C 509.00 759.00 509.00 770.00 509.00 781.00
C 507.46 780.63 506.60 782.43 505.00 782.00
C 490.32 788.26 479.74 795.35 465.92 804.92 C 452.11 814.50 434.16 818.74 415.00 816.00 C 395.84 813.26 373.21 819.69 355.00 814.00
C 361.31 807.46 364.66 801.13 371.75 794.75 C 378.84 788.38 380.99 781.19 388.92 774.92 C 396.84 768.65 397.46 760.47 389.25 753.75 C 381.04 747.03 378.78 740.61 371.90 734.10 C 365.02 727.59 360.35 721.20 355.00 714.00
C 374.04 710.80 396.82 714.84 416.00 713.00 C 435.18 711.16 452.90 713.16 466.75 724.25 C 480.60 735.34 492.82 737.95 506.00 748.00
M 1251.00 891.00 
C 1255.03 901.91 1253.40 917.65 1253.00 930.00 C 1252.60 942.35 1255.16 959.07 1253.00 971.00 C 1250.84 982.93 1255.58 999.61 1251.00 1009.00
C 1245.89 1019.48 1233.17 1017.05 1222.93 1020.93 C 1212.68 1024.80 1200.48 1025.17 1189.98 1028.98 C 1179.47 1032.78 1167.61 1033.13 1156.99 1036.99 C 1146.38 1040.85 1130.89 1044.42 1132.00 1029.00 C 1133.11 1013.58 1131.54 1002.51 1132.00 988.00 C 1132.46 973.49 1131.88 961.15 1132.00 947.00 C 1132.12 932.85 1132.15 920.12 1132.00 906.00 C 1131.85 891.88 1132.53 880.52 1132.00 866.00 C 1131.47 851.48 1133.23 840.54 1132.00 825.00 C 1130.77 809.46 1144.24 819.96 1153.23 824.77 C 1162.22 829.59 1170.30 835.00 1179.25 839.75 C 1188.19 844.51 1196.56 849.54 1205.25 854.75 C 1213.93 859.97 1223.01 864.02 1231.70 869.30 C 1240.38 874.58 1249.68 880.11 1251.00 891.00 Z"/>
</g>
<g fill="#FFFFFF" fill-opacity="0.20" stroke="None">
<path d="
M 770.00 313.00 
C 783.79 309.95 799.76 313.72 814.00 313.00 C 828.24 312.28 844.73 312.01 859.00 313.00 C 873.27 313.99 890.19 309.63 904.00 313.00
C 896.05 308.33 881.71 311.71 871.00 311.00 C 860.29 310.29 847.92 311.05 837.00 311.00 C 826.08 310.95 812.74 310.48 802.00 311.00 C 791.26 311.52 777.97 308.60 770.00 313.00 Z"/>
</g>
<g fill="#000000" fill-opacity="0.00" stroke="None">
<path d="
M 805.00 752.00 
C 799.90 744.79 805.71 731.22 804.00 722.00 C 802.29 712.78 804.92 700.87 804.00 691.00 C 803.08 681.13 804.80 669.06 804.00 659.00
C 802.60 641.39 792.75 624.76 787.78 608.22 C 782.80 591.68 775.81 575.13 770.31 558.69 C 764.80 542.26 758.10 525.84 752.33 509.67 C 746.56 493.50 741.23 475.92 734.78 460.22 C 728.32 444.53 724.04 425.85 716.99 411.01 C 709.94 396.17 709.77 374.81 697.00 365.00
C 687.58 362.67 674.61 365.63 665.00 365.00 C 655.39 364.37 642.11 364.35 633.00 365.00 C 623.89 365.65 610.55 361.32 604.00 368.00
C 600.64 377.88 592.22 386.00 587.98 394.98 C 583.73 403.95 576.95 412.87 572.77 421.77 C 568.59 430.67 558.82 438.83 558.01 448.99 C 557.20 459.15 568.42 467.79 572.23 476.77 C 576.04 485.75 583.53 494.11 588.23 502.77 C 592.93 511.43 599.76 519.46 604.75 528.25 C 609.74 537.03 616.27 544.54 621.68 553.32 C 627.09 562.10 632.78 570.81 638.70 579.30 C 644.61 587.79 649.01 596.22 655.23 604.77 C 661.45 613.33 665.17 621.18 671.70 630.30 C 678.24 639.42 681.67 647.40 684.22 659.78 C 686.77 672.16 685.25 685.72 686.00 700.00 C 686.75 714.28 684.06 726.21 686.00 742.00 C 687.94 757.79 669.35 754.51 656.00 754.00
C 655.98 730.47 656.03 698.70 656.00 676.00 C 655.97 653.30 642.71 640.71 629.75 625.25 C 616.79 609.79 606.37 598.83 593.75 584.25 C 581.13 569.67 570.00 556.62 557.75 543.25 C 545.50 529.88 534.26 515.15 522.00 502.00
C 520.75 500.66 519.97 499.21 519.00 498.00
C 507.22 483.40 497.45 488.75 483.07 495.07 C 468.69 501.39 458.17 505.47 443.68 510.68 C 429.19 515.88 415.23 520.29 419.67 537.33 C 424.11 554.37 423.45 569.94 426.00 586.00 C 428.56 602.06 427.47 617.95 441.75 625.25 C 456.04 632.54 462.65 639.21 474.92 646.08 C 487.20 652.94 497.95 659.75 509.25 666.75 C 520.55 673.74 534.17 679.36 537.00 693.00
C 541.71 715.73 537.99 744.18 538.00 768.00 C 538.01 791.82 541.69 820.34 537.00 843.00
C 534.33 855.89 521.68 862.32 510.69 868.69 C 499.71 875.07 490.19 881.30 478.75 887.75 C 467.31 894.20 460.20 901.38 447.08 907.08 C 433.96 912.79 428.25 923.85 427.33 938.33 C 426.40 952.81 423.91 970.09 421.98 983.98 C 420.04 997.87 414.19 1016.25 429.98 1020.03 C 445.76 1023.80 452.66 1031.37 466.32 1034.68 C 479.98 1037.99 490.37 1047.74 502.92 1049.07 C 515.48 1050.40 520.76 1033.20 528.92 1025.92 C 537.07 1018.63 545.39 1007.74 553.00 999.00
C 555.00 996.71 557.02 994.24 559.00 992.00
C 570.85 978.35 582.26 965.19 594.75 950.75 C 607.24 936.31 617.59 925.03 630.75 909.75 C 643.92 894.47 656.75 880.56 656.00 858.00 C 655.25 835.44 656.56 805.25 656.00 782.00
C 669.25 781.45 688.08 778.27 686.00 794.00 C 683.92 809.73 687.01 821.82 686.00 836.00 C 684.99 850.18 687.07 864.33 684.78 876.78 C 682.49 889.23 677.99 896.24 671.77 905.77 C 665.55 915.30 661.15 922.53 655.30 931.30 C 649.46 940.08 644.22 948.02 638.75 956.75 C 633.28 965.49 627.06 973.29 621.92 981.92 C 616.79 990.56 610.48 998.96 605.30 1007.30 C 600.12 1015.65 594.18 1023.46 589.25 1032.25 C 584.33 1041.05 576.96 1049.10 573.25 1058.25 C 569.54 1067.40 558.59 1074.73 558.01 1084.99 C 557.43 1095.26 567.48 1104.26 571.75 1113.25 C 576.03 1122.23 582.24 1130.08 587.68 1139.32 C 593.12 1148.56 596.08 1156.13 603.08 1165.92 C 610.08 1175.70 626.65 1170.57 639.00 1172.00 C 651.35 1173.43 667.54 1169.65 681.00 1172.00 C 694.46 1174.35 703.92 1167.45 706.22 1155.22 C 708.53 1143.00 714.05 1136.19 717.07 1125.07 C 720.10 1113.96 724.63 1104.81 728.22 1094.22 C 731.82 1083.64 735.42 1073.52 739.08 1063.08 C 742.73 1052.64 746.87 1042.98 750.69 1032.69 C 754.51 1022.41 757.03 1011.39 761.23 1001.23 C 765.42 991.07 768.89 980.61 772.22 970.22 C 775.56 959.83 780.72 950.42 784.02 940.03 C 787.33 929.63 791.30 919.00 794.68 908.68 C 798.06 898.36 803.13 887.95 804.00 877.00
C 804.79 867.11 803.04 855.75 804.00 846.00 C 804.96 836.25 802.22 824.22 804.00 815.00 C 805.78 805.78 799.87 791.25 805.00 784.00
C 807.43 780.56 825.19 780.26 830.97 782.03 C 836.75 783.79 833.36 800.04 834.00 807.00 C 834.64 813.96 833.75 825.92 834.00 834.00 C 834.25 842.08 833.94 853.62 834.00 862.00 C 834.06 870.38 834.42 880.37 833.33 888.33 C 832.24 896.29 829.24 903.11 827.78 910.78 C 826.32 918.45 824.26 925.64 821.98 932.98 C 819.70 940.31 819.56 947.65 816.78 954.78 C 813.99 961.90 813.00 969.65 810.98 976.98 C 808.95 984.30 806.77 991.31 805.93 998.93 C 805.09 1006.54 800.18 1012.70 799.33 1020.33 C 798.48 1027.96 796.11 1035.70 793.98 1042.98 C 791.84 1050.25 791.53 1057.68 788.78 1064.78 C 786.02 1071.87 785.72 1079.84 782.98 1086.98 C 780.23 1094.12 779.86 1101.53 777.93 1108.93 C 775.99 1116.32 772.84 1123.20 771.99 1130.99 C 771.14 1138.78 767.54 1145.23 765.98 1152.98 C 764.41 1160.72 763.01 1168.62 763.00 1177.00 C 762.99 1185.38 763.20 1196.72 763.00 1205.00 C 762.81 1213.28 762.85 1221.99 771.78 1223.22 C 780.71 1224.46 789.86 1224.01 799.00 1224.00 C 808.14 1223.99 816.95 1224.16 826.00 1224.00 C 835.05 1223.84 845.11 1224.39 854.00 1224.00 C 862.89 1223.61 873.58 1224.88 882.00 1224.00 C 890.42 1223.12 900.17 1226.86 906.75 1221.75 C 913.33 1216.65 910.64 1205.87 911.00 1198.00 C 911.36 1190.13 911.24 1179.41 911.00 1171.00 C 910.76 1162.59 911.98 1153.90 914.00 1146.00 C 916.02 1138.10 915.44 1128.96 917.01 1121.01 C 918.58 1113.05 919.52 1105.94 921.00 1098.00 C 922.48 1090.07 922.29 1080.88 924.02 1073.02 C 925.76 1065.16 926.88 1058.01 928.02 1050.02 C 929.16 1042.04 929.86 1033.20 931.22 1025.22 C 932.58 1017.25 934.67 1009.41 935.22 1001.22 C 935.77 993.04 937.77 985.75 938.67 977.67 C 939.57 969.59 942.19 961.81 942.67 953.67 C 943.15 945.53 944.99 937.98 946.00 930.00 C 947.01 922.03 949.29 914.01 950.00 906.00 C 950.71 897.99 951.61 888.92 952.00 881.00
C 952.12 878.68 951.79 876.31 952.00 874.00
C 952.83 864.92 953.01 854.38 953.00 845.00 C 952.99 835.62 952.36 825.06 953.00 816.00 C 953.64 806.94 951.36 794.29 953.01 786.01 C 954.66 777.73 970.18 782.20 978.00 782.00 C 985.81 781.80 982.71 799.35 983.00 807.00 C 983.29 814.65 982.89 827.39 983.00 836.00 C 983.11 844.61 983.00 856.12 983.00 865.00
C 983.00 870.06 982.42 875.68 982.00 880.00
C 982.74 887.87 981.15 895.36 981.00 903.00
C 980.95 905.74 980.20 908.98 980.00 911.00
C 982.21 933.87 976.29 961.28 975.98 983.98 C 975.67 1006.68 970.25 1032.36 969.33 1054.33 C 968.41 1076.30 963.35 1103.84 961.99 1123.99 C 960.64 1144.14 950.39 1173.16 978.00 1176.00
C 995.65 1177.81 1015.28 1176.49 1033.00 1176.00 C 1050.72 1175.51 1070.62 1179.11 1088.00 1176.00
C 1112.64 1164.09 1099.38 1130.78 1102.00 1106.00 C 1104.62 1081.22 1100.08 1048.27 1102.00 1022.00 C 1103.92 995.73 1099.50 964.60 1102.00 938.00
C 1096.90 885.30 1101.00 828.64 1101.00 775.00 C 1101.00 721.36 1096.91 664.63 1102.00 612.00
C 1100.36 594.48 1102.76 575.49 1102.00 558.00 C 1101.24 540.51 1102.34 522.23 1102.00 505.00 C 1101.66 487.77 1102.15 467.58 1102.00 451.00 C 1101.85 434.42 1102.07 413.04 1102.00 398.00 C 1101.93 382.96 1104.69 362.36 1087.00 360.00
C 1069.60 357.68 1050.58 360.20 1033.00 360.00 C 1015.42 359.80 996.49 358.20 979.00 360.00
C 951.13 362.86 959.88 391.63 962.00 412.00 C 964.12 432.37 967.28 459.64 969.22 481.78 C 971.16 503.92 973.68 529.07 976.00 552.00 C 978.32 574.93 977.75 601.74 980.00 625.00
C 980.20 627.07 980.95 630.27 981.00 633.00
C 981.15 640.67 982.74 648.11 982.00 656.00
C 982.42 660.39 983.00 665.93 983.00 671.00
C 983.00 698.67 983.00 726.33 983.00 754.00
C 973.00 754.00 963.00 754.00 953.00 754.00
C 953.17 734.01 952.78 711.76 953.00 692.00 C 953.22 672.24 952.29 652.57 950.00 634.00 C 947.70 615.43 944.29 599.12 942.00 581.00 C 939.71 562.88 936.68 545.80 934.00 528.00 C 931.32 510.20 929.01 491.49 925.99 474.01 C 922.97 456.52 921.35 438.00 917.98 421.02 C 914.60 404.05 913.94 383.27 911.00 367.00 C 908.06 350.73 919.38 322.04 904.00 313.00
C 890.19 309.63 873.27 313.99 859.00 313.00 C 844.73 312.01 828.24 312.28 814.00 313.00 C 799.76 313.72 783.79 309.95 770.00 313.00
C 757.73 325.75 762.82 352.20 764.00 370.00 C 765.18 387.80 772.41 405.42 776.22 422.78 C 780.03 440.14 785.17 457.31 789.22 474.78 C 793.28 492.24 798.36 508.78 802.67 526.33 C 806.99 543.88 810.88 560.64 815.68 578.32 C 820.48 596.01 823.54 611.86 829.02 629.98 C 834.51 648.09 834.60 669.62 834.00 690.00 C 833.40 710.38 834.45 733.38 834.00 754.00
C 826.58 751.48 809.41 758.24 805.00 752.00 Z"/>
</g>
<g fill="#FFFFFF" fill-opacity="0.34" stroke="None">
<path d="
M 979.00 360.00 
C 996.49 358.20 1015.42 359.80 1033.00 360.00 C 1050.58 360.20 1069.60 357.68 1087.00 360.00
C 1077.67 356.16 1062.80 358.35 1051.00 358.00 C 1039.20 357.65 1025.76 357.95 1014.00 358.00 C 1002.24 358.05 988.30 356.61 979.00 360.00 Z"/>
</g>
<g fill="#FFFFFF" fill-opacity="0.37" stroke="None">
<path d="
M 604.00 368.00 
C 610.55 361.32 623.89 365.65 633.00 365.00 C 642.11 364.35 655.39 364.37 665.00 365.00 C 674.61 365.63 687.58 362.67 697.00 365.00
C 691.40 360.70 675.82 363.48 666.00 363.00 C 656.18 362.52 640.62 362.92 631.00 363.00 C 621.38 363.08 607.85 360.39 604.00 368.00 Z"/>
</g>
<g fill="#FFFFFF" fill-opacity="0.13" stroke="None">
<path d="
M 495.00 412.00 
C 495.00 412.00 495.74 412.25 496.00 412.00
C 496.37 407.90 496.37 403.10 496.00 399.00
C 496.00 399.00 495.00 398.96 495.00 399.00
C 494.62 403.08 494.62 407.92 495.00 412.00 Z"/>
</g>
<g fill="#FFFFFF" fill-opacity="0.75" stroke="None">
<path d="
M 496.00 412.00 
C 497.82 410.23 497.88 400.82 496.00 399.00
C 496.37 403.10 496.37 407.90 496.00 412.00 Z"/>
</g>
<g fill="#FFFFFF" fill-opacity="0.75" stroke="None">
<path d="
M 1178.00 412.00 
C 1177.64 407.89 1177.63 403.10 1178.00 399.00
C 1176.17 400.76 1176.13 410.19 1178.00 412.00 Z"/>
</g>
<g fill="#FFFFFF" fill-opacity="0.13" stroke="None">
<path d="
M 1178.00 412.00 
C 1178.00 412.00 1179.00 412.04 1179.00 412.00
C 1179.38 407.92 1179.38 403.08 1179.00 399.00
C 1179.00 399.00 1178.26 398.75 1178.00 399.00
C 1177.63 403.10 1177.64 407.89 1178.00 412.00 Z"/>
</g>
<g fill="#FFFFFF" fill-opacity="0.60" stroke="None">
<path d="
M 494.00 424.00 
C 494.47 424.13 496.28 428.07 498.00 425.00 C 499.72 421.93 496.19 420.80 496.00 420.00
C 495.92 421.45 496.07 422.86 497.00 424.00
C 496.02 424.13 494.97 423.84 494.00 424.00 Z"/>
</g>
<g fill="#FFFFFF" fill-opacity="0.60" stroke="None">
<path d="
M 1180.00 424.00 
C 1179.00 424.00 1178.00 424.00 1177.00 424.00
C 1177.81 422.69 1178.03 421.57 1178.00 420.00
C 1177.75 421.04 1174.45 421.64 1176.11 424.89 C 1177.77 428.14 1179.47 424.15 1180.00 424.00 Z"/>
</g>
<g fill="#000000" fill-opacity="0.00" stroke="None">
<path d="
M 1241.00 662.00 
C 1242.62 660.67 1245.78 657.59 1247.00 656.00
C 1248.55 652.59 1250.57 648.52 1251.00 645.00
C 1252.53 632.32 1250.79 618.79 1251.00 606.00 C 1251.21 593.21 1251.97 579.77 1251.00 567.00 C 1250.04 554.23 1253.68 539.49 1251.00 527.00
C 1249.24 526.50 1250.28 524.28 1250.00 523.00
C 1241.95 519.25 1233.69 517.83 1225.02 515.98 C 1216.36 514.12 1208.17 511.16 1199.22 509.78 C 1190.28 508.40 1183.22 504.44 1174.00 503.00 C 1164.79 501.55 1157.63 499.79 1148.22 496.78 C 1138.81 493.77 1130.54 496.39 1132.00 508.00 C 1133.46 519.61 1131.35 528.94 1132.00 540.00 C 1132.65 551.06 1131.73 561.22 1132.00 572.00 C 1132.27 582.78 1131.92 593.43 1132.00 604.00 C 1132.08 614.57 1132.07 624.61 1132.00 635.00 C 1131.93 645.39 1132.26 656.85 1132.00 667.00 C 1131.74 677.15 1132.61 689.43 1132.00 699.00 C 1131.39 708.57 1130.42 723.74 1139.92 718.92 C 1149.41 714.09 1151.89 712.18 1159.77 707.77 C 1167.66 703.36 1173.13 700.49 1180.30 696.30 C 1187.48 692.12 1194.07 688.91 1200.92 684.92 C 1207.77 680.92 1214.54 677.28 1220.97 672.97 C 1227.41 668.67 1235.16 666.79 1241.00 662.00 Z"/>
</g>
<g fill="#FFFFFF" fill-opacity="0.35" stroke="None">
<path d="
M 519.00 498.00 
C 519.97 499.21 520.75 500.66 522.00 502.00
C 521.20 500.56 520.34 498.96 519.00 498.00 Z"/>
</g>
<g fill="#FFFFFF" fill-opacity="0.41" stroke="None">
<path d="
M 1251.00 645.00 
C 1255.20 633.62 1252.68 617.77 1253.00 605.00 C 1253.32 592.23 1253.96 577.13 1252.00 565.00 C 1250.04 552.87 1255.72 536.67 1251.00 527.00
C 1253.68 539.49 1250.04 554.23 1251.00 567.00 C 1251.97 579.77 1251.21 593.21 1251.00 606.00 C 1250.79 618.79 1252.53 632.32 1251.00 645.00 Z"/>
</g>
<g fill="#FFFFFF" fill-opacity="0.30" stroke="None">
<path d="
M 344.00 565.00 
C 344.51 559.52 344.52 554.50 344.00 549.00
C 343.52 553.97 343.51 559.96 344.00 565.00 Z"/>
</g>
<g fill="#FFFFFF" fill-opacity="0.31" stroke="None">
<path d="
M 1330.00 564.00 
C 1330.45 559.35 1330.46 553.72 1330.00 549.00
C 1329.52 554.11 1329.54 559.20 1330.00 564.00 Z"/>
</g>
<g fill="#FFFFFF" fill-opacity="0.28" stroke="None">
<path d="
M 1102.00 938.00 
C 1106.98 884.88 1103.00 828.74 1103.00 775.00 C 1103.00 721.26 1106.98 665.15 1102.00 612.00
C 1096.91 664.63 1101.00 721.36 1101.00 775.00 C 1101.00 828.64 1096.90 885.30 1102.00 938.00 Z"/>
</g>
<g fill="#FFFFFF" fill-opacity="0.47" stroke="None">
<path d="
M 981.00 633.00 
C 980.95 630.27 980.20 627.07 980.00 625.00
C 979.88 626.22 979.06 628.00 979.01 629.99 C 978.96 631.98 980.92 632.66 981.00 633.00 Z"/>
</g>
<g fill="#FFFFFF" fill-opacity="0.40" stroke="None">
<path d="
M 345.00 654.00 
C 344.83 655.29 343.30 655.75 343.00 657.00
C 345.78 658.28 347.08 652.92 347.00 653.00
C 346.45 653.37 345.61 653.63 345.00 654.00 Z"/>
</g>
<g fill="#FFFFFF" fill-opacity="0.33" stroke="None">
<path d="
M 983.00 671.00 
C 983.00 665.93 982.42 660.39 982.00 656.00
C 981.75 658.69 981.57 660.99 981.00 664.00 C 980.43 667.01 982.79 670.01 983.00 671.00 Z"/>
</g>
<g fill="#FFFFFF" fill-opacity="0.23" stroke="None">
<path d="
M 1241.00 662.00 
C 1243.18 660.91 1245.90 658.42 1247.00 656.00
C 1245.78 657.59 1242.62 660.67 1241.00 662.00 Z"/>
</g>
<g fill="#FFFFFF" fill-opacity="0.55" stroke="None">
<path d="
M 805.00 752.00 
C 803.41 748.09 807.39 738.55 806.00 733.00 C 804.61 727.45 806.51 719.97 806.00 714.00 C 805.49 708.03 805.97 701.14 806.00 695.00 C 806.03 688.86 805.42 682.19 806.00 676.00 C 806.58 669.81 805.35 663.11 804.00 659.00
C 804.80 669.06 803.08 681.13 804.00 691.00 C 804.92 700.87 802.29 712.78 804.00 722.00 C 805.71 731.22 799.90 744.79 805.00 752.00 Z"/>
</g>
<g fill="#FFFFFF" fill-opacity="0.45" stroke="None">
<path d="
M 537.00 843.00 
C 541.69 820.34 538.01 791.82 538.00 768.00 C 537.99 744.18 541.71 715.73 537.00 693.00
C 536.71 741.92 536.71 794.01 537.00 843.00 Z"/>
</g>
<g fill="#000000" fill-opacity="0.00" stroke="None">
<path d="
M 1251.00 709.00 
C 1238.93 715.82 1228.38 721.83 1216.23 728.23 C 1204.08 734.63 1195.32 741.39 1182.23 747.23 C 1169.14 753.07 1146.96 748.62 1132.00 750.00
C 1132.00 759.33 1132.00 768.67 1132.00 778.00
C 1147.33 779.01 1169.73 775.22 1182.78 781.22 C 1195.83 787.22 1204.73 793.44 1216.77 800.23 C 1228.81 807.02 1239.23 811.99 1251.00 819.00
C 1279.51 800.82 1308.86 782.63 1338.00 765.00
C 1325.89 753.96 1309.04 745.76 1294.70 736.30 C 1280.36 726.85 1265.07 718.85 1251.00 709.00 Z"/>
</g>
<g fill="#000000" fill-opacity="0.00" stroke="None">
<path d="
M 505.00 782.00 
C 508.70 778.96 507.25 770.56 507.00 766.00 C 506.75 761.44 508.77 751.91 506.00 748.00
C 492.82 737.95 480.60 735.34 466.75 724.25 C 452.90 713.16 435.18 711.16 416.00 713.00 C 396.82 714.84 374.04 710.80 355.00 714.00
C 360.35 721.20 365.02 727.59 371.90 734.10 C 378.78 740.61 381.04 747.03 389.25 753.75 C 397.46 760.47 396.84 768.65 388.92 774.92 C 380.99 781.19 378.84 788.38 371.75 794.75 C 364.66 801.13 361.31 807.46 355.00 814.00
C 373.21 819.69 395.84 813.26 415.00 816.00 C 434.16 818.74 452.11 814.50 465.92 804.92 C 479.74 795.35 490.32 788.26 505.00 782.00 Z"/>
</g>
<g fill="#FFFFFF" fill-opacity="0.33" stroke="None">
<path d="
M 505.00 782.00 
C 506.60 782.43 507.46 780.63 509.00 781.00
C 509.00 770.00 509.00 759.00 509.00 748.00
C 508.27 747.62 506.66 748.47 506.00 748.00
C 508.77 751.91 506.75 761.44 507.00 766.00 C 507.25 770.56 508.70 778.96 505.00 782.00 Z"/>
</g>
<g fill="#FFFFFF" fill-opacity="0.55" stroke="None">
<path d="
M 804.00 877.00 
C 805.41 872.71 806.61 865.33 806.00 859.00 C 805.39 852.67 806.05 846.19 806.00 840.00 C 805.95 833.81 805.54 826.97 806.00 821.00 C 806.46 815.03 804.71 807.49 806.00 802.00 C 807.29 796.51 803.44 787.85 805.00 784.00
C 799.87 791.25 805.78 805.78 804.00 815.00 C 802.22 824.22 804.96 836.25 804.00 846.00 C 803.04 855.75 804.79 867.11 804.00 877.00 Z"/>
</g>
<g fill="#000000" fill-opacity="0.00" stroke="None">
<path d="
M 1251.00 1009.00 
C 1253.65 996.64 1250.11 982.71 1251.00 970.00 C 1251.89 957.29 1251.28 943.87 1251.00 931.00 C 1250.72 918.13 1252.55 903.82 1251.00 891.00
C 1249.68 880.11 1240.38 874.58 1231.70 869.30 C 1223.01 864.02 1213.93 859.97 1205.25 854.75 C 1196.56 849.54 1188.19 844.51 1179.25 839.75 C 1170.30 835.00 1162.22 829.59 1153.23 824.77 C 1144.24 819.96 1130.77 809.46 1132.00 825.00 C 1133.23 840.54 1131.47 851.48 1132.00 866.00 C 1132.53 880.52 1131.85 891.88 1132.00 906.00 C 1132.15 920.12 1132.12 932.85 1132.00 947.00 C 1131.88 961.15 1132.46 973.49 1132.00 988.00 C 1131.54 1002.51 1133.11 1013.58 1132.00 1029.00 C 1130.89 1044.42 1146.38 1040.85 1156.99 1036.99 C 1167.61 1033.13 1179.47 1032.78 1189.98 1028.98 C 1200.48 1025.17 1212.68 1024.80 1222.93 1020.93 C 1233.17 1017.05 1245.89 1019.48 1251.00 1009.00 Z"/>
</g>
<g fill="#FFFFFF" fill-opacity="0.33" stroke="None">
<path d="
M 982.00 880.00 
C 982.42 875.68 983.00 870.06 983.00 865.00
C 982.78 866.06 980.41 868.97 981.00 872.00 C 981.59 875.03 981.75 877.31 982.00 880.00 Z"/>
</g>
<g fill="#FFFFFF" fill-opacity="0.42" stroke="None">
<path d="
M 952.00 881.00 
C 952.21 880.27 954.49 879.42 953.99 877.01 C 953.48 874.61 952.05 874.46 952.00 874.00
C 951.79 876.31 952.12 878.68 952.00 881.00 Z"/>
</g>
<g fill="#FFFFFF" fill-opacity="0.42" stroke="None">
<path d="
M 1251.00 1009.00 
C 1255.58 999.61 1250.84 982.93 1253.00 971.00 C 1255.16 959.07 1252.60 942.35 1253.00 930.00 C 1253.40 917.65 1255.03 901.91 1251.00 891.00
C 1252.55 903.82 1250.72 918.13 1251.00 931.00 C 1251.28 943.87 1251.89 957.29 1251.00 970.00 C 1250.11 982.71 1253.65 996.64 1251.00 1009.00 Z"/>
</g>
<g fill="#FFFFFF" fill-opacity="0.48" stroke="None">
<path d="
M 980.00 911.00 
C 980.20 908.98 980.95 905.74 981.00 903.00
C 980.91 903.37 978.08 904.88 979.00 907.00 C 979.93 909.11 979.87 909.66 980.00 911.00 Z"/>
</g>
<g fill="#FFFFFF" fill-opacity="0.31" stroke="None">
<path d="
M 344.00 979.00 
C 344.45 974.35 344.46 968.72 344.00 964.00
C 343.55 968.65 343.54 974.28 344.00 979.00 Z"/>
</g>
<g fill="#FFFFFF" fill-opacity="0.31" stroke="None">
<path d="
M 1330.00 979.00 
C 1330.45 974.35 1330.46 968.72 1330.00 964.00
C 1329.52 969.11 1329.54 974.21 1330.00 979.00 Z"/>
</g>
<g fill="#FFFFFF" fill-opacity="0.33" stroke="None">
<path d="
M 553.00 999.00 
C 555.67 997.27 557.54 995.24 559.00 992.00
C 557.02 994.24 555.00 996.71 553.00 999.00 Z"/>
</g>
<g fill="#FFFFFF" fill-opacity="0.49" stroke="None">
<path d="
M 469.00 1106.00 
C 474.49 1106.37 480.51 1106.37 486.00 1106.00
C 484.71 1105.81 480.36 1103.72 477.00 1104.00 C 473.64 1104.28 470.24 1105.82 469.00 1106.00 Z"/>
</g>
<g fill="#FFFFFF" fill-opacity="0.48" stroke="None">
<path d="
M 1188.00 1106.00 
C 1193.16 1106.35 1198.84 1106.35 1204.00 1106.00
C 1202.85 1105.83 1199.20 1104.00 1196.00 1104.00 C 1192.80 1104.00 1189.10 1105.84 1188.00 1106.00 Z"/>
</g>
<g fill="#FFFFFF" fill-opacity="0.13" stroke="None">
<path d="
M 496.00 1130.00 
C 495.71 1125.69 496.39 1121.30 496.00 1117.00
C 496.00 1117.00 495.00 1116.96 495.00 1117.00
C 494.58 1121.44 495.64 1126.27 496.00 1130.00 Z"/>
</g>
<g fill="#FFFFFF" fill-opacity="0.75" stroke="None">
<path d="
M 496.00 1130.00 
C 496.28 1127.12 498.88 1119.79 496.00 1117.00
C 496.39 1121.30 495.71 1125.69 496.00 1130.00 Z"/>
</g>
<g fill="#FFFFFF" fill-opacity="0.75" stroke="None">
<path d="
M 1178.00 1130.00 
C 1178.29 1125.69 1177.61 1121.30 1178.00 1117.00
C 1175.12 1119.78 1177.71 1127.00 1178.00 1130.00 Z"/>
</g>
<g fill="#FFFFFF" fill-opacity="0.13" stroke="None">
<path d="
M 1178.00 1130.00 
C 1178.35 1126.34 1179.42 1121.44 1179.00 1117.00
C 1179.00 1117.00 1178.26 1116.75 1178.00 1117.00
C 1177.61 1121.30 1178.29 1125.69 1178.00 1130.00 Z"/>
</g>
<g fill="#FFFFFF" fill-opacity="0.25" stroke="None">
<path d="
M 1088.00 1176.00 
C 1070.62 1179.11 1050.72 1175.51 1033.00 1176.00 C 1015.28 1176.49 995.65 1177.81 978.00 1176.00
C 987.47 1179.45 1002.08 1178.01 1014.00 1178.00 C 1025.92 1177.99 1040.16 1178.58 1052.00 1178.00 C 1063.84 1177.42 1078.84 1180.43 1088.00 1176.00 Z"/>
</g>
<g fill="#FFFFFF" fill-opacity="0.33" stroke="None">
<path d="
M 751.00 1282.00 
C 752.07 1282.94 752.88 1283.27 754.00 1284.00
C 753.63 1283.59 751.84 1282.47 751.00 1282.00 Z"/>
</g>
<g fill="#FFFFFF" fill-opacity="0.33" stroke="None">
<path d="
M 920.00 1284.00 
C 921.22 1283.21 921.83 1283.02 923.00 1282.00
C 922.25 1282.42 920.43 1283.52 920.00 1284.00 Z"/>
</g>
</svg>
